<ttFont>
<head>
    <!-- Most of this table will be recalculated by the compiler -->
    <tableVersion value="1.0"/>
    <fontRevision value="1.0"/>
    <checkSumAdjustment value="0xb3fe88c7"/>
    <magicNumber value="0x5f0f3cf5"/>
    <flags value="00000000 00011111"/>
    <unitsPerEm value="1000"/>
    <created value="Fri Jan  9 08:15:30 2015"/>
    <modified value="Fri Jan  9 08:15:30 2015"/>
    <xMin value="-251"/>
    <yMin value="-196"/>
    <xMax value="1218"/>
    <yMax value="936"/>
    <macStyle value="00000000 00000000"/>
    <lowestRecPPEM value="8"/>
    <fontDirectionHint value="2"/>
    <indexToLocFormat value="0"/>
    <glyphDataFormat value="0"/>
  </head>
    <TTGlyph name=".notdef" xMin="54" yMin="-15" xMax="749" yMax="683">
      <contour>
        <pt x="402" y="683" on="1"/>
        <pt x="546" y="683" on="0"/>
        <pt x="749" y="484" on="0"/>
        <pt x="749" y="333" on="1"/>
        <pt x="749" y="184" on="0"/>
        <pt x="546" y="-15" on="0"/>
        <pt x="402" y="-15" on="1"/>
        <pt x="257" y="-15" on="0"/>
        <pt x="54" y="184" on="0"/>
        <pt x="54" y="333" on="1"/>
        <pt x="54" y="484" on="0"/>
        <pt x="257" y="683" on="0"/>
      </contour>
      <contour>
        <pt x="402" y="656" on="1"/>
        <pt x="269" y="656" on="0"/>
        <pt x="84" y="473" on="0"/>
        <pt x="84" y="334" on="1"/>
        <pt x="84" y="196" on="0"/>
        <pt x="270" y="13" on="0"/>
        <pt x="534" y="13" on="0"/>
        <pt x="719" y="196" on="0"/>
        <pt x="719" y="334" on="1"/>
        <pt x="719" y="473" on="0"/>
        <pt x="534" y="656" on="0"/>
      </contour>
      <contour>
        <pt x="532" y="401" on="1"/>
        <pt x="532" y="353" on="0"/>
        <pt x="465" y="291" on="0"/>
        <pt x="413" y="287" on="1"/>
        <pt x="413" y="237" on="1"/>
        <pt x="381" y="237" on="1"/>
        <pt x="381" y="317" on="1"/>
        <pt x="400" y="317" on="1"/>
        <pt x="442" y="317" on="0"/>
        <pt x="497" y="363" on="0"/>
        <pt x="497" y="439" on="0"/>
        <pt x="446" y="486" on="0"/>
        <pt x="403" y="486" on="1"/>
        <pt x="358" y="486" on="0"/>
        <pt x="305" y="431" on="0"/>
        <pt x="305" y="386" on="1"/>
        <pt x="271" y="391" on="1"/>
        <pt x="271" y="446" on="0"/>
        <pt x="345" y="517" on="0"/>
        <pt x="403" y="517" on="1"/>
        <pt x="460" y="517" on="0"/>
        <pt x="532" y="453" on="0"/>
      </contour>
      <contour>
        <pt x="387" y="192" on="0"/>
        <pt x="407" y="192" on="0"/>
        <pt x="422" y="178" on="0"/>
        <pt x="422" y="158" on="0"/>
        <pt x="407" y="143" on="0"/>
        <pt x="387" y="143" on="0"/>
        <pt x="372" y="158" on="0"/>
        <pt x="372" y="178" on="0"/>
      </contour>
    </TTGlyph>
    <TTGlyph name="A" xMin="-39" yMin="0" xMax="616" yMax="670">
      <contour>
        <pt x="616" y="0" on="1"/>
        <pt x="566" y="0" on="1"/>
        <pt x="526" y="183" on="1"/>
        <pt x="144" y="183" on="1"/>
        <pt x="19" y="0" on="1"/>
        <pt x="-39" y="0" on="1"/>
        <pt x="421" y="670" on="1"/>
        <pt x="466" y="670" on="1"/>
      </contour>
      <contour>
        <pt x="515" y="229" on="1"/>
        <pt x="432" y="606" on="1"/>
        <pt x="175" y="229" on="1"/>
      </contour>
    </TTGlyph>
    <TTGlyph name="AE" xMin="-39" yMin="0" xMax="1173" yMax="670">
      <contour>
        <pt x="733" y="624" on="1"/>
        <pt x="672" y="359" on="1"/>
        <pt x="1071" y="359" on="1"/>
        <pt x="1061" y="314" on="1"/>
        <pt x="662" y="314" on="1"/>
        <pt x="600" y="46" on="1"/>
        <pt x="1029" y="46" on="1"/>
        <pt x="1019" y="0" on="1"/>
        <pt x="539" y="0" on="1"/>
        <pt x="578" y="170" on="1"/>
        <pt x="213" y="170" on="1"/>
        <pt x="29" y="0" on="1"/>
        <pt x="-39" y="0" on="1"/>
        <pt x="689" y="670" on="1"/>
        <pt x="1173" y="670" on="1"/>
        <pt x="1162" y="624" on="1"/>
      </contour>
      <contour>
        <pt x="589" y="216" on="1"/>
        <pt x="678" y="601" on="1"/>
        <pt x="262" y="216" on="1"/>
      </contour>
    </TTGlyph>
    <TTGlyph name="AEacute" xMin="-39" yMin="0" xMax="1173" yMax="886">
      <contour>
        <pt x="917" y="748" on="1"/>
        <pt x="870" y="748" on="1"/>
        <pt x="988" y="886" on="1"/>
        <pt x="1051" y="886" on="1"/>
      </contour>
      <contour>
        <pt x="733" y="624" on="1"/>
        <pt x="672" y="359" on="1"/>
        <pt x="1071" y="359" on="1"/>
        <pt x="1061" y="314" on="1"/>
        <pt x="662" y="314" on="1"/>
        <pt x="600" y="46" on="1"/>
        <pt x="1029" y="46" on="1"/>
        <pt x="1019" y="0" on="1"/>
        <pt x="539" y="0" on="1"/>
        <pt x="578" y="170" on="1"/>
        <pt x="213" y="170" on="1"/>
        <pt x="29" y="0" on="1"/>
        <pt x="-39" y="0" on="1"/>
        <pt x="689" y="670" on="1"/>
        <pt x="1173" y="670" on="1"/>
        <pt x="1162" y="624" on="1"/>
      </contour>
      <contour>
        <pt x="589" y="216" on="1"/>
        <pt x="678" y="601" on="1"/>
        <pt x="262" y="216" on="1"/>
      </contour>
    </TTGlyph>
    <TTGlyph name="Aacute" xMin="-39" yMin="0" xMax="626" yMax="886">
      <contour>
        <pt x="492" y="748" on="1"/>
        <pt x="445" y="748" on="1"/>
        <pt x="563" y="886" on="1"/>
        <pt x="626" y="886" on="1"/>
      </contour>
      <contour>
        <pt x="466" y="670" on="1"/>
        <pt x="616" y="0" on="1"/>
        <pt x="566" y="0" on="1"/>
        <pt x="526" y="183" on="1"/>
        <pt x="144" y="183" on="1"/>
        <pt x="19" y="0" on="1"/>
        <pt x="-39" y="0" on="1"/>
        <pt x="421" y="670" on="1"/>
      </contour>
      <contour>
        <pt x="515" y="229" on="1"/>
        <pt x="432" y="606" on="1"/>
        <pt x="175" y="229" on="1"/>
      </contour>
    </TTGlyph>
    <TTGlyph name="Abreve" xMin="-39" yMin="0" xMax="623" yMax="865">
      <contour>
        <pt x="466" y="739" on="1"/>
        <pt x="406" y="739" on="0"/>
        <pt x="344" y="808" on="0"/>
        <pt x="355" y="865" on="1"/>
        <pt x="394" y="865" on="1"/>
        <pt x="387" y="825" on="0"/>
        <pt x="431" y="775" on="0"/>
        <pt x="509" y="775" on="0"/>
        <pt x="571" y="825" on="0"/>
        <pt x="578" y="865" on="1"/>
        <pt x="623" y="865" on="1"/>
        <pt x="612" y="808" on="0"/>
        <pt x="525" y="739" on="0"/>
      </contour>
      <contour>
        <pt x="466" y="670" on="1"/>
        <pt x="616" y="0" on="1"/>
        <pt x="566" y="0" on="1"/>
        <pt x="526" y="183" on="1"/>
        <pt x="144" y="183" on="1"/>
        <pt x="19" y="0" on="1"/>
        <pt x="-39" y="0" on="1"/>
        <pt x="421" y="670" on="1"/>
      </contour>
      <contour>
        <pt x="515" y="229" on="1"/>
        <pt x="432" y="606" on="1"/>
        <pt x="175" y="229" on="1"/>
      </contour>
    </TTGlyph>
    <TTGlyph name="Acircumflex" xMin="-39" yMin="0" xMax="616" yMax="879">
      <contour>
        <pt x="381" y="741" on="1"/>
        <pt x="326" y="741" on="1"/>
        <pt x="477" y="879" on="1"/>
        <pt x="523" y="879" on="1"/>
        <pt x="610" y="741" on="1"/>
        <pt x="561" y="741" on="1"/>
        <pt x="496" y="846" on="1"/>
      </contour>
      <contour>
        <pt x="616" y="0" on="1"/>
        <pt x="566" y="0" on="1"/>
        <pt x="526" y="183" on="1"/>
        <pt x="144" y="183" on="1"/>
        <pt x="19" y="0" on="1"/>
        <pt x="-39" y="0" on="1"/>
        <pt x="421" y="670" on="1"/>
        <pt x="466" y="670" on="1"/>
      </contour>
      <contour>
        <pt x="515" y="229" on="1"/>
        <pt x="432" y="606" on="1"/>
        <pt x="175" y="229" on="1"/>
      </contour>
    </TTGlyph>
    <TTGlyph name="Adieresis" xMin="-39" yMin="0" xMax="616" yMax="841">
      <contour>
        <pt x="397" y="766" on="0"/>
        <pt x="363" y="766" on="0"/>
        <pt x="342" y="787" on="0"/>
        <pt x="342" y="803" on="1"/>
        <pt x="342" y="818" on="0"/>
        <pt x="364" y="841" on="0"/>
        <pt x="396" y="841" on="0"/>
        <pt x="419" y="818" on="0"/>
        <pt x="419" y="803" on="1"/>
        <pt x="419" y="787" on="0"/>
      </contour>
      <contour>
        <pt x="586" y="766" on="0"/>
        <pt x="552" y="766" on="0"/>
        <pt x="531" y="787" on="0"/>
        <pt x="531" y="803" on="1"/>
        <pt x="531" y="818" on="0"/>
        <pt x="553" y="841" on="0"/>
        <pt x="585" y="841" on="0"/>
        <pt x="608" y="818" on="0"/>
        <pt x="608" y="803" on="1"/>
        <pt x="608" y="787" on="0"/>
      </contour>
      <contour>
        <pt x="616" y="0" on="1"/>
        <pt x="566" y="0" on="1"/>
        <pt x="526" y="183" on="1"/>
        <pt x="144" y="183" on="1"/>
        <pt x="19" y="0" on="1"/>
        <pt x="-39" y="0" on="1"/>
        <pt x="421" y="670" on="1"/>
        <pt x="466" y="670" on="1"/>
      </contour>
      <contour>
        <pt x="515" y="229" on="1"/>
        <pt x="432" y="606" on="1"/>
        <pt x="175" y="229" on="1"/>
      </contour>
    </TTGlyph>
    <TTGlyph name="Agrave" xMin="-39" yMin="0" xMax="616" yMax="886">
      <contour>
        <pt x="436" y="748" on="1"/>
        <pt x="302" y="886" on="1"/>
        <pt x="365" y="886" on="1"/>
        <pt x="483" y="748" on="1"/>
      </contour>
      <contour>
        <pt x="616" y="0" on="1"/>
        <pt x="566" y="0" on="1"/>
        <pt x="526" y="183" on="1"/>
        <pt x="144" y="183" on="1"/>
        <pt x="19" y="0" on="1"/>
        <pt x="-39" y="0" on="1"/>
        <pt x="421" y="670" on="1"/>
        <pt x="466" y="670" on="1"/>
      </contour>
      <contour>
        <pt x="515" y="229" on="1"/>
        <pt x="432" y="606" on="1"/>
        <pt x="175" y="229" on="1"/>
      </contour>
    </TTGlyph>
    <TTGlyph name="Amacron" xMin="-39" yMin="0" xMax="616" yMax="810">
      <contour>
        <pt x="601" y="770" on="1"/>
        <pt x="334" y="770" on="1"/>
        <pt x="343" y="810" on="1"/>
        <pt x="610" y="810" on="1"/>
      </contour>
      <contour>
        <pt x="616" y="0" on="1"/>
        <pt x="566" y="0" on="1"/>
        <pt x="526" y="183" on="1"/>
        <pt x="144" y="183" on="1"/>
        <pt x="19" y="0" on="1"/>
        <pt x="-39" y="0" on="1"/>
        <pt x="421" y="670" on="1"/>
        <pt x="466" y="670" on="1"/>
      </contour>
      <contour>
        <pt x="515" y="229" on="1"/>
        <pt x="432" y="606" on="1"/>
        <pt x="175" y="229" on="1"/>
      </contour>
    </TTGlyph>
    <TTGlyph name="Aogonek" xMin="-39" yMin="-196" xMax="616" yMax="670">
      <contour>
        <pt x="516" y="-116" on="1"/>
        <pt x="516" y="-136" on="0"/>
        <pt x="542" y="-158" on="0"/>
        <pt x="564" y="-158" on="1"/>
        <pt x="579" y="-158" on="0"/>
        <pt x="610" y="-147" on="1"/>
        <pt x="609" y="-182" on="1"/>
        <pt x="573" y="-196" on="0"/>
        <pt x="550" y="-196" on="1"/>
        <pt x="516" y="-196" on="0"/>
        <pt x="474" y="-156" on="0"/>
        <pt x="474" y="-124" on="1"/>
        <pt x="474" y="-95" on="0"/>
        <pt x="517" y="-42" on="0"/>
        <pt x="572" y="0" on="1"/>
        <pt x="566" y="0" on="1"/>
        <pt x="526" y="183" on="1"/>
        <pt x="144" y="183" on="1"/>
        <pt x="19" y="0" on="1"/>
        <pt x="-39" y="0" on="1"/>
        <pt x="421" y="670" on="1"/>
        <pt x="466" y="670" on="1"/>
        <pt x="616" y="0" on="1"/>
        <pt x="609" y="-6" on="0"/>
        <pt x="584" y="-26" on="0"/>
        <pt x="573" y="-36" on="0"/>
        <pt x="553" y="-52" on="0"/>
        <pt x="544" y="-61" on="0"/>
        <pt x="531" y="-75" on="0"/>
        <pt x="525" y="-85" on="0"/>
        <pt x="518" y="-98" on="0"/>
        <pt x="516" y="-110" on="0"/>
      </contour>
      <contour>
        <pt x="515" y="229" on="1"/>
        <pt x="432" y="606" on="1"/>
        <pt x="175" y="229" on="1"/>
      </contour>
    </TTGlyph>
    <TTGlyph name="Aring" xMin="-39" yMin="0" xMax="616" yMax="919">
      <contour>
        <pt x="471" y="733" on="1"/>
        <pt x="433" y="733" on="0"/>
        <pt x="383" y="783" on="0"/>
        <pt x="383" y="819" on="1"/>
        <pt x="383" y="860" on="0"/>
        <pt x="445" y="919" on="0"/>
        <pt x="487" y="919" on="1"/>
        <pt x="525" y="919" on="0"/>
        <pt x="575" y="868" on="0"/>
        <pt x="575" y="832" on="1"/>
        <pt x="575" y="792" on="0"/>
        <pt x="513" y="733" on="0"/>
      </contour>
      <contour>
        <pt x="484" y="887" on="1"/>
        <pt x="456" y="887" on="0"/>
        <pt x="417" y="848" on="0"/>
        <pt x="417" y="821" on="1"/>
        <pt x="417" y="798" on="0"/>
        <pt x="449" y="765" on="0"/>
        <pt x="474" y="765" on="1"/>
        <pt x="502" y="765" on="0"/>
        <pt x="542" y="805" on="0"/>
        <pt x="542" y="831" on="1"/>
        <pt x="542" y="854" on="0"/>
        <pt x="509" y="887" on="0"/>
      </contour>
      <contour>
        <pt x="616" y="0" on="1"/>
        <pt x="566" y="0" on="1"/>
        <pt x="526" y="183" on="1"/>
        <pt x="144" y="183" on="1"/>
        <pt x="19" y="0" on="1"/>
        <pt x="-39" y="0" on="1"/>
        <pt x="421" y="670" on="1"/>
        <pt x="466" y="670" on="1"/>
      </contour>
      <contour>
        <pt x="515" y="229" on="1"/>
        <pt x="432" y="606" on="1"/>
        <pt x="175" y="229" on="1"/>
      </contour>
    </TTGlyph>
    <TTGlyph name="Atilde" xMin="-39" yMin="0" xMax="627" yMax="865">
      <contour>
        <pt x="420" y="827" on="1"/>
        <pt x="401" y="827" on="0"/>
        <pt x="372" y="800" on="0"/>
        <pt x="367" y="777" on="1"/>
        <pt x="329" y="777" on="1"/>
        <pt x="339" y="820" on="0"/>
        <pt x="393" y="865" on="0"/>
        <pt x="426" y="865" on="1"/>
        <pt x="456" y="865" on="0"/>
        <pt x="514" y="812" on="0"/>
        <pt x="536" y="812" on="1"/>
        <pt x="555" y="812" on="0"/>
        <pt x="584" y="840" on="0"/>
        <pt x="589" y="864" on="1"/>
        <pt x="627" y="864" on="1"/>
        <pt x="617" y="821" on="0"/>
        <pt x="563" y="775" on="0"/>
        <pt x="530" y="775" on="1"/>
        <pt x="500" y="775" on="0"/>
        <pt x="441" y="827" on="0"/>
      </contour>
      <contour>
        <pt x="466" y="670" on="1"/>
        <pt x="616" y="0" on="1"/>
        <pt x="566" y="0" on="1"/>
        <pt x="526" y="183" on="1"/>
        <pt x="144" y="183" on="1"/>
        <pt x="19" y="0" on="1"/>
        <pt x="-39" y="0" on="1"/>
        <pt x="421" y="670" on="1"/>
      </contour>
      <contour>
        <pt x="515" y="229" on="1"/>
        <pt x="432" y="606" on="1"/>
        <pt x="175" y="229" on="1"/>
      </contour>
    </TTGlyph>
    <TTGlyph name="B" xMin="50" yMin="0" xMax="659" yMax="670">
      <contour>
        <pt x="509" y="343" on="1"/>
        <pt x="509" y="340" on="1"/>
        <pt x="559" y="332" on="0"/>
        <pt x="617" y="264" on="0"/>
        <pt x="617" y="211" on="1"/>
        <pt x="617" y="122" on="0"/>
        <pt x="475" y="0" on="0"/>
        <pt x="366" y="0" on="1"/>
        <pt x="50" y="0" on="1"/>
        <pt x="60" y="44" on="1"/>
        <pt x="194" y="626" on="1"/>
        <pt x="205" y="670" on="1"/>
        <pt x="483" y="670" on="1"/>
        <pt x="563" y="670" on="0"/>
        <pt x="659" y="592" on="0"/>
        <pt x="659" y="526" on="1"/>
        <pt x="659" y="461" on="0"/>
        <pt x="568" y="355" on="0"/>
      </contour>
      <contour>
        <pt x="245" y="626" on="1"/>
        <pt x="183" y="359" on="1"/>
        <pt x="430" y="359" on="1"/>
        <pt x="504" y="359" on="0"/>
        <pt x="609" y="454" on="0"/>
        <pt x="609" y="518" on="1"/>
        <pt x="609" y="569" on="0"/>
        <pt x="535" y="626" on="0"/>
        <pt x="475" y="626" on="1"/>
      </contour>
      <contour>
        <pt x="110" y="44" on="1"/>
        <pt x="372" y="44" on="1"/>
        <pt x="456" y="44" on="0"/>
        <pt x="566" y="141" on="0"/>
        <pt x="566" y="210" on="1"/>
        <pt x="566" y="261" on="0"/>
        <pt x="499" y="317" on="0"/>
        <pt x="439" y="317" on="1"/>
        <pt x="173" y="317" on="1"/>
      </contour>
    </TTGlyph>
    <TTGlyph name="C" xMin="82" yMin="-11" xMax="769" yMax="681">
      <contour>
        <pt x="486" y="681" on="1"/>
        <pt x="596" y="681" on="0"/>
        <pt x="749" y="573" on="0"/>
        <pt x="769" y="483" on="1"/>
        <pt x="718" y="470" on="1"/>
        <pt x="700" y="544" on="0"/>
        <pt x="576" y="635" on="0"/>
        <pt x="484" y="635" on="1"/>
        <pt x="343" y="635" on="0"/>
        <pt x="134" y="434" on="0"/>
        <pt x="134" y="293" on="1"/>
        <pt x="134" y="181" on="0"/>
        <pt x="273" y="35" on="0"/>
        <pt x="389" y="35" on="1"/>
        <pt x="480" y="35" on="0"/>
        <pt x="634" y="127" on="0"/>
        <pt x="673" y="199" on="1"/>
        <pt x="719" y="183" on="1"/>
        <pt x="673" y="96" on="0"/>
        <pt x="496" y="-11" on="0"/>
        <pt x="386" y="-11" on="1"/>
        <pt x="249" y="-11" on="0"/>
        <pt x="82" y="159" on="0"/>
        <pt x="82" y="290" on="1"/>
        <pt x="82" y="450" on="0"/>
        <pt x="321" y="681" on="0"/>
      </contour>
    </TTGlyph>
    <TTGlyph name="Cacute" xMin="82" yMin="-11" xMax="769" yMax="886">
      <contour>
        <pt x="535" y="748" on="1"/>
        <pt x="488" y="748" on="1"/>
        <pt x="606" y="886" on="1"/>
        <pt x="669" y="886" on="1"/>
      </contour>
      <contour>
        <pt x="486" y="681" on="1"/>
        <pt x="596" y="681" on="0"/>
        <pt x="749" y="573" on="0"/>
        <pt x="769" y="483" on="1"/>
        <pt x="718" y="470" on="1"/>
        <pt x="700" y="544" on="0"/>
        <pt x="576" y="635" on="0"/>
        <pt x="484" y="635" on="1"/>
        <pt x="343" y="635" on="0"/>
        <pt x="134" y="434" on="0"/>
        <pt x="134" y="293" on="1"/>
        <pt x="134" y="181" on="0"/>
        <pt x="273" y="35" on="0"/>
        <pt x="389" y="35" on="1"/>
        <pt x="480" y="35" on="0"/>
        <pt x="634" y="127" on="0"/>
        <pt x="673" y="199" on="1"/>
        <pt x="719" y="183" on="1"/>
        <pt x="673" y="96" on="0"/>
        <pt x="496" y="-11" on="0"/>
        <pt x="386" y="-11" on="1"/>
        <pt x="249" y="-11" on="0"/>
        <pt x="82" y="159" on="0"/>
        <pt x="82" y="290" on="1"/>
        <pt x="82" y="450" on="0"/>
        <pt x="321" y="681" on="0"/>
      </contour>
    </TTGlyph>
    <TTGlyph name="Ccaron" xMin="82" yMin="-11" xMax="769" yMax="881">
      <contour>
        <pt x="481" y="742" on="1"/>
        <pt x="395" y="881" on="1"/>
        <pt x="443" y="881" on="1"/>
        <pt x="508" y="775" on="1"/>
        <pt x="623" y="881" on="1"/>
        <pt x="678" y="881" on="1"/>
        <pt x="527" y="742" on="1"/>
      </contour>
      <contour>
        <pt x="389" y="35" on="1"/>
        <pt x="480" y="35" on="0"/>
        <pt x="634" y="127" on="0"/>
        <pt x="673" y="199" on="1"/>
        <pt x="719" y="183" on="1"/>
        <pt x="673" y="96" on="0"/>
        <pt x="496" y="-11" on="0"/>
        <pt x="386" y="-11" on="1"/>
        <pt x="249" y="-11" on="0"/>
        <pt x="82" y="159" on="0"/>
        <pt x="82" y="290" on="1"/>
        <pt x="82" y="450" on="0"/>
        <pt x="321" y="681" on="0"/>
        <pt x="486" y="681" on="1"/>
        <pt x="596" y="681" on="0"/>
        <pt x="749" y="573" on="0"/>
        <pt x="769" y="483" on="1"/>
        <pt x="718" y="470" on="1"/>
        <pt x="700" y="544" on="0"/>
        <pt x="576" y="635" on="0"/>
        <pt x="484" y="635" on="1"/>
        <pt x="343" y="635" on="0"/>
        <pt x="134" y="434" on="0"/>
        <pt x="134" y="293" on="1"/>
        <pt x="134" y="181" on="0"/>
        <pt x="273" y="35" on="0"/>
      </contour>
    </TTGlyph>
    <TTGlyph name="Ccedilla" xMin="82" yMin="-175" xMax="769" yMax="681">
      <contour>
        <pt x="389" y="35" on="1"/>
        <pt x="480" y="35" on="0"/>
        <pt x="634" y="127" on="0"/>
        <pt x="673" y="199" on="1"/>
        <pt x="719" y="183" on="1"/>
        <pt x="673" y="97" on="0"/>
        <pt x="497" y="-10" on="0"/>
        <pt x="388" y="-11" on="1"/>
        <pt x="267" y="-175" on="1"/>
        <pt x="205" y="-175" on="1"/>
        <pt x="346" y="-9" on="1"/>
        <pt x="226" y="4" on="0"/>
        <pt x="82" y="170" on="0"/>
        <pt x="82" y="290" on="1"/>
        <pt x="82" y="450" on="0"/>
        <pt x="321" y="681" on="0"/>
        <pt x="486" y="681" on="1"/>
        <pt x="596" y="681" on="0"/>
        <pt x="749" y="573" on="0"/>
        <pt x="769" y="483" on="1"/>
        <pt x="718" y="470" on="1"/>
        <pt x="700" y="544" on="0"/>
        <pt x="576" y="635" on="0"/>
        <pt x="484" y="635" on="1"/>
        <pt x="343" y="635" on="0"/>
        <pt x="134" y="434" on="0"/>
        <pt x="134" y="293" on="1"/>
        <pt x="134" y="181" on="0"/>
        <pt x="273" y="35" on="0"/>
      </contour>
    </TTGlyph>
    <TTGlyph name="Cdotaccent" xMin="82" yMin="-11" xMax="769" yMax="846">
      <contour>
        <pt x="500" y="846" on="0"/>
        <pt x="532" y="846" on="0"/>
        <pt x="555" y="824" on="0"/>
        <pt x="555" y="809" on="1"/>
        <pt x="555" y="793" on="0"/>
        <pt x="533" y="772" on="0"/>
        <pt x="516" y="772" on="1"/>
        <pt x="500" y="772" on="0"/>
        <pt x="478" y="793" on="0"/>
        <pt x="478" y="809" on="1"/>
        <pt x="478" y="824" on="0"/>
      </contour>
      <contour>
        <pt x="486" y="681" on="1"/>
        <pt x="596" y="681" on="0"/>
        <pt x="749" y="573" on="0"/>
        <pt x="769" y="483" on="1"/>
        <pt x="718" y="470" on="1"/>
        <pt x="700" y="544" on="0"/>
        <pt x="576" y="635" on="0"/>
        <pt x="484" y="635" on="1"/>
        <pt x="343" y="635" on="0"/>
        <pt x="134" y="434" on="0"/>
        <pt x="134" y="293" on="1"/>
        <pt x="134" y="181" on="0"/>
        <pt x="273" y="35" on="0"/>
        <pt x="389" y="35" on="1"/>
        <pt x="480" y="35" on="0"/>
        <pt x="634" y="127" on="0"/>
        <pt x="673" y="199" on="1"/>
        <pt x="719" y="183" on="1"/>
        <pt x="673" y="96" on="0"/>
        <pt x="496" y="-11" on="0"/>
        <pt x="386" y="-11" on="1"/>
        <pt x="249" y="-11" on="0"/>
        <pt x="82" y="159" on="0"/>
        <pt x="82" y="290" on="1"/>
        <pt x="82" y="450" on="0"/>
        <pt x="321" y="681" on="0"/>
      </contour>
    </TTGlyph>
    <TTGlyph name="D" xMin="40" yMin="0" xMax="710" yMax="670">
      <contour>
        <pt x="195" y="670" on="1"/>
        <pt x="403" y="670" on="1"/>
        <pt x="552" y="670" on="0"/>
        <pt x="710" y="519" on="0"/>
        <pt x="710" y="397" on="1"/>
        <pt x="710" y="320" on="0"/>
        <pt x="645" y="177" on="0"/>
        <pt x="530" y="66" on="0"/>
        <pt x="356" y="0" on="0"/>
        <pt x="254" y="0" on="1"/>
        <pt x="40" y="0" on="1"/>
      </contour>
      <contour>
        <pt x="102" y="46" on="1"/>
        <pt x="250" y="46" on="1"/>
        <pt x="430" y="46" on="0"/>
        <pt x="658" y="255" on="0"/>
        <pt x="658" y="395" on="1"/>
        <pt x="658" y="497" on="0"/>
        <pt x="525" y="624" on="0"/>
        <pt x="399" y="624" on="1"/>
        <pt x="236" y="624" on="1"/>
      </contour>
    </TTGlyph>
    <TTGlyph name="Dcaron" xMin="40" yMin="0" xMax="710" yMax="881">
      <contour>
        <pt x="440" y="742" on="1"/>
        <pt x="354" y="881" on="1"/>
        <pt x="402" y="881" on="1"/>
        <pt x="467" y="775" on="1"/>
        <pt x="582" y="881" on="1"/>
        <pt x="637" y="881" on="1"/>
        <pt x="486" y="742" on="1"/>
      </contour>
      <contour>
        <pt x="195" y="670" on="1"/>
        <pt x="403" y="670" on="1"/>
        <pt x="552" y="670" on="0"/>
        <pt x="710" y="519" on="0"/>
        <pt x="710" y="397" on="1"/>
        <pt x="710" y="320" on="0"/>
        <pt x="645" y="177" on="0"/>
        <pt x="530" y="66" on="0"/>
        <pt x="356" y="0" on="0"/>
        <pt x="254" y="0" on="1"/>
        <pt x="40" y="0" on="1"/>
      </contour>
      <contour>
        <pt x="102" y="46" on="1"/>
        <pt x="250" y="46" on="1"/>
        <pt x="430" y="46" on="0"/>
        <pt x="658" y="255" on="0"/>
        <pt x="658" y="395" on="1"/>
        <pt x="658" y="497" on="0"/>
        <pt x="525" y="624" on="0"/>
        <pt x="399" y="624" on="1"/>
        <pt x="236" y="624" on="1"/>
      </contour>
    </TTGlyph>
    <TTGlyph name="Dcroat" xMin="57" yMin="0" xMax="740" yMax="670">
      <contour>
        <pt x="225" y="670" on="1"/>
        <pt x="433" y="670" on="1"/>
        <pt x="582" y="670" on="0"/>
        <pt x="740" y="519" on="0"/>
        <pt x="740" y="397" on="1"/>
        <pt x="740" y="320" on="0"/>
        <pt x="675" y="177" on="0"/>
        <pt x="559" y="66" on="0"/>
        <pt x="386" y="0" on="0"/>
        <pt x="284" y="0" on="1"/>
        <pt x="70" y="0" on="1"/>
        <pt x="143" y="315" on="1"/>
        <pt x="57" y="315" on="1"/>
        <pt x="67" y="361" on="1"/>
        <pt x="154" y="361" on="1"/>
      </contour>
      <contour>
        <pt x="131" y="46" on="1"/>
        <pt x="280" y="46" on="1"/>
        <pt x="460" y="46" on="0"/>
        <pt x="687" y="255" on="0"/>
        <pt x="687" y="395" on="1"/>
        <pt x="687" y="497" on="0"/>
        <pt x="555" y="624" on="0"/>
        <pt x="429" y="624" on="1"/>
        <pt x="265" y="624" on="1"/>
        <pt x="204" y="361" on="1"/>
        <pt x="385" y="361" on="1"/>
        <pt x="375" y="315" on="1"/>
        <pt x="193" y="315" on="1"/>
      </contour>
    </TTGlyph>
    <TTGlyph name="E" xMin="40" yMin="0" xMax="674" yMax="670">
      <contour>
        <pt x="234" y="624" on="1"/>
        <pt x="174" y="359" on="1"/>
        <pt x="572" y="359" on="1"/>
        <pt x="562" y="314" on="1"/>
        <pt x="163" y="314" on="1"/>
        <pt x="102" y="46" on="1"/>
        <pt x="531" y="46" on="1"/>
        <pt x="520" y="0" on="1"/>
        <pt x="40" y="0" on="1"/>
        <pt x="195" y="670" on="1"/>
        <pt x="674" y="670" on="1"/>
        <pt x="663" y="624" on="1"/>
      </contour>
    </TTGlyph>
    <TTGlyph name="Eacute" xMin="40" yMin="0" xMax="674" yMax="886">
      <contour>
        <pt x="479" y="748" on="1"/>
        <pt x="432" y="748" on="1"/>
        <pt x="550" y="886" on="1"/>
        <pt x="613" y="886" on="1"/>
      </contour>
      <contour>
        <pt x="234" y="624" on="1"/>
        <pt x="174" y="359" on="1"/>
        <pt x="572" y="359" on="1"/>
        <pt x="562" y="314" on="1"/>
        <pt x="163" y="314" on="1"/>
        <pt x="102" y="46" on="1"/>
        <pt x="531" y="46" on="1"/>
        <pt x="520" y="0" on="1"/>
        <pt x="40" y="0" on="1"/>
        <pt x="195" y="670" on="1"/>
        <pt x="674" y="670" on="1"/>
        <pt x="663" y="624" on="1"/>
      </contour>
    </TTGlyph>
    <TTGlyph name="Ecaron" xMin="40" yMin="0" xMax="674" yMax="881">
      <contour>
        <pt x="425" y="742" on="1"/>
        <pt x="339" y="881" on="1"/>
        <pt x="387" y="881" on="1"/>
        <pt x="452" y="775" on="1"/>
        <pt x="567" y="881" on="1"/>
        <pt x="622" y="881" on="1"/>
        <pt x="471" y="742" on="1"/>
      </contour>
      <contour>
        <pt x="234" y="624" on="1"/>
        <pt x="174" y="359" on="1"/>
        <pt x="572" y="359" on="1"/>
        <pt x="562" y="314" on="1"/>
        <pt x="163" y="314" on="1"/>
        <pt x="102" y="46" on="1"/>
        <pt x="531" y="46" on="1"/>
        <pt x="520" y="0" on="1"/>
        <pt x="40" y="0" on="1"/>
        <pt x="195" y="670" on="1"/>
        <pt x="674" y="670" on="1"/>
        <pt x="663" y="624" on="1"/>
      </contour>
    </TTGlyph>
    <TTGlyph name="Ecircumflex" xMin="40" yMin="0" xMax="674" yMax="879">
      <contour>
        <pt x="368" y="741" on="1"/>
        <pt x="313" y="741" on="1"/>
        <pt x="464" y="879" on="1"/>
        <pt x="510" y="879" on="1"/>
        <pt x="597" y="741" on="1"/>
        <pt x="548" y="741" on="1"/>
        <pt x="483" y="846" on="1"/>
      </contour>
      <contour>
        <pt x="234" y="624" on="1"/>
        <pt x="174" y="359" on="1"/>
        <pt x="572" y="359" on="1"/>
        <pt x="562" y="314" on="1"/>
        <pt x="163" y="314" on="1"/>
        <pt x="102" y="46" on="1"/>
        <pt x="531" y="46" on="1"/>
        <pt x="520" y="0" on="1"/>
        <pt x="40" y="0" on="1"/>
        <pt x="195" y="670" on="1"/>
        <pt x="674" y="670" on="1"/>
        <pt x="663" y="624" on="1"/>
      </contour>
    </TTGlyph>
    <TTGlyph name="Edieresis" xMin="40" yMin="0" xMax="674" yMax="841">
      <contour>
        <pt x="384" y="766" on="0"/>
        <pt x="350" y="766" on="0"/>
        <pt x="329" y="787" on="0"/>
        <pt x="329" y="803" on="1"/>
        <pt x="329" y="818" on="0"/>
        <pt x="351" y="841" on="0"/>
        <pt x="383" y="841" on="0"/>
        <pt x="406" y="818" on="0"/>
        <pt x="406" y="803" on="1"/>
        <pt x="406" y="787" on="0"/>
      </contour>
      <contour>
        <pt x="573" y="766" on="0"/>
        <pt x="539" y="766" on="0"/>
        <pt x="518" y="787" on="0"/>
        <pt x="518" y="803" on="1"/>
        <pt x="518" y="818" on="0"/>
        <pt x="540" y="841" on="0"/>
        <pt x="572" y="841" on="0"/>
        <pt x="595" y="818" on="0"/>
        <pt x="595" y="803" on="1"/>
        <pt x="595" y="787" on="0"/>
      </contour>
      <contour>
        <pt x="234" y="624" on="1"/>
        <pt x="174" y="359" on="1"/>
        <pt x="572" y="359" on="1"/>
        <pt x="562" y="314" on="1"/>
        <pt x="163" y="314" on="1"/>
        <pt x="102" y="46" on="1"/>
        <pt x="531" y="46" on="1"/>
        <pt x="520" y="0" on="1"/>
        <pt x="40" y="0" on="1"/>
        <pt x="195" y="670" on="1"/>
        <pt x="674" y="670" on="1"/>
        <pt x="663" y="624" on="1"/>
      </contour>
    </TTGlyph>
    <TTGlyph name="Edotaccent" xMin="40" yMin="0" xMax="674" yMax="846">
      <contour>
        <pt x="460" y="772" on="1"/>
        <pt x="444" y="772" on="0"/>
        <pt x="422" y="793" on="0"/>
        <pt x="422" y="809" on="1"/>
        <pt x="422" y="824" on="0"/>
        <pt x="444" y="846" on="0"/>
        <pt x="476" y="846" on="0"/>
        <pt x="499" y="824" on="0"/>
        <pt x="499" y="809" on="1"/>
        <pt x="499" y="793" on="0"/>
        <pt x="477" y="772" on="0"/>
      </contour>
      <contour>
        <pt x="234" y="624" on="1"/>
        <pt x="174" y="359" on="1"/>
        <pt x="572" y="359" on="1"/>
        <pt x="562" y="314" on="1"/>
        <pt x="163" y="314" on="1"/>
        <pt x="102" y="46" on="1"/>
        <pt x="531" y="46" on="1"/>
        <pt x="520" y="0" on="1"/>
        <pt x="40" y="0" on="1"/>
        <pt x="195" y="670" on="1"/>
        <pt x="674" y="670" on="1"/>
        <pt x="663" y="624" on="1"/>
      </contour>
    </TTGlyph>
    <TTGlyph name="Egrave" xMin="40" yMin="0" xMax="674" yMax="886">
      <contour>
        <pt x="423" y="748" on="1"/>
        <pt x="289" y="886" on="1"/>
        <pt x="352" y="886" on="1"/>
        <pt x="470" y="748" on="1"/>
      </contour>
      <contour>
        <pt x="234" y="624" on="1"/>
        <pt x="174" y="359" on="1"/>
        <pt x="572" y="359" on="1"/>
        <pt x="562" y="314" on="1"/>
        <pt x="163" y="314" on="1"/>
        <pt x="102" y="46" on="1"/>
        <pt x="531" y="46" on="1"/>
        <pt x="520" y="0" on="1"/>
        <pt x="40" y="0" on="1"/>
        <pt x="195" y="670" on="1"/>
        <pt x="674" y="670" on="1"/>
        <pt x="663" y="624" on="1"/>
      </contour>
    </TTGlyph>
    <TTGlyph name="Emacron" xMin="40" yMin="0" xMax="674" yMax="810">
      <contour>
        <pt x="588" y="770" on="1"/>
        <pt x="321" y="770" on="1"/>
        <pt x="330" y="810" on="1"/>
        <pt x="597" y="810" on="1"/>
      </contour>
      <contour>
        <pt x="234" y="624" on="1"/>
        <pt x="174" y="359" on="1"/>
        <pt x="572" y="359" on="1"/>
        <pt x="562" y="314" on="1"/>
        <pt x="163" y="314" on="1"/>
        <pt x="102" y="46" on="1"/>
        <pt x="531" y="46" on="1"/>
        <pt x="520" y="0" on="1"/>
        <pt x="40" y="0" on="1"/>
        <pt x="195" y="670" on="1"/>
        <pt x="674" y="670" on="1"/>
        <pt x="663" y="624" on="1"/>
      </contour>
    </TTGlyph>
    <TTGlyph name="Eng" xMin="40" yMin="-188" xMax="761" yMax="670">
      <contour>
        <pt x="761" y="670" on="1"/>
        <pt x="590" y="-72" on="1"/>
        <pt x="579" y="-123" on="0"/>
        <pt x="501" y="-188" on="0"/>
        <pt x="451" y="-188" on="1"/>
        <pt x="407" y="-188" on="0"/>
        <pt x="375" y="-166" on="1"/>
        <pt x="395" y="-126" on="1"/>
        <pt x="419" y="-142" on="0"/>
        <pt x="449" y="-142" on="1"/>
        <pt x="482" y="-142" on="0"/>
        <pt x="531" y="-104" on="0"/>
        <pt x="539" y="-71" on="1"/>
        <pt x="558" y="10" on="1"/>
        <pt x="227" y="591" on="1"/>
        <pt x="91" y="0" on="1"/>
        <pt x="40" y="0" on="1"/>
        <pt x="195" y="670" on="1"/>
        <pt x="240" y="670" on="1"/>
        <pt x="573" y="79" on="1"/>
        <pt x="710" y="670" on="1"/>
      </contour>
    </TTGlyph>
    <TTGlyph name="Eogonek" xMin="40" yMin="-196" xMax="674" yMax="670">
      <contour>
        <pt x="234" y="624" on="1"/>
        <pt x="174" y="359" on="1"/>
        <pt x="572" y="359" on="1"/>
        <pt x="562" y="314" on="1"/>
        <pt x="163" y="314" on="1"/>
        <pt x="102" y="46" on="1"/>
        <pt x="531" y="46" on="1"/>
        <pt x="520" y="0" on="1"/>
        <pt x="479" y="0" on="1"/>
        <pt x="472" y="-6" on="0"/>
        <pt x="447" y="-26" on="0"/>
        <pt x="436" y="-36" on="0"/>
        <pt x="416" y="-52" on="0"/>
        <pt x="407" y="-61" on="0"/>
        <pt x="394" y="-75" on="0"/>
        <pt x="388" y="-85" on="0"/>
        <pt x="381" y="-98" on="0"/>
        <pt x="379" y="-110" on="0"/>
        <pt x="379" y="-116" on="1"/>
        <pt x="379" y="-136" on="0"/>
        <pt x="405" y="-158" on="0"/>
        <pt x="427" y="-158" on="1"/>
        <pt x="442" y="-158" on="0"/>
        <pt x="473" y="-147" on="1"/>
        <pt x="472" y="-182" on="1"/>
        <pt x="436" y="-196" on="0"/>
        <pt x="413" y="-196" on="1"/>
        <pt x="379" y="-196" on="0"/>
        <pt x="337" y="-156" on="0"/>
        <pt x="337" y="-124" on="1"/>
        <pt x="337" y="-95" on="0"/>
        <pt x="380" y="-42" on="0"/>
        <pt x="435" y="0" on="1"/>
        <pt x="40" y="0" on="1"/>
        <pt x="195" y="670" on="1"/>
        <pt x="674" y="670" on="1"/>
        <pt x="663" y="624" on="1"/>
      </contour>
    </TTGlyph>
    <TTGlyph name="Eth" xMin="57" yMin="0" xMax="740" yMax="670">
      <contour>
        <pt x="225" y="670" on="1"/>
        <pt x="433" y="670" on="1"/>
        <pt x="582" y="670" on="0"/>
        <pt x="740" y="519" on="0"/>
        <pt x="740" y="397" on="1"/>
        <pt x="740" y="320" on="0"/>
        <pt x="675" y="177" on="0"/>
        <pt x="559" y="66" on="0"/>
        <pt x="386" y="0" on="0"/>
        <pt x="284" y="0" on="1"/>
        <pt x="70" y="0" on="1"/>
        <pt x="143" y="315" on="1"/>
        <pt x="57" y="315" on="1"/>
        <pt x="67" y="361" on="1"/>
        <pt x="154" y="361" on="1"/>
      </contour>
      <contour>
        <pt x="131" y="46" on="1"/>
        <pt x="280" y="46" on="1"/>
        <pt x="460" y="46" on="0"/>
        <pt x="687" y="255" on="0"/>
        <pt x="687" y="395" on="1"/>
        <pt x="687" y="497" on="0"/>
        <pt x="555" y="624" on="0"/>
        <pt x="429" y="624" on="1"/>
        <pt x="265" y="624" on="1"/>
        <pt x="204" y="361" on="1"/>
        <pt x="385" y="361" on="1"/>
        <pt x="375" y="315" on="1"/>
        <pt x="193" y="315" on="1"/>
      </contour>
    </TTGlyph>
    <TTGlyph name="Euro" xMin="96" yMin="-11" xMax="801" yMax="681">
      <contour>
        <pt x="574" y="635" on="1"/>
        <pt x="490" y="635" on="0"/>
        <pt x="355" y="522" on="0"/>
        <pt x="319" y="426" on="1"/>
        <pt x="625" y="426" on="1"/>
        <pt x="609" y="387" on="1"/>
        <pt x="306" y="387" on="1"/>
        <pt x="290" y="332" on="0"/>
        <pt x="286" y="275" on="1"/>
        <pt x="547" y="275" on="1"/>
        <pt x="531" y="236" on="1"/>
        <pt x="285" y="236" on="1"/>
        <pt x="288" y="146" on="0"/>
        <pt x="387" y="36" on="0"/>
        <pt x="464" y="36" on="1"/>
        <pt x="540" y="36" on="0"/>
        <pt x="665" y="136" on="0"/>
        <pt x="702" y="227" on="1"/>
        <pt x="749" y="216" on="1"/>
        <pt x="709" y="112" on="0"/>
        <pt x="553" y="-11" on="0"/>
        <pt x="457" y="-11" on="1"/>
        <pt x="358" y="-11" on="0"/>
        <pt x="234" y="125" on="0"/>
        <pt x="233" y="236" on="1"/>
        <pt x="96" y="236" on="1"/>
        <pt x="106" y="275" on="1"/>
        <pt x="235" y="275" on="1"/>
        <pt x="240" y="337" on="0"/>
        <pt x="254" y="387" on="1"/>
        <pt x="136" y="387" on="1"/>
        <pt x="146" y="426" on="1"/>
        <pt x="266" y="426" on="1"/>
        <pt x="308" y="543" on="0"/>
        <pt x="475" y="681" on="0"/>
        <pt x="581" y="681" on="1"/>
        <pt x="677" y="681" on="0"/>
        <pt x="794" y="558" on="0"/>
        <pt x="801" y="453" on="1"/>
        <pt x="750" y="441" on="1"/>
        <pt x="743" y="532" on="0"/>
        <pt x="650" y="635" on="0"/>
      </contour>
    </TTGlyph>
    <TTGlyph name="Euro.tf" xMin="22" yMin="-11" xMax="622" yMax="681">
      <contour>
        <pt x="304" y="36" on="1"/>
        <pt x="375" y="36" on="0"/>
        <pt x="493" y="135" on="0"/>
        <pt x="530" y="225" on="1"/>
        <pt x="577" y="214" on="1"/>
        <pt x="537" y="111" on="0"/>
        <pt x="388" y="-11" on="0"/>
        <pt x="296" y="-11" on="1"/>
        <pt x="202" y="-11" on="0"/>
        <pt x="89" y="123" on="0"/>
        <pt x="86" y="236" on="1"/>
        <pt x="22" y="236" on="1"/>
        <pt x="30" y="275" on="1"/>
        <pt x="86" y="275" on="1"/>
        <pt x="89" y="329" on="0"/>
        <pt x="102" y="387" on="1"/>
        <pt x="57" y="387" on="1"/>
        <pt x="65" y="426" on="1"/>
        <pt x="113" y="426" on="1"/>
        <pt x="150" y="543" on="0"/>
        <pt x="311" y="681" on="0"/>
        <pt x="414" y="681" on="1"/>
        <pt x="505" y="681" on="0"/>
        <pt x="616" y="558" on="0"/>
        <pt x="622" y="454" on="1"/>
        <pt x="572" y="444" on="1"/>
        <pt x="564" y="534" on="0"/>
        <pt x="477" y="635" on="0"/>
        <pt x="406" y="635" on="1"/>
        <pt x="326" y="635" on="0"/>
        <pt x="198" y="523" on="0"/>
        <pt x="165" y="426" on="1"/>
        <pt x="438" y="426" on="1"/>
        <pt x="422" y="387" on="1"/>
        <pt x="154" y="387" on="1"/>
        <pt x="140" y="332" on="0"/>
        <pt x="137" y="275" on="1"/>
        <pt x="368" y="275" on="1"/>
        <pt x="353" y="236" on="1"/>
        <pt x="137" y="236" on="1"/>
        <pt x="141" y="144" on="0"/>
        <pt x="231" y="36" on="0"/>
      </contour>
    </TTGlyph>
    <TTGlyph name="F" xMin="40" yMin="0" xMax="665" yMax="670">
      <contour>
        <pt x="234" y="624" on="1"/>
        <pt x="173" y="356" on="1"/>
        <pt x="560" y="356" on="1"/>
        <pt x="550" y="310" on="1"/>
        <pt x="162" y="310" on="1"/>
        <pt x="91" y="0" on="1"/>
        <pt x="40" y="0" on="1"/>
        <pt x="195" y="670" on="1"/>
        <pt x="665" y="670" on="1"/>
        <pt x="654" y="624" on="1"/>
      </contour>
    </TTGlyph>
    <TTGlyph name="G" xMin="81" yMin="-11" xMax="768" yMax="681">
      <contour>
        <pt x="398" y="357" on="1"/>
        <pt x="768" y="357" on="1"/>
        <pt x="768" y="353" on="0"/>
        <pt x="766" y="335" on="1"/>
        <pt x="741" y="185" on="0"/>
        <pt x="527" y="-11" on="0"/>
        <pt x="379" y="-11" on="1"/>
        <pt x="247" y="-11" on="0"/>
        <pt x="81" y="160" on="0"/>
        <pt x="81" y="291" on="1"/>
        <pt x="81" y="450" on="0"/>
        <pt x="323" y="681" on="0"/>
        <pt x="485" y="681" on="1"/>
        <pt x="594" y="681" on="0"/>
        <pt x="746" y="579" on="0"/>
        <pt x="768" y="492" on="1"/>
        <pt x="718" y="479" on="1"/>
        <pt x="697" y="551" on="0"/>
        <pt x="573" y="634" on="0"/>
        <pt x="483" y="634" on="1"/>
        <pt x="342" y="634" on="0"/>
        <pt x="133" y="433" on="0"/>
        <pt x="133" y="294" on="1"/>
        <pt x="133" y="183" on="0"/>
        <pt x="273" y="36" on="0"/>
        <pt x="383" y="36" on="1"/>
        <pt x="503" y="36" on="0"/>
        <pt x="683" y="193" on="0"/>
        <pt x="708" y="311" on="1"/>
        <pt x="388" y="311" on="1"/>
      </contour>
    </TTGlyph>
    <TTGlyph name="Gbreve" xMin="81" yMin="-11" xMax="768" yMax="865">
      <contour>
        <pt x="508" y="739" on="1"/>
        <pt x="448" y="739" on="0"/>
        <pt x="386" y="808" on="0"/>
        <pt x="397" y="865" on="1"/>
        <pt x="436" y="865" on="1"/>
        <pt x="429" y="825" on="0"/>
        <pt x="473" y="775" on="0"/>
        <pt x="551" y="775" on="0"/>
        <pt x="613" y="825" on="0"/>
        <pt x="620" y="865" on="1"/>
        <pt x="665" y="865" on="1"/>
        <pt x="654" y="808" on="0"/>
        <pt x="567" y="739" on="0"/>
      </contour>
      <contour>
        <pt x="398" y="357" on="1"/>
        <pt x="768" y="357" on="1"/>
        <pt x="768" y="353" on="0"/>
        <pt x="766" y="335" on="1"/>
        <pt x="741" y="185" on="0"/>
        <pt x="527" y="-11" on="0"/>
        <pt x="379" y="-11" on="1"/>
        <pt x="247" y="-11" on="0"/>
        <pt x="81" y="160" on="0"/>
        <pt x="81" y="291" on="1"/>
        <pt x="81" y="450" on="0"/>
        <pt x="323" y="681" on="0"/>
        <pt x="485" y="681" on="1"/>
        <pt x="594" y="681" on="0"/>
        <pt x="746" y="579" on="0"/>
        <pt x="768" y="492" on="1"/>
        <pt x="718" y="479" on="1"/>
        <pt x="697" y="551" on="0"/>
        <pt x="573" y="634" on="0"/>
        <pt x="483" y="634" on="1"/>
        <pt x="342" y="634" on="0"/>
        <pt x="133" y="433" on="0"/>
        <pt x="133" y="294" on="1"/>
        <pt x="133" y="183" on="0"/>
        <pt x="273" y="36" on="0"/>
        <pt x="383" y="36" on="1"/>
        <pt x="503" y="36" on="0"/>
        <pt x="683" y="193" on="0"/>
        <pt x="708" y="311" on="1"/>
        <pt x="388" y="311" on="1"/>
      </contour>
    </TTGlyph>
    <TTGlyph name="Gcommaaccent" xMin="81" yMin="-184" xMax="768" yMax="681">
      <contour>
        <pt x="398" y="357" on="1"/>
        <pt x="768" y="357" on="1"/>
        <pt x="768" y="353" on="0"/>
        <pt x="766" y="335" on="1"/>
        <pt x="741" y="185" on="0"/>
        <pt x="527" y="-11" on="0"/>
        <pt x="379" y="-11" on="1"/>
        <pt x="247" y="-11" on="0"/>
        <pt x="81" y="160" on="0"/>
        <pt x="81" y="291" on="1"/>
        <pt x="81" y="450" on="0"/>
        <pt x="323" y="681" on="0"/>
        <pt x="485" y="681" on="1"/>
        <pt x="594" y="681" on="0"/>
        <pt x="746" y="579" on="0"/>
        <pt x="768" y="492" on="1"/>
        <pt x="718" y="479" on="1"/>
        <pt x="697" y="551" on="0"/>
        <pt x="573" y="634" on="0"/>
        <pt x="483" y="634" on="1"/>
        <pt x="342" y="634" on="0"/>
        <pt x="133" y="433" on="0"/>
        <pt x="133" y="294" on="1"/>
        <pt x="133" y="183" on="0"/>
        <pt x="273" y="36" on="0"/>
        <pt x="383" y="36" on="1"/>
        <pt x="503" y="36" on="0"/>
        <pt x="683" y="193" on="0"/>
        <pt x="708" y="311" on="1"/>
        <pt x="388" y="311" on="1"/>
      </contour>
      <contour>
        <pt x="252" y="-184" on="1"/>
        <pt x="325" y="-45" on="1"/>
        <pt x="382" y="-45" on="1"/>
        <pt x="291" y="-184" on="1"/>
      </contour>
    </TTGlyph>
    <TTGlyph name="Gdotaccent" xMin="81" yMin="-11" xMax="768" yMax="846">
      <contour>
        <pt x="499" y="846" on="0"/>
        <pt x="531" y="846" on="0"/>
        <pt x="554" y="824" on="0"/>
        <pt x="554" y="809" on="1"/>
        <pt x="554" y="793" on="0"/>
        <pt x="532" y="772" on="0"/>
        <pt x="515" y="772" on="1"/>
        <pt x="499" y="772" on="0"/>
        <pt x="477" y="793" on="0"/>
        <pt x="477" y="809" on="1"/>
        <pt x="477" y="824" on="0"/>
      </contour>
      <contour>
        <pt x="398" y="357" on="1"/>
        <pt x="768" y="357" on="1"/>
        <pt x="768" y="353" on="0"/>
        <pt x="766" y="335" on="1"/>
        <pt x="741" y="185" on="0"/>
        <pt x="527" y="-11" on="0"/>
        <pt x="379" y="-11" on="1"/>
        <pt x="247" y="-11" on="0"/>
        <pt x="81" y="160" on="0"/>
        <pt x="81" y="291" on="1"/>
        <pt x="81" y="450" on="0"/>
        <pt x="323" y="681" on="0"/>
        <pt x="485" y="681" on="1"/>
        <pt x="594" y="681" on="0"/>
        <pt x="746" y="579" on="0"/>
        <pt x="768" y="492" on="1"/>
        <pt x="718" y="479" on="1"/>
        <pt x="697" y="551" on="0"/>
        <pt x="573" y="634" on="0"/>
        <pt x="483" y="634" on="1"/>
        <pt x="342" y="634" on="0"/>
        <pt x="133" y="433" on="0"/>
        <pt x="133" y="294" on="1"/>
        <pt x="133" y="183" on="0"/>
        <pt x="273" y="36" on="0"/>
        <pt x="383" y="36" on="1"/>
        <pt x="503" y="36" on="0"/>
        <pt x="683" y="193" on="0"/>
        <pt x="708" y="311" on="1"/>
        <pt x="388" y="311" on="1"/>
      </contour>
    </TTGlyph>
    <TTGlyph name="H" xMin="40" yMin="0" xMax="740" yMax="670">
      <contour>
        <pt x="740" y="670" on="1"/>
        <pt x="585" y="0" on="1"/>
        <pt x="534" y="0" on="1"/>
        <pt x="607" y="315" on="1"/>
        <pt x="163" y="315" on="1"/>
        <pt x="91" y="0" on="1"/>
        <pt x="40" y="0" on="1"/>
        <pt x="195" y="670" on="1"/>
        <pt x="245" y="670" on="1"/>
        <pt x="174" y="361" on="1"/>
        <pt x="618" y="361" on="1"/>
        <pt x="689" y="670" on="1"/>
      </contour>
    </TTGlyph>
    <TTGlyph name="Hbar" xMin="62" yMin="0" xMax="798" yMax="670">
      <contour>
        <pt x="788" y="476" on="1"/>
        <pt x="715" y="476" on="1"/>
        <pt x="605" y="0" on="1"/>
        <pt x="554" y="0" on="1"/>
        <pt x="625" y="305" on="1"/>
        <pt x="183" y="305" on="1"/>
        <pt x="113" y="0" on="1"/>
        <pt x="62" y="0" on="1"/>
        <pt x="172" y="476" on="1"/>
        <pt x="98" y="476" on="1"/>
        <pt x="109" y="519" on="1"/>
        <pt x="182" y="519" on="1"/>
        <pt x="217" y="670" on="1"/>
        <pt x="267" y="670" on="1"/>
        <pt x="232" y="519" on="1"/>
        <pt x="674" y="519" on="1"/>
        <pt x="709" y="670" on="1"/>
        <pt x="760" y="670" on="1"/>
        <pt x="725" y="519" on="1"/>
        <pt x="798" y="519" on="1"/>
      </contour>
      <contour>
        <pt x="664" y="476" on="1"/>
        <pt x="223" y="476" on="1"/>
        <pt x="194" y="351" on="1"/>
        <pt x="636" y="351" on="1"/>
      </contour>
    </TTGlyph>
    <TTGlyph name="I" xMin="40" yMin="0" xMax="245" yMax="670">
      <contour>
        <pt x="91" y="0" on="1"/>
        <pt x="40" y="0" on="1"/>
        <pt x="195" y="670" on="1"/>
        <pt x="245" y="670" on="1"/>
      </contour>
    </TTGlyph>
    <TTGlyph name="I.ss05" xMin="-28" yMin="0" xMax="502" yMax="670">
      <contour>
        <pt x="328" y="624" on="1"/>
        <pt x="196" y="46" on="1"/>
        <pt x="358" y="46" on="1"/>
        <pt x="348" y="0" on="1"/>
        <pt x="-28" y="0" on="1"/>
        <pt x="-18" y="46" on="1"/>
        <pt x="146" y="46" on="1"/>
        <pt x="278" y="624" on="1"/>
        <pt x="116" y="624" on="1"/>
        <pt x="126" y="670" on="1"/>
        <pt x="502" y="670" on="1"/>
        <pt x="492" y="624" on="1"/>
      </contour>
    </TTGlyph>
    <TTGlyph name="IJ" xMin="40" yMin="-11" xMax="863" yMax="670">
      <contour>
        <pt x="91" y="0" on="1"/>
        <pt x="40" y="0" on="1"/>
        <pt x="195" y="670" on="1"/>
        <pt x="245" y="670" on="1"/>
      </contour>
      <contour>
        <pt x="863" y="670" on="1"/>
        <pt x="764" y="247" on="1"/>
        <pt x="737" y="130" on="0"/>
        <pt x="577" y="-11" on="0"/>
        <pt x="472" y="-11" on="1"/>
        <pt x="375" y="-11" on="0"/>
        <pt x="259" y="107" on="0"/>
        <pt x="261" y="203" on="1"/>
        <pt x="309" y="214" on="1"/>
        <pt x="307" y="133" on="0"/>
        <pt x="394" y="35" on="0"/>
        <pt x="473" y="35" on="1"/>
        <pt x="559" y="35" on="0"/>
        <pt x="691" y="152" on="0"/>
        <pt x="714" y="247" on="1"/>
        <pt x="812" y="670" on="1"/>
      </contour>
    </TTGlyph>
    <TTGlyph name="IJ.ss05" xMin="-28" yMin="-11" xMax="1051" yMax="670">
      <contour>
        <pt x="196" y="46" on="1"/>
        <pt x="358" y="46" on="1"/>
        <pt x="348" y="0" on="1"/>
        <pt x="-28" y="0" on="1"/>
        <pt x="-18" y="46" on="1"/>
        <pt x="146" y="46" on="1"/>
        <pt x="278" y="624" on="1"/>
        <pt x="116" y="624" on="1"/>
        <pt x="126" y="670" on="1"/>
        <pt x="502" y="670" on="1"/>
        <pt x="492" y="624" on="1"/>
        <pt x="328" y="624" on="1"/>
      </contour>
      <contour>
        <pt x="1051" y="670" on="1"/>
        <pt x="952" y="247" on="1"/>
        <pt x="925" y="129" on="0"/>
        <pt x="765" y="-11" on="0"/>
        <pt x="658" y="-11" on="1"/>
        <pt x="562" y="-11" on="0"/>
        <pt x="447" y="107" on="0"/>
        <pt x="449" y="203" on="1"/>
        <pt x="497" y="214" on="1"/>
        <pt x="495" y="133" on="0"/>
        <pt x="582" y="35" on="0"/>
        <pt x="661" y="35" on="1"/>
        <pt x="747" y="35" on="0"/>
        <pt x="879" y="152" on="0"/>
        <pt x="902" y="247" on="1"/>
        <pt x="989" y="624" on="1"/>
        <pt x="677" y="624" on="1"/>
        <pt x="687" y="670" on="1"/>
      </contour>
    </TTGlyph>
    <TTGlyph name="Iacute" xMin="40" yMin="0" xMax="402" yMax="886">
      <contour>
        <pt x="268" y="748" on="1"/>
        <pt x="221" y="748" on="1"/>
        <pt x="339" y="886" on="1"/>
        <pt x="402" y="886" on="1"/>
      </contour>
      <contour>
        <pt x="91" y="0" on="1"/>
        <pt x="40" y="0" on="1"/>
        <pt x="195" y="670" on="1"/>
        <pt x="245" y="670" on="1"/>
      </contour>
    </TTGlyph>
    <TTGlyph name="Iacute.ss05" xMin="-28" yMin="0" xMax="502" yMax="886">
      <contour>
        <pt x="362" y="748" on="1"/>
        <pt x="315" y="748" on="1"/>
        <pt x="433" y="886" on="1"/>
        <pt x="496" y="886" on="1"/>
      </contour>
      <contour>
        <pt x="328" y="624" on="1"/>
        <pt x="196" y="46" on="1"/>
        <pt x="358" y="46" on="1"/>
        <pt x="348" y="0" on="1"/>
        <pt x="-28" y="0" on="1"/>
        <pt x="-18" y="46" on="1"/>
        <pt x="146" y="46" on="1"/>
        <pt x="278" y="624" on="1"/>
        <pt x="116" y="624" on="1"/>
        <pt x="126" y="670" on="1"/>
        <pt x="502" y="670" on="1"/>
        <pt x="492" y="624" on="1"/>
      </contour>
    </TTGlyph>
    <TTGlyph name="Icircumflex" xMin="40" yMin="0" xMax="386" yMax="879">
      <contour>
        <pt x="337" y="741" on="1"/>
        <pt x="272" y="846" on="1"/>
        <pt x="157" y="741" on="1"/>
        <pt x="102" y="741" on="1"/>
        <pt x="253" y="879" on="1"/>
        <pt x="299" y="879" on="1"/>
        <pt x="386" y="741" on="1"/>
      </contour>
      <contour>
        <pt x="195" y="670" on="1"/>
        <pt x="245" y="670" on="1"/>
        <pt x="91" y="0" on="1"/>
        <pt x="40" y="0" on="1"/>
      </contour>
    </TTGlyph>
    <TTGlyph name="Icircumflex.ss05" xMin="-28" yMin="0" xMax="502" yMax="879">
      <contour>
        <pt x="251" y="741" on="1"/>
        <pt x="196" y="741" on="1"/>
        <pt x="347" y="879" on="1"/>
        <pt x="393" y="879" on="1"/>
        <pt x="480" y="741" on="1"/>
        <pt x="431" y="741" on="1"/>
        <pt x="366" y="846" on="1"/>
      </contour>
      <contour>
        <pt x="328" y="624" on="1"/>
        <pt x="196" y="46" on="1"/>
        <pt x="358" y="46" on="1"/>
        <pt x="348" y="0" on="1"/>
        <pt x="-28" y="0" on="1"/>
        <pt x="-18" y="46" on="1"/>
        <pt x="146" y="46" on="1"/>
        <pt x="278" y="624" on="1"/>
        <pt x="116" y="624" on="1"/>
        <pt x="126" y="670" on="1"/>
        <pt x="502" y="670" on="1"/>
        <pt x="492" y="624" on="1"/>
      </contour>
    </TTGlyph>
    <TTGlyph name="Idieresis" xMin="40" yMin="0" xMax="384" yMax="841">
      <contour>
        <pt x="140" y="841" on="0"/>
        <pt x="172" y="841" on="0"/>
        <pt x="195" y="818" on="0"/>
        <pt x="195" y="803" on="1"/>
        <pt x="195" y="787" on="0"/>
        <pt x="173" y="766" on="0"/>
        <pt x="139" y="766" on="0"/>
        <pt x="118" y="787" on="0"/>
        <pt x="118" y="803" on="1"/>
        <pt x="118" y="818" on="0"/>
      </contour>
      <contour>
        <pt x="329" y="841" on="0"/>
        <pt x="361" y="841" on="0"/>
        <pt x="384" y="818" on="0"/>
        <pt x="384" y="803" on="1"/>
        <pt x="384" y="787" on="0"/>
        <pt x="362" y="766" on="0"/>
        <pt x="328" y="766" on="0"/>
        <pt x="307" y="787" on="0"/>
        <pt x="307" y="803" on="1"/>
        <pt x="307" y="818" on="0"/>
      </contour>
      <contour>
        <pt x="91" y="0" on="1"/>
        <pt x="40" y="0" on="1"/>
        <pt x="195" y="670" on="1"/>
        <pt x="245" y="670" on="1"/>
      </contour>
    </TTGlyph>
    <TTGlyph name="Idieresis.ss05" xMin="-28" yMin="0" xMax="502" yMax="841">
      <contour>
        <pt x="267" y="766" on="0"/>
        <pt x="233" y="766" on="0"/>
        <pt x="212" y="787" on="0"/>
        <pt x="212" y="803" on="1"/>
        <pt x="212" y="818" on="0"/>
        <pt x="234" y="841" on="0"/>
        <pt x="266" y="841" on="0"/>
        <pt x="289" y="818" on="0"/>
        <pt x="289" y="803" on="1"/>
        <pt x="289" y="787" on="0"/>
      </contour>
      <contour>
        <pt x="456" y="766" on="0"/>
        <pt x="422" y="766" on="0"/>
        <pt x="401" y="787" on="0"/>
        <pt x="401" y="803" on="1"/>
        <pt x="401" y="818" on="0"/>
        <pt x="423" y="841" on="0"/>
        <pt x="455" y="841" on="0"/>
        <pt x="478" y="818" on="0"/>
        <pt x="478" y="803" on="1"/>
        <pt x="478" y="787" on="0"/>
      </contour>
      <contour>
        <pt x="328" y="624" on="1"/>
        <pt x="196" y="46" on="1"/>
        <pt x="358" y="46" on="1"/>
        <pt x="348" y="0" on="1"/>
        <pt x="-28" y="0" on="1"/>
        <pt x="-18" y="46" on="1"/>
        <pt x="146" y="46" on="1"/>
        <pt x="278" y="624" on="1"/>
        <pt x="116" y="624" on="1"/>
        <pt x="126" y="670" on="1"/>
        <pt x="502" y="670" on="1"/>
        <pt x="492" y="624" on="1"/>
      </contour>
    </TTGlyph>
    <TTGlyph name="Idotaccent" xMin="40" yMin="0" xMax="288" yMax="846">
      <contour>
        <pt x="233" y="846" on="0"/>
        <pt x="265" y="846" on="0"/>
        <pt x="288" y="824" on="0"/>
        <pt x="288" y="809" on="1"/>
        <pt x="288" y="793" on="0"/>
        <pt x="266" y="772" on="0"/>
        <pt x="249" y="772" on="1"/>
        <pt x="233" y="772" on="0"/>
        <pt x="211" y="793" on="0"/>
        <pt x="211" y="809" on="1"/>
        <pt x="211" y="824" on="0"/>
      </contour>
      <contour>
        <pt x="91" y="0" on="1"/>
        <pt x="40" y="0" on="1"/>
        <pt x="195" y="670" on="1"/>
        <pt x="245" y="670" on="1"/>
      </contour>
    </TTGlyph>
    <TTGlyph name="Idotaccent.ss05" xMin="-28" yMin="0" xMax="502" yMax="846">
      <contour>
        <pt x="343" y="772" on="1"/>
        <pt x="327" y="772" on="0"/>
        <pt x="305" y="793" on="0"/>
        <pt x="305" y="809" on="1"/>
        <pt x="305" y="824" on="0"/>
        <pt x="327" y="846" on="0"/>
        <pt x="359" y="846" on="0"/>
        <pt x="382" y="824" on="0"/>
        <pt x="382" y="809" on="1"/>
        <pt x="382" y="793" on="0"/>
        <pt x="360" y="772" on="0"/>
      </contour>
      <contour>
        <pt x="328" y="624" on="1"/>
        <pt x="196" y="46" on="1"/>
        <pt x="358" y="46" on="1"/>
        <pt x="348" y="0" on="1"/>
        <pt x="-28" y="0" on="1"/>
        <pt x="-18" y="46" on="1"/>
        <pt x="146" y="46" on="1"/>
        <pt x="278" y="624" on="1"/>
        <pt x="116" y="624" on="1"/>
        <pt x="126" y="670" on="1"/>
        <pt x="502" y="670" on="1"/>
        <pt x="492" y="624" on="1"/>
      </contour>
    </TTGlyph>
    <TTGlyph name="Igrave" xMin="40" yMin="0" xMax="259" yMax="886">
      <contour>
        <pt x="141" y="886" on="1"/>
        <pt x="259" y="748" on="1"/>
        <pt x="212" y="748" on="1"/>
        <pt x="78" y="886" on="1"/>
      </contour>
      <contour>
        <pt x="91" y="0" on="1"/>
        <pt x="40" y="0" on="1"/>
        <pt x="195" y="670" on="1"/>
        <pt x="245" y="670" on="1"/>
      </contour>
    </TTGlyph>
    <TTGlyph name="Igrave.ss05" xMin="-28" yMin="0" xMax="502" yMax="886">
      <contour>
        <pt x="306" y="748" on="1"/>
        <pt x="172" y="886" on="1"/>
        <pt x="235" y="886" on="1"/>
        <pt x="353" y="748" on="1"/>
      </contour>
      <contour>
        <pt x="328" y="624" on="1"/>
        <pt x="196" y="46" on="1"/>
        <pt x="358" y="46" on="1"/>
        <pt x="348" y="0" on="1"/>
        <pt x="-28" y="0" on="1"/>
        <pt x="-18" y="46" on="1"/>
        <pt x="146" y="46" on="1"/>
        <pt x="278" y="624" on="1"/>
        <pt x="116" y="624" on="1"/>
        <pt x="126" y="670" on="1"/>
        <pt x="502" y="670" on="1"/>
        <pt x="492" y="624" on="1"/>
      </contour>
    </TTGlyph>
    <TTGlyph name="Imacron" xMin="40" yMin="0" xMax="386" yMax="810">
      <contour>
        <pt x="377" y="770" on="1"/>
        <pt x="110" y="770" on="1"/>
        <pt x="119" y="810" on="1"/>
        <pt x="386" y="810" on="1"/>
      </contour>
      <contour>
        <pt x="91" y="0" on="1"/>
        <pt x="40" y="0" on="1"/>
        <pt x="195" y="670" on="1"/>
        <pt x="245" y="670" on="1"/>
      </contour>
    </TTGlyph>
    <TTGlyph name="Imacron.ss05" xMin="-28" yMin="0" xMax="502" yMax="810">
      <contour>
        <pt x="471" y="770" on="1"/>
        <pt x="204" y="770" on="1"/>
        <pt x="213" y="810" on="1"/>
        <pt x="480" y="810" on="1"/>
      </contour>
      <contour>
        <pt x="328" y="624" on="1"/>
        <pt x="196" y="46" on="1"/>
        <pt x="358" y="46" on="1"/>
        <pt x="348" y="0" on="1"/>
        <pt x="-28" y="0" on="1"/>
        <pt x="-18" y="46" on="1"/>
        <pt x="146" y="46" on="1"/>
        <pt x="278" y="624" on="1"/>
        <pt x="116" y="624" on="1"/>
        <pt x="126" y="670" on="1"/>
        <pt x="502" y="670" on="1"/>
        <pt x="492" y="624" on="1"/>
      </contour>
    </TTGlyph>
    <TTGlyph name="Iogonek" xMin="-52" yMin="-196" xMax="245" yMax="670">
      <contour>
        <pt x="245" y="670" on="1"/>
        <pt x="91" y="0" on="1"/>
        <pt x="90" y="0" on="1"/>
        <pt x="82" y="-6" on="0"/>
        <pt x="54" y="-29" on="0"/>
        <pt x="42" y="-40" on="0"/>
        <pt x="21" y="-58" on="0"/>
        <pt x="11" y="-68" on="0"/>
        <pt x="-2" y="-83" on="0"/>
        <pt x="-7" y="-95" on="0"/>
        <pt x="-11" y="-109" on="0"/>
        <pt x="-11" y="-116" on="1"/>
        <pt x="-11" y="-135" on="0"/>
        <pt x="15" y="-158" on="0"/>
        <pt x="38" y="-158" on="1"/>
        <pt x="53" y="-158" on="0"/>
        <pt x="84" y="-147" on="1"/>
        <pt x="83" y="-182" on="1"/>
        <pt x="47" y="-196" on="0"/>
        <pt x="24" y="-196" on="1"/>
        <pt x="-10" y="-196" on="0"/>
        <pt x="-52" y="-156" on="0"/>
        <pt x="-52" y="-124" on="1"/>
        <pt x="-52" y="-95" on="0"/>
        <pt x="-9" y="-42" on="0"/>
        <pt x="46" y="0" on="1"/>
        <pt x="40" y="0" on="1"/>
        <pt x="195" y="670" on="1"/>
      </contour>
    </TTGlyph>
    <TTGlyph name="Iogonek.ss05" xMin="-28" yMin="-196" xMax="502" yMax="670">
      <contour>
        <pt x="328" y="624" on="1"/>
        <pt x="196" y="46" on="1"/>
        <pt x="358" y="46" on="1"/>
        <pt x="348" y="0" on="1"/>
        <pt x="185" y="0" on="1"/>
        <pt x="178" y="-6" on="0"/>
        <pt x="153" y="-26" on="0"/>
        <pt x="142" y="-36" on="0"/>
        <pt x="122" y="-52" on="0"/>
        <pt x="113" y="-61" on="0"/>
        <pt x="100" y="-75" on="0"/>
        <pt x="94" y="-85" on="0"/>
        <pt x="87" y="-98" on="0"/>
        <pt x="85" y="-110" on="0"/>
        <pt x="85" y="-116" on="1"/>
        <pt x="85" y="-136" on="0"/>
        <pt x="111" y="-158" on="0"/>
        <pt x="133" y="-158" on="1"/>
        <pt x="148" y="-158" on="0"/>
        <pt x="179" y="-147" on="1"/>
        <pt x="178" y="-182" on="1"/>
        <pt x="142" y="-196" on="0"/>
        <pt x="119" y="-196" on="1"/>
        <pt x="85" y="-196" on="0"/>
        <pt x="43" y="-156" on="0"/>
        <pt x="43" y="-124" on="1"/>
        <pt x="43" y="-95" on="0"/>
        <pt x="86" y="-42" on="0"/>
        <pt x="141" y="0" on="1"/>
        <pt x="-28" y="0" on="1"/>
        <pt x="-18" y="46" on="1"/>
        <pt x="146" y="46" on="1"/>
        <pt x="278" y="624" on="1"/>
        <pt x="116" y="624" on="1"/>
        <pt x="126" y="670" on="1"/>
        <pt x="502" y="670" on="1"/>
        <pt x="492" y="624" on="1"/>
      </contour>
    </TTGlyph>
    <TTGlyph name="J" xMin="18" yMin="-11" xMax="620" yMax="670">
      <contour>
        <pt x="620" y="670" on="1"/>
        <pt x="521" y="247" on="1"/>
        <pt x="494" y="130" on="0"/>
        <pt x="334" y="-11" on="0"/>
        <pt x="229" y="-11" on="1"/>
        <pt x="132" y="-11" on="0"/>
        <pt x="16" y="107" on="0"/>
        <pt x="18" y="203" on="1"/>
        <pt x="66" y="214" on="1"/>
        <pt x="64" y="133" on="0"/>
        <pt x="151" y="35" on="0"/>
        <pt x="230" y="35" on="1"/>
        <pt x="316" y="35" on="0"/>
        <pt x="448" y="152" on="0"/>
        <pt x="471" y="247" on="1"/>
        <pt x="569" y="670" on="1"/>
      </contour>
    </TTGlyph>
    <TTGlyph name="J.ss05" xMin="18" yMin="-11" xMax="620" yMax="670">
      <contour>
        <pt x="620" y="670" on="1"/>
        <pt x="521" y="247" on="1"/>
        <pt x="494" y="129" on="0"/>
        <pt x="334" y="-11" on="0"/>
        <pt x="227" y="-11" on="1"/>
        <pt x="131" y="-11" on="0"/>
        <pt x="16" y="107" on="0"/>
        <pt x="18" y="203" on="1"/>
        <pt x="66" y="214" on="1"/>
        <pt x="64" y="133" on="0"/>
        <pt x="151" y="35" on="0"/>
        <pt x="230" y="35" on="1"/>
        <pt x="316" y="35" on="0"/>
        <pt x="448" y="152" on="0"/>
        <pt x="471" y="247" on="1"/>
        <pt x="558" y="624" on="1"/>
        <pt x="246" y="624" on="1"/>
        <pt x="256" y="670" on="1"/>
      </contour>
    </TTGlyph>
    <TTGlyph name="K" xMin="38" yMin="0" xMax="723" yMax="670">
      <contour>
        <pt x="241" y="333" on="1"/>
        <pt x="597" y="0" on="1"/>
        <pt x="532" y="0" on="1"/>
        <pt x="203" y="311" on="1"/>
        <pt x="159" y="311" on="1"/>
        <pt x="88" y="0" on="1"/>
        <pt x="38" y="0" on="1"/>
        <pt x="192" y="670" on="1"/>
        <pt x="242" y="670" on="1"/>
        <pt x="170" y="357" on="1"/>
        <pt x="201" y="357" on="1"/>
        <pt x="652" y="670" on="1"/>
        <pt x="723" y="670" on="1"/>
      </contour>
    </TTGlyph>
    <TTGlyph name="K.ss03" xMin="39" yMin="0" xMax="726" yMax="670">
      <contour>
        <pt x="386" y="382" on="1"/>
        <pt x="613" y="0" on="1"/>
        <pt x="555" y="0" on="1"/>
        <pt x="347" y="349" on="1"/>
        <pt x="127" y="163" on="1"/>
        <pt x="89" y="0" on="1"/>
        <pt x="39" y="0" on="1"/>
        <pt x="194" y="670" on="1"/>
        <pt x="245" y="670" on="1"/>
        <pt x="145" y="239" on="1"/>
        <pt x="659" y="670" on="1"/>
        <pt x="726" y="670" on="1"/>
      </contour>
    </TTGlyph>
    <TTGlyph name="Kcommaaccent" xMin="38" yMin="-184" xMax="723" yMax="670">
      <contour>
        <pt x="241" y="333" on="1"/>
        <pt x="597" y="0" on="1"/>
        <pt x="532" y="0" on="1"/>
        <pt x="203" y="311" on="1"/>
        <pt x="159" y="311" on="1"/>
        <pt x="88" y="0" on="1"/>
        <pt x="38" y="0" on="1"/>
        <pt x="192" y="670" on="1"/>
        <pt x="242" y="670" on="1"/>
        <pt x="170" y="357" on="1"/>
        <pt x="201" y="357" on="1"/>
        <pt x="652" y="670" on="1"/>
        <pt x="723" y="670" on="1"/>
      </contour>
      <contour>
        <pt x="260" y="-45" on="1"/>
        <pt x="317" y="-45" on="1"/>
        <pt x="226" y="-184" on="1"/>
        <pt x="187" y="-184" on="1"/>
      </contour>
    </TTGlyph>
    <TTGlyph name="Kcommaaccent.ss03" xMin="39" yMin="-184" xMax="726" yMax="670">
      <contour>
        <pt x="386" y="382" on="1"/>
        <pt x="613" y="0" on="1"/>
        <pt x="555" y="0" on="1"/>
        <pt x="347" y="349" on="1"/>
        <pt x="127" y="163" on="1"/>
        <pt x="89" y="0" on="1"/>
        <pt x="39" y="0" on="1"/>
        <pt x="194" y="670" on="1"/>
        <pt x="245" y="670" on="1"/>
        <pt x="145" y="239" on="1"/>
        <pt x="659" y="670" on="1"/>
        <pt x="726" y="670" on="1"/>
      </contour>
      <contour>
        <pt x="265" y="-45" on="1"/>
        <pt x="322" y="-45" on="1"/>
        <pt x="231" y="-184" on="1"/>
        <pt x="192" y="-184" on="1"/>
      </contour>
    </TTGlyph>
    <TTGlyph name="L" xMin="40" yMin="0" xMax="505" yMax="670">
      <contour>
        <pt x="505" y="46" on="1"/>
        <pt x="494" y="0" on="1"/>
        <pt x="40" y="0" on="1"/>
        <pt x="195" y="670" on="1"/>
        <pt x="245" y="670" on="1"/>
        <pt x="102" y="46" on="1"/>
      </contour>
    </TTGlyph>
    <TTGlyph name="Lacute" xMin="40" yMin="0" xMax="505" yMax="886">
      <contour>
        <pt x="267" y="748" on="1"/>
        <pt x="220" y="748" on="1"/>
        <pt x="338" y="886" on="1"/>
        <pt x="401" y="886" on="1"/>
      </contour>
      <contour>
        <pt x="505" y="46" on="1"/>
        <pt x="494" y="0" on="1"/>
        <pt x="40" y="0" on="1"/>
        <pt x="195" y="670" on="1"/>
        <pt x="245" y="670" on="1"/>
        <pt x="102" y="46" on="1"/>
      </contour>
    </TTGlyph>
    <TTGlyph name="Lcaron" xMin="40" yMin="0" xMax="505" yMax="670">
      <contour>
        <pt x="505" y="46" on="1"/>
        <pt x="494" y="0" on="1"/>
        <pt x="40" y="0" on="1"/>
        <pt x="195" y="670" on="1"/>
        <pt x="245" y="670" on="1"/>
        <pt x="102" y="46" on="1"/>
      </contour>
      <contour>
        <pt x="414" y="511" on="1"/>
        <pt x="374" y="511" on="1"/>
        <pt x="411" y="670" on="1"/>
        <pt x="461" y="670" on="1"/>
      </contour>
    </TTGlyph>
    <TTGlyph name="Lcommaaccent" xMin="40" yMin="-184" xMax="505" yMax="670">
      <contour>
        <pt x="505" y="46" on="1"/>
        <pt x="494" y="0" on="1"/>
        <pt x="40" y="0" on="1"/>
        <pt x="195" y="670" on="1"/>
        <pt x="245" y="670" on="1"/>
        <pt x="102" y="46" on="1"/>
      </contour>
      <contour>
        <pt x="237" y="-45" on="1"/>
        <pt x="294" y="-45" on="1"/>
        <pt x="203" y="-184" on="1"/>
        <pt x="164" y="-184" on="1"/>
      </contour>
    </TTGlyph>
    <TTGlyph name="Ldot" xMin="40" yMin="0" xMax="505" yMax="670">
      <contour>
        <pt x="505" y="46" on="1"/>
        <pt x="494" y="0" on="1"/>
        <pt x="40" y="0" on="1"/>
        <pt x="195" y="670" on="1"/>
        <pt x="245" y="670" on="1"/>
        <pt x="102" y="46" on="1"/>
      </contour>
      <contour>
        <pt x="362" y="302" on="1"/>
        <pt x="346" y="302" on="0"/>
        <pt x="324" y="323" on="0"/>
        <pt x="324" y="339" on="1"/>
        <pt x="324" y="354" on="0"/>
        <pt x="346" y="376" on="0"/>
        <pt x="378" y="376" on="0"/>
        <pt x="401" y="354" on="0"/>
        <pt x="401" y="339" on="1"/>
        <pt x="401" y="323" on="0"/>
        <pt x="379" y="302" on="0"/>
      </contour>
    </TTGlyph>
    <TTGlyph name="Lslash" xMin="41" yMin="0" xMax="539" yMax="670">
      <contour>
        <pt x="539" y="46" on="1"/>
        <pt x="529" y="0" on="1"/>
        <pt x="74" y="0" on="1"/>
        <pt x="136" y="269" on="1"/>
        <pt x="41" y="227" on="1"/>
        <pt x="52" y="276" on="1"/>
        <pt x="148" y="318" on="1"/>
        <pt x="229" y="670" on="1"/>
        <pt x="280" y="670" on="1"/>
        <pt x="204" y="343" on="1"/>
        <pt x="392" y="426" on="1"/>
        <pt x="381" y="377" on="1"/>
        <pt x="193" y="294" on="1"/>
        <pt x="136" y="46" on="1"/>
      </contour>
    </TTGlyph>
    <TTGlyph name="M" xMin="40" yMin="0" xMax="906" yMax="670">
      <contour>
        <pt x="906" y="670" on="1"/>
        <pt x="751" y="0" on="1"/>
        <pt x="702" y="0" on="1"/>
        <pt x="830" y="555" on="1"/>
        <pt x="416" y="0" on="1"/>
        <pt x="375" y="0" on="1"/>
        <pt x="217" y="555" on="1"/>
        <pt x="89" y="0" on="1"/>
        <pt x="40" y="0" on="1"/>
        <pt x="195" y="670" on="1"/>
        <pt x="235" y="670" on="1"/>
        <pt x="407" y="66" on="1"/>
        <pt x="857" y="670" on="1"/>
      </contour>
    </TTGlyph>
    <TTGlyph name="N" xMin="41" yMin="0" xMax="761" yMax="670">
      <contour>
        <pt x="761" y="670" on="1"/>
        <pt x="607" y="0" on="1"/>
        <pt x="563" y="0" on="1"/>
        <pt x="227" y="591" on="1"/>
        <pt x="91" y="0" on="1"/>
        <pt x="41" y="0" on="1"/>
        <pt x="195" y="670" on="1"/>
        <pt x="240" y="670" on="1"/>
        <pt x="574" y="79" on="1"/>
        <pt x="711" y="670" on="1"/>
      </contour>
    </TTGlyph>
    <TTGlyph name="Nacute" xMin="41" yMin="0" xMax="761" yMax="886">
      <contour>
        <pt x="521" y="748" on="1"/>
        <pt x="474" y="748" on="1"/>
        <pt x="592" y="886" on="1"/>
        <pt x="655" y="886" on="1"/>
      </contour>
      <contour>
        <pt x="761" y="670" on="1"/>
        <pt x="607" y="0" on="1"/>
        <pt x="563" y="0" on="1"/>
        <pt x="227" y="591" on="1"/>
        <pt x="91" y="0" on="1"/>
        <pt x="41" y="0" on="1"/>
        <pt x="195" y="670" on="1"/>
        <pt x="240" y="670" on="1"/>
        <pt x="574" y="79" on="1"/>
        <pt x="711" y="670" on="1"/>
      </contour>
    </TTGlyph>
    <TTGlyph name="Ncaron" xMin="41" yMin="0" xMax="761" yMax="881">
      <contour>
        <pt x="467" y="742" on="1"/>
        <pt x="381" y="881" on="1"/>
        <pt x="429" y="881" on="1"/>
        <pt x="494" y="775" on="1"/>
        <pt x="609" y="881" on="1"/>
        <pt x="664" y="881" on="1"/>
        <pt x="513" y="742" on="1"/>
      </contour>
      <contour>
        <pt x="761" y="670" on="1"/>
        <pt x="607" y="0" on="1"/>
        <pt x="563" y="0" on="1"/>
        <pt x="227" y="591" on="1"/>
        <pt x="91" y="0" on="1"/>
        <pt x="41" y="0" on="1"/>
        <pt x="195" y="670" on="1"/>
        <pt x="240" y="670" on="1"/>
        <pt x="574" y="79" on="1"/>
        <pt x="711" y="670" on="1"/>
      </contour>
    </TTGlyph>
    <TTGlyph name="Ncommaaccent" xMin="41" yMin="-184" xMax="761" yMax="670">
      <contour>
        <pt x="761" y="670" on="1"/>
        <pt x="607" y="0" on="1"/>
        <pt x="563" y="0" on="1"/>
        <pt x="227" y="591" on="1"/>
        <pt x="91" y="0" on="1"/>
        <pt x="41" y="0" on="1"/>
        <pt x="195" y="670" on="1"/>
        <pt x="240" y="670" on="1"/>
        <pt x="574" y="79" on="1"/>
        <pt x="711" y="670" on="1"/>
      </contour>
      <contour>
        <pt x="301" y="-45" on="1"/>
        <pt x="358" y="-45" on="1"/>
        <pt x="267" y="-184" on="1"/>
        <pt x="228" y="-184" on="1"/>
      </contour>
    </TTGlyph>
    <TTGlyph name="Ntilde" xMin="41" yMin="0" xMax="761" yMax="865">
      <contour>
        <pt x="449" y="827" on="1"/>
        <pt x="430" y="827" on="0"/>
        <pt x="401" y="800" on="0"/>
        <pt x="396" y="777" on="1"/>
        <pt x="358" y="777" on="1"/>
        <pt x="368" y="820" on="0"/>
        <pt x="422" y="865" on="0"/>
        <pt x="455" y="865" on="1"/>
        <pt x="485" y="865" on="0"/>
        <pt x="543" y="812" on="0"/>
        <pt x="565" y="812" on="1"/>
        <pt x="584" y="812" on="0"/>
        <pt x="613" y="840" on="0"/>
        <pt x="618" y="864" on="1"/>
        <pt x="656" y="864" on="1"/>
        <pt x="646" y="821" on="0"/>
        <pt x="592" y="775" on="0"/>
        <pt x="559" y="775" on="1"/>
        <pt x="529" y="775" on="0"/>
        <pt x="470" y="827" on="0"/>
      </contour>
      <contour>
        <pt x="761" y="670" on="1"/>
        <pt x="607" y="0" on="1"/>
        <pt x="563" y="0" on="1"/>
        <pt x="227" y="591" on="1"/>
        <pt x="91" y="0" on="1"/>
        <pt x="41" y="0" on="1"/>
        <pt x="195" y="670" on="1"/>
        <pt x="240" y="670" on="1"/>
        <pt x="574" y="79" on="1"/>
        <pt x="711" y="670" on="1"/>
      </contour>
    </TTGlyph>
    <TTGlyph name="O" xMin="85" yMin="-12" xMax="770" yMax="682">
      <contour>
        <pt x="478" y="682" on="1"/>
        <pt x="624" y="682" on="0"/>
        <pt x="793" y="480" on="0"/>
        <pt x="770" y="335" on="1"/>
        <pt x="748" y="186" on="0"/>
        <pt x="522" y="-12" on="0"/>
        <pt x="377" y="-12" on="1"/>
        <pt x="231" y="-12" on="0"/>
        <pt x="62" y="189" on="0"/>
        <pt x="108" y="481" on="0"/>
        <pt x="336" y="682" on="0"/>
      </contour>
      <contour>
        <pt x="380" y="36" on="1"/>
        <pt x="504" y="36" on="0"/>
        <pt x="699" y="208" on="0"/>
        <pt x="719" y="335" on="1"/>
        <pt x="738" y="461" on="0"/>
        <pt x="597" y="635" on="0"/>
        <pt x="476" y="635" on="1"/>
        <pt x="351" y="635" on="0"/>
        <pt x="155" y="461" on="0"/>
        <pt x="135" y="335" on="1"/>
        <pt x="116" y="209" on="0"/>
        <pt x="258" y="36" on="0"/>
      </contour>
    </TTGlyph>
    <TTGlyph name="OE" xMin="84" yMin="0" xMax="1066" yMax="670">
      <contour>
        <pt x="626" y="624" on="1"/>
        <pt x="565" y="359" on="1"/>
        <pt x="964" y="359" on="1"/>
        <pt x="954" y="314" on="1"/>
        <pt x="555" y="314" on="1"/>
        <pt x="493" y="46" on="1"/>
        <pt x="922" y="46" on="1"/>
        <pt x="912" y="0" on="1"/>
        <pt x="371" y="0" on="1"/>
        <pt x="225" y="0" on="0"/>
        <pt x="62" y="186" on="0"/>
        <pt x="84" y="330" on="1"/>
        <pt x="107" y="480" on="0"/>
        <pt x="358" y="670" on="0"/>
        <pt x="538" y="670" on="1"/>
        <pt x="1066" y="670" on="1"/>
        <pt x="1055" y="624" on="1"/>
      </contour>
      <contour>
        <pt x="443" y="46" on="1"/>
        <pt x="576" y="624" on="1"/>
        <pt x="529" y="624" on="1"/>
        <pt x="371" y="624" on="0"/>
        <pt x="155" y="460" on="0"/>
        <pt x="135" y="330" on="1"/>
        <pt x="115" y="206" on="0"/>
        <pt x="250" y="46" on="0"/>
        <pt x="374" y="46" on="1"/>
      </contour>
    </TTGlyph>
    <TTGlyph name="Oacute" xMin="85" yMin="-12" xMax="770" yMax="886">
      <contour>
        <pt x="547" y="748" on="1"/>
        <pt x="500" y="748" on="1"/>
        <pt x="618" y="886" on="1"/>
        <pt x="681" y="886" on="1"/>
      </contour>
      <contour>
        <pt x="478" y="682" on="1"/>
        <pt x="624" y="682" on="0"/>
        <pt x="793" y="480" on="0"/>
        <pt x="770" y="335" on="1"/>
        <pt x="748" y="186" on="0"/>
        <pt x="522" y="-12" on="0"/>
        <pt x="377" y="-12" on="1"/>
        <pt x="231" y="-12" on="0"/>
        <pt x="62" y="189" on="0"/>
        <pt x="108" y="481" on="0"/>
        <pt x="336" y="682" on="0"/>
      </contour>
      <contour>
        <pt x="380" y="36" on="1"/>
        <pt x="504" y="36" on="0"/>
        <pt x="699" y="208" on="0"/>
        <pt x="719" y="335" on="1"/>
        <pt x="738" y="461" on="0"/>
        <pt x="597" y="635" on="0"/>
        <pt x="476" y="635" on="1"/>
        <pt x="351" y="635" on="0"/>
        <pt x="155" y="461" on="0"/>
        <pt x="135" y="335" on="1"/>
        <pt x="116" y="209" on="0"/>
        <pt x="258" y="36" on="0"/>
      </contour>
    </TTGlyph>
    <TTGlyph name="Ocircumflex" xMin="85" yMin="-12" xMax="770" yMax="879">
      <contour>
        <pt x="436" y="741" on="1"/>
        <pt x="381" y="741" on="1"/>
        <pt x="532" y="879" on="1"/>
        <pt x="578" y="879" on="1"/>
        <pt x="665" y="741" on="1"/>
        <pt x="616" y="741" on="1"/>
        <pt x="551" y="846" on="1"/>
      </contour>
      <contour>
        <pt x="478" y="682" on="1"/>
        <pt x="624" y="682" on="0"/>
        <pt x="793" y="480" on="0"/>
        <pt x="770" y="335" on="1"/>
        <pt x="748" y="186" on="0"/>
        <pt x="522" y="-12" on="0"/>
        <pt x="377" y="-12" on="1"/>
        <pt x="231" y="-12" on="0"/>
        <pt x="62" y="189" on="0"/>
        <pt x="108" y="481" on="0"/>
        <pt x="336" y="682" on="0"/>
      </contour>
      <contour>
        <pt x="719" y="335" on="1"/>
        <pt x="738" y="461" on="0"/>
        <pt x="597" y="635" on="0"/>
        <pt x="476" y="635" on="1"/>
        <pt x="351" y="635" on="0"/>
        <pt x="155" y="461" on="0"/>
        <pt x="135" y="335" on="1"/>
        <pt x="116" y="209" on="0"/>
        <pt x="258" y="36" on="0"/>
        <pt x="380" y="36" on="1"/>
        <pt x="504" y="36" on="0"/>
        <pt x="699" y="208" on="0"/>
      </contour>
    </TTGlyph>
    <TTGlyph name="Odieresis" xMin="85" yMin="-12" xMax="770" yMax="841">
      <contour>
        <pt x="419" y="841" on="0"/>
        <pt x="451" y="841" on="0"/>
        <pt x="474" y="818" on="0"/>
        <pt x="474" y="803" on="1"/>
        <pt x="474" y="787" on="0"/>
        <pt x="452" y="766" on="0"/>
        <pt x="418" y="766" on="0"/>
        <pt x="397" y="787" on="0"/>
        <pt x="397" y="803" on="1"/>
        <pt x="397" y="818" on="0"/>
      </contour>
      <contour>
        <pt x="608" y="841" on="0"/>
        <pt x="640" y="841" on="0"/>
        <pt x="663" y="818" on="0"/>
        <pt x="663" y="803" on="1"/>
        <pt x="663" y="787" on="0"/>
        <pt x="641" y="766" on="0"/>
        <pt x="607" y="766" on="0"/>
        <pt x="586" y="787" on="0"/>
        <pt x="586" y="803" on="1"/>
        <pt x="586" y="818" on="0"/>
      </contour>
      <contour>
        <pt x="478" y="682" on="1"/>
        <pt x="624" y="682" on="0"/>
        <pt x="793" y="480" on="0"/>
        <pt x="770" y="335" on="1"/>
        <pt x="748" y="186" on="0"/>
        <pt x="522" y="-12" on="0"/>
        <pt x="377" y="-12" on="1"/>
        <pt x="231" y="-12" on="0"/>
        <pt x="62" y="189" on="0"/>
        <pt x="108" y="481" on="0"/>
        <pt x="336" y="682" on="0"/>
      </contour>
      <contour>
        <pt x="380" y="36" on="1"/>
        <pt x="504" y="36" on="0"/>
        <pt x="699" y="208" on="0"/>
        <pt x="719" y="335" on="1"/>
        <pt x="738" y="461" on="0"/>
        <pt x="597" y="635" on="0"/>
        <pt x="476" y="635" on="1"/>
        <pt x="351" y="635" on="0"/>
        <pt x="155" y="461" on="0"/>
        <pt x="135" y="335" on="1"/>
        <pt x="116" y="209" on="0"/>
        <pt x="258" y="36" on="0"/>
      </contour>
    </TTGlyph>
    <TTGlyph name="Ograve" xMin="85" yMin="-12" xMax="770" yMax="886">
      <contour>
        <pt x="420" y="886" on="1"/>
        <pt x="538" y="748" on="1"/>
        <pt x="491" y="748" on="1"/>
        <pt x="357" y="886" on="1"/>
      </contour>
      <contour>
        <pt x="478" y="682" on="1"/>
        <pt x="624" y="682" on="0"/>
        <pt x="793" y="480" on="0"/>
        <pt x="770" y="335" on="1"/>
        <pt x="748" y="186" on="0"/>
        <pt x="522" y="-12" on="0"/>
        <pt x="377" y="-12" on="1"/>
        <pt x="231" y="-12" on="0"/>
        <pt x="62" y="189" on="0"/>
        <pt x="108" y="481" on="0"/>
        <pt x="336" y="682" on="0"/>
      </contour>
      <contour>
        <pt x="380" y="36" on="1"/>
        <pt x="504" y="36" on="0"/>
        <pt x="699" y="208" on="0"/>
        <pt x="719" y="335" on="1"/>
        <pt x="738" y="461" on="0"/>
        <pt x="597" y="635" on="0"/>
        <pt x="476" y="635" on="1"/>
        <pt x="351" y="635" on="0"/>
        <pt x="155" y="461" on="0"/>
        <pt x="135" y="335" on="1"/>
        <pt x="116" y="209" on="0"/>
        <pt x="258" y="36" on="0"/>
      </contour>
    </TTGlyph>
    <TTGlyph name="Ohungarumlaut" xMin="85" yMin="-12" xMax="770" yMax="885">
      <contour>
        <pt x="467" y="748" on="1"/>
        <pt x="421" y="748" on="1"/>
        <pt x="539" y="885" on="1"/>
        <pt x="600" y="885" on="1"/>
      </contour>
      <contour>
        <pt x="605" y="748" on="1"/>
        <pt x="559" y="748" on="1"/>
        <pt x="677" y="885" on="1"/>
        <pt x="738" y="885" on="1"/>
      </contour>
      <contour>
        <pt x="478" y="682" on="1"/>
        <pt x="624" y="682" on="0"/>
        <pt x="793" y="480" on="0"/>
        <pt x="770" y="335" on="1"/>
        <pt x="748" y="186" on="0"/>
        <pt x="522" y="-12" on="0"/>
        <pt x="377" y="-12" on="1"/>
        <pt x="231" y="-12" on="0"/>
        <pt x="62" y="189" on="0"/>
        <pt x="108" y="481" on="0"/>
        <pt x="336" y="682" on="0"/>
      </contour>
      <contour>
        <pt x="380" y="36" on="1"/>
        <pt x="504" y="36" on="0"/>
        <pt x="699" y="208" on="0"/>
        <pt x="719" y="335" on="1"/>
        <pt x="738" y="461" on="0"/>
        <pt x="597" y="635" on="0"/>
        <pt x="476" y="635" on="1"/>
        <pt x="351" y="635" on="0"/>
        <pt x="155" y="461" on="0"/>
        <pt x="135" y="335" on="1"/>
        <pt x="116" y="209" on="0"/>
        <pt x="258" y="36" on="0"/>
      </contour>
    </TTGlyph>
    <TTGlyph name="Omacron" xMin="85" yMin="-12" xMax="770" yMax="810">
      <contour>
        <pt x="656" y="770" on="1"/>
        <pt x="389" y="770" on="1"/>
        <pt x="398" y="810" on="1"/>
        <pt x="665" y="810" on="1"/>
      </contour>
      <contour>
        <pt x="478" y="682" on="1"/>
        <pt x="624" y="682" on="0"/>
        <pt x="793" y="480" on="0"/>
        <pt x="770" y="335" on="1"/>
        <pt x="748" y="186" on="0"/>
        <pt x="522" y="-12" on="0"/>
        <pt x="377" y="-12" on="1"/>
        <pt x="231" y="-12" on="0"/>
        <pt x="62" y="189" on="0"/>
        <pt x="108" y="481" on="0"/>
        <pt x="336" y="682" on="0"/>
      </contour>
      <contour>
        <pt x="380" y="36" on="1"/>
        <pt x="504" y="36" on="0"/>
        <pt x="699" y="208" on="0"/>
        <pt x="719" y="335" on="1"/>
        <pt x="738" y="461" on="0"/>
        <pt x="597" y="635" on="0"/>
        <pt x="476" y="635" on="1"/>
        <pt x="351" y="635" on="0"/>
        <pt x="155" y="461" on="0"/>
        <pt x="135" y="335" on="1"/>
        <pt x="116" y="209" on="0"/>
        <pt x="258" y="36" on="0"/>
      </contour>
    </TTGlyph>
    <TTGlyph name="Oslash" xMin="22" yMin="-12" xMax="808" yMax="682">
      <contour>
        <pt x="808" y="630" on="1"/>
        <pt x="723" y="561" on="1"/>
        <pt x="791" y="463" on="0"/>
        <pt x="770" y="335" on="1"/>
        <pt x="748" y="186" on="0"/>
        <pt x="522" y="-12" on="0"/>
        <pt x="377" y="-12" on="1"/>
        <pt x="229" y="-12" on="0"/>
        <pt x="145" y="91" on="1"/>
        <pt x="50" y="14" on="1"/>
        <pt x="22" y="49" on="1"/>
        <pt x="119" y="128" on="1"/>
        <pt x="67" y="218" on="0"/>
        <pt x="85" y="335" on="1"/>
        <pt x="108" y="481" on="0"/>
        <pt x="336" y="682" on="0"/>
        <pt x="478" y="682" on="1"/>
        <pt x="611" y="682" on="0"/>
        <pt x="695" y="595" on="1"/>
        <pt x="781" y="665" on="1"/>
      </contour>
      <contour>
        <pt x="135" y="335" on="1"/>
        <pt x="120" y="238" on="0"/>
        <pt x="161" y="162" on="1"/>
        <pt x="655" y="563" on="1"/>
        <pt x="585" y="635" on="0"/>
        <pt x="476" y="635" on="1"/>
        <pt x="351" y="635" on="0"/>
        <pt x="155" y="461" on="0"/>
      </contour>
      <contour>
        <pt x="719" y="335" on="1"/>
        <pt x="735" y="444" on="0"/>
        <pt x="682" y="528" on="1"/>
        <pt x="185" y="124" on="1"/>
        <pt x="255" y="36" on="0"/>
        <pt x="380" y="36" on="1"/>
        <pt x="504" y="36" on="0"/>
        <pt x="699" y="208" on="0"/>
      </contour>
    </TTGlyph>
    <TTGlyph name="Otilde" xMin="85" yMin="-12" xMax="770" yMax="865">
      <contour>
        <pt x="422" y="777" on="1"/>
        <pt x="384" y="777" on="1"/>
        <pt x="394" y="820" on="0"/>
        <pt x="448" y="865" on="0"/>
        <pt x="481" y="865" on="1"/>
        <pt x="511" y="865" on="0"/>
        <pt x="569" y="812" on="0"/>
        <pt x="591" y="812" on="1"/>
        <pt x="610" y="812" on="0"/>
        <pt x="639" y="840" on="0"/>
        <pt x="644" y="864" on="1"/>
        <pt x="682" y="864" on="1"/>
        <pt x="672" y="821" on="0"/>
        <pt x="618" y="775" on="0"/>
        <pt x="585" y="775" on="1"/>
        <pt x="555" y="775" on="0"/>
        <pt x="496" y="827" on="0"/>
        <pt x="475" y="827" on="1"/>
        <pt x="456" y="827" on="0"/>
        <pt x="427" y="800" on="0"/>
      </contour>
      <contour>
        <pt x="478" y="682" on="1"/>
        <pt x="624" y="682" on="0"/>
        <pt x="793" y="480" on="0"/>
        <pt x="770" y="335" on="1"/>
        <pt x="748" y="186" on="0"/>
        <pt x="522" y="-12" on="0"/>
        <pt x="377" y="-12" on="1"/>
        <pt x="231" y="-12" on="0"/>
        <pt x="62" y="189" on="0"/>
        <pt x="108" y="481" on="0"/>
        <pt x="336" y="682" on="0"/>
      </contour>
      <contour>
        <pt x="380" y="36" on="1"/>
        <pt x="504" y="36" on="0"/>
        <pt x="699" y="208" on="0"/>
        <pt x="719" y="335" on="1"/>
        <pt x="738" y="461" on="0"/>
        <pt x="597" y="635" on="0"/>
        <pt x="476" y="635" on="1"/>
        <pt x="351" y="635" on="0"/>
        <pt x="155" y="461" on="0"/>
        <pt x="135" y="335" on="1"/>
        <pt x="116" y="209" on="0"/>
        <pt x="258" y="36" on="0"/>
      </contour>
    </TTGlyph>
    <TTGlyph name="P" xMin="39" yMin="0" xMax="661" yMax="670">
      <contour>
        <pt x="194" y="670" on="1"/>
        <pt x="467" y="670" on="1"/>
        <pt x="558" y="670" on="0"/>
        <pt x="661" y="579" on="0"/>
        <pt x="661" y="503" on="1"/>
        <pt x="661" y="405" on="0"/>
        <pt x="505" y="271" on="0"/>
        <pt x="384" y="271" on="1"/>
        <pt x="153" y="271" on="1"/>
        <pt x="90" y="0" on="1"/>
        <pt x="39" y="0" on="1"/>
        <pt x="183" y="624" on="1"/>
      </contour>
      <contour>
        <pt x="163" y="317" on="1"/>
        <pt x="386" y="317" on="1"/>
        <pt x="482" y="317" on="0"/>
        <pt x="609" y="425" on="0"/>
        <pt x="609" y="502" on="1"/>
        <pt x="609" y="558" on="0"/>
        <pt x="535" y="624" on="0"/>
        <pt x="465" y="624" on="1"/>
        <pt x="234" y="624" on="1"/>
      </contour>
    </TTGlyph>
    <TTGlyph name="Q" xMin="85" yMin="-154" xMax="770" yMax="682">
      <contour>
        <pt x="770" y="335" on="1"/>
        <pt x="757" y="247" on="0"/>
        <pt x="662" y="101" on="0"/>
        <pt x="591" y="54" on="1"/>
        <pt x="737" y="-120" on="1"/>
        <pt x="698" y="-154" on="1"/>
        <pt x="544" y="27" on="1"/>
        <pt x="464" y="-12" on="0"/>
        <pt x="377" y="-12" on="1"/>
        <pt x="231" y="-12" on="0"/>
        <pt x="62" y="189" on="0"/>
        <pt x="108" y="481" on="0"/>
        <pt x="336" y="682" on="0"/>
        <pt x="478" y="682" on="1"/>
        <pt x="624" y="682" on="0"/>
        <pt x="793" y="480" on="0"/>
      </contour>
      <contour>
        <pt x="380" y="36" on="1"/>
        <pt x="504" y="36" on="0"/>
        <pt x="699" y="208" on="0"/>
        <pt x="719" y="335" on="1"/>
        <pt x="738" y="461" on="0"/>
        <pt x="597" y="635" on="0"/>
        <pt x="476" y="635" on="1"/>
        <pt x="351" y="635" on="0"/>
        <pt x="155" y="461" on="0"/>
        <pt x="135" y="335" on="1"/>
        <pt x="116" y="209" on="0"/>
        <pt x="258" y="36" on="0"/>
      </contour>
    </TTGlyph>
    <TTGlyph name="Q.ss04" xMin="85" yMin="-170" xMax="770" yMax="682">
      <contour>
        <pt x="770" y="335" on="1"/>
        <pt x="757" y="245" on="0"/>
        <pt x="658" y="96" on="0"/>
        <pt x="584" y="49" on="1"/>
        <pt x="770" y="-170" on="1"/>
        <pt x="702" y="-170" on="1"/>
        <pt x="538" y="24" on="1"/>
        <pt x="460" y="-12" on="0"/>
        <pt x="377" y="-12" on="1"/>
        <pt x="231" y="-12" on="0"/>
        <pt x="62" y="189" on="0"/>
        <pt x="108" y="481" on="0"/>
        <pt x="336" y="682" on="0"/>
        <pt x="478" y="682" on="1"/>
        <pt x="624" y="682" on="0"/>
        <pt x="793" y="480" on="0"/>
      </contour>
      <contour>
        <pt x="380" y="36" on="1"/>
        <pt x="504" y="36" on="0"/>
        <pt x="699" y="208" on="0"/>
        <pt x="719" y="335" on="1"/>
        <pt x="738" y="461" on="0"/>
        <pt x="597" y="635" on="0"/>
        <pt x="476" y="635" on="1"/>
        <pt x="351" y="635" on="0"/>
        <pt x="155" y="461" on="0"/>
        <pt x="135" y="335" on="1"/>
        <pt x="116" y="209" on="0"/>
        <pt x="258" y="36" on="0"/>
      </contour>
    </TTGlyph>
    <TTGlyph name="R" xMin="47" yMin="0" xMax="676" yMax="670">
      <contour>
        <pt x="676" y="520" on="1"/>
        <pt x="676" y="425" on="0"/>
        <pt x="534" y="308" on="0"/>
        <pt x="419" y="308" on="1"/>
        <pt x="401" y="308" on="1"/>
        <pt x="589" y="0" on="1"/>
        <pt x="530" y="0" on="1"/>
        <pt x="347" y="308" on="1"/>
        <pt x="168" y="308" on="1"/>
        <pt x="97" y="0" on="1"/>
        <pt x="47" y="0" on="1"/>
        <pt x="191" y="624" on="1"/>
        <pt x="202" y="670" on="1"/>
        <pt x="501" y="670" on="1"/>
        <pt x="580" y="670" on="0"/>
        <pt x="676" y="588" on="0"/>
      </contour>
      <contour>
        <pt x="179" y="353" on="1"/>
        <pt x="422" y="353" on="1"/>
        <pt x="513" y="353" on="0"/>
        <pt x="625" y="443" on="0"/>
        <pt x="625" y="516" on="1"/>
        <pt x="625" y="565" on="0"/>
        <pt x="556" y="624" on="0"/>
        <pt x="499" y="624" on="1"/>
        <pt x="242" y="624" on="1"/>
      </contour>
    </TTGlyph>
    <TTGlyph name="Racute" xMin="47" yMin="0" xMax="676" yMax="886">
      <contour>
        <pt x="456" y="748" on="1"/>
        <pt x="409" y="748" on="1"/>
        <pt x="527" y="886" on="1"/>
        <pt x="590" y="886" on="1"/>
      </contour>
      <contour>
        <pt x="676" y="520" on="1"/>
        <pt x="676" y="425" on="0"/>
        <pt x="534" y="308" on="0"/>
        <pt x="419" y="308" on="1"/>
        <pt x="401" y="308" on="1"/>
        <pt x="589" y="0" on="1"/>
        <pt x="530" y="0" on="1"/>
        <pt x="347" y="308" on="1"/>
        <pt x="168" y="308" on="1"/>
        <pt x="97" y="0" on="1"/>
        <pt x="47" y="0" on="1"/>
        <pt x="191" y="624" on="1"/>
        <pt x="202" y="670" on="1"/>
        <pt x="501" y="670" on="1"/>
        <pt x="580" y="670" on="0"/>
        <pt x="676" y="588" on="0"/>
      </contour>
      <contour>
        <pt x="179" y="353" on="1"/>
        <pt x="422" y="353" on="1"/>
        <pt x="513" y="353" on="0"/>
        <pt x="625" y="443" on="0"/>
        <pt x="625" y="516" on="1"/>
        <pt x="625" y="565" on="0"/>
        <pt x="556" y="624" on="0"/>
        <pt x="499" y="624" on="1"/>
        <pt x="242" y="624" on="1"/>
      </contour>
    </TTGlyph>
    <TTGlyph name="Rcaron" xMin="47" yMin="0" xMax="676" yMax="881">
      <contour>
        <pt x="402" y="742" on="1"/>
        <pt x="316" y="881" on="1"/>
        <pt x="364" y="881" on="1"/>
        <pt x="429" y="775" on="1"/>
        <pt x="544" y="881" on="1"/>
        <pt x="599" y="881" on="1"/>
        <pt x="448" y="742" on="1"/>
      </contour>
      <contour>
        <pt x="676" y="520" on="1"/>
        <pt x="676" y="425" on="0"/>
        <pt x="534" y="308" on="0"/>
        <pt x="419" y="308" on="1"/>
        <pt x="401" y="308" on="1"/>
        <pt x="589" y="0" on="1"/>
        <pt x="530" y="0" on="1"/>
        <pt x="347" y="308" on="1"/>
        <pt x="168" y="308" on="1"/>
        <pt x="97" y="0" on="1"/>
        <pt x="47" y="0" on="1"/>
        <pt x="191" y="624" on="1"/>
        <pt x="202" y="670" on="1"/>
        <pt x="501" y="670" on="1"/>
        <pt x="580" y="670" on="0"/>
        <pt x="676" y="588" on="0"/>
      </contour>
      <contour>
        <pt x="179" y="353" on="1"/>
        <pt x="422" y="353" on="1"/>
        <pt x="513" y="353" on="0"/>
        <pt x="625" y="443" on="0"/>
        <pt x="625" y="516" on="1"/>
        <pt x="625" y="565" on="0"/>
        <pt x="556" y="624" on="0"/>
        <pt x="499" y="624" on="1"/>
        <pt x="242" y="624" on="1"/>
      </contour>
    </TTGlyph>
    <TTGlyph name="Rcommaaccent" xMin="47" yMin="-184" xMax="676" yMax="670">
      <contour>
        <pt x="676" y="520" on="1"/>
        <pt x="676" y="425" on="0"/>
        <pt x="534" y="308" on="0"/>
        <pt x="419" y="308" on="1"/>
        <pt x="401" y="308" on="1"/>
        <pt x="589" y="0" on="1"/>
        <pt x="530" y="0" on="1"/>
        <pt x="347" y="308" on="1"/>
        <pt x="168" y="308" on="1"/>
        <pt x="97" y="0" on="1"/>
        <pt x="47" y="0" on="1"/>
        <pt x="191" y="624" on="1"/>
        <pt x="202" y="670" on="1"/>
        <pt x="501" y="670" on="1"/>
        <pt x="580" y="670" on="0"/>
        <pt x="676" y="588" on="0"/>
      </contour>
      <contour>
        <pt x="179" y="353" on="1"/>
        <pt x="422" y="353" on="1"/>
        <pt x="513" y="353" on="0"/>
        <pt x="625" y="443" on="0"/>
        <pt x="625" y="516" on="1"/>
        <pt x="625" y="565" on="0"/>
        <pt x="556" y="624" on="0"/>
        <pt x="499" y="624" on="1"/>
        <pt x="242" y="624" on="1"/>
      </contour>
      <contour>
        <pt x="256" y="-45" on="1"/>
        <pt x="313" y="-45" on="1"/>
        <pt x="222" y="-184" on="1"/>
        <pt x="183" y="-184" on="1"/>
      </contour>
    </TTGlyph>
    <TTGlyph name="S" xMin="35" yMin="-11" xMax="616" yMax="681">
      <contour>
        <pt x="385" y="681" on="1"/>
        <pt x="486" y="681" on="0"/>
        <pt x="610" y="580" on="0"/>
        <pt x="616" y="494" on="1"/>
        <pt x="566" y="482" on="1"/>
        <pt x="562" y="553" on="0"/>
        <pt x="462" y="638" on="0"/>
        <pt x="380" y="638" on="1"/>
        <pt x="299" y="638" on="0"/>
        <pt x="191" y="557" on="0"/>
        <pt x="191" y="494" on="1"/>
        <pt x="191" y="456" on="0"/>
        <pt x="236" y="410" on="0"/>
        <pt x="286" y="390" on="1"/>
        <pt x="412" y="341" on="1"/>
        <pt x="548" y="290" on="0"/>
        <pt x="548" y="186" on="1"/>
        <pt x="548" y="98" on="0"/>
        <pt x="407" y="-11" on="0"/>
        <pt x="294" y="-11" on="1"/>
        <pt x="180" y="-11" on="0"/>
        <pt x="36" y="100" on="0"/>
        <pt x="35" y="195" on="1"/>
        <pt x="87" y="207" on="1"/>
        <pt x="89" y="127" on="0"/>
        <pt x="201" y="33" on="0"/>
        <pt x="297" y="33" on="1"/>
        <pt x="388" y="33" on="0"/>
        <pt x="497" y="115" on="0"/>
        <pt x="497" y="182" on="1"/>
        <pt x="497" y="256" on="0"/>
        <pt x="397" y="295" on="1"/>
        <pt x="269" y="344" on="1"/>
        <pt x="202" y="371" on="0"/>
        <pt x="139" y="434" on="0"/>
        <pt x="139" y="488" on="1"/>
        <pt x="139" y="574" on="0"/>
        <pt x="278" y="681" on="0"/>
      </contour>
    </TTGlyph>
    <TTGlyph name="Sacute" xMin="35" yMin="-11" xMax="616" yMax="886">
      <contour>
        <pt x="439" y="748" on="1"/>
        <pt x="392" y="748" on="1"/>
        <pt x="510" y="886" on="1"/>
        <pt x="573" y="886" on="1"/>
      </contour>
      <contour>
        <pt x="385" y="681" on="1"/>
        <pt x="486" y="681" on="0"/>
        <pt x="610" y="580" on="0"/>
        <pt x="616" y="494" on="1"/>
        <pt x="566" y="482" on="1"/>
        <pt x="562" y="553" on="0"/>
        <pt x="462" y="638" on="0"/>
        <pt x="380" y="638" on="1"/>
        <pt x="299" y="638" on="0"/>
        <pt x="191" y="557" on="0"/>
        <pt x="191" y="494" on="1"/>
        <pt x="191" y="456" on="0"/>
        <pt x="236" y="410" on="0"/>
        <pt x="286" y="390" on="1"/>
        <pt x="412" y="341" on="1"/>
        <pt x="548" y="290" on="0"/>
        <pt x="548" y="186" on="1"/>
        <pt x="548" y="98" on="0"/>
        <pt x="407" y="-11" on="0"/>
        <pt x="294" y="-11" on="1"/>
        <pt x="180" y="-11" on="0"/>
        <pt x="36" y="100" on="0"/>
        <pt x="35" y="195" on="1"/>
        <pt x="87" y="207" on="1"/>
        <pt x="89" y="127" on="0"/>
        <pt x="201" y="33" on="0"/>
        <pt x="297" y="33" on="1"/>
        <pt x="388" y="33" on="0"/>
        <pt x="497" y="115" on="0"/>
        <pt x="497" y="182" on="1"/>
        <pt x="497" y="256" on="0"/>
        <pt x="397" y="295" on="1"/>
        <pt x="269" y="344" on="1"/>
        <pt x="202" y="371" on="0"/>
        <pt x="139" y="434" on="0"/>
        <pt x="139" y="488" on="1"/>
        <pt x="139" y="574" on="0"/>
        <pt x="278" y="681" on="0"/>
      </contour>
    </TTGlyph>
    <TTGlyph name="Scaron" xMin="35" yMin="-11" xMax="616" yMax="881">
      <contour>
        <pt x="385" y="742" on="1"/>
        <pt x="299" y="881" on="1"/>
        <pt x="347" y="881" on="1"/>
        <pt x="412" y="775" on="1"/>
        <pt x="527" y="881" on="1"/>
        <pt x="582" y="881" on="1"/>
        <pt x="431" y="742" on="1"/>
      </contour>
      <contour>
        <pt x="380" y="638" on="1"/>
        <pt x="299" y="638" on="0"/>
        <pt x="191" y="557" on="0"/>
        <pt x="191" y="494" on="1"/>
        <pt x="191" y="456" on="0"/>
        <pt x="236" y="410" on="0"/>
        <pt x="286" y="390" on="1"/>
        <pt x="412" y="341" on="1"/>
        <pt x="548" y="290" on="0"/>
        <pt x="548" y="186" on="1"/>
        <pt x="548" y="98" on="0"/>
        <pt x="407" y="-11" on="0"/>
        <pt x="294" y="-11" on="1"/>
        <pt x="180" y="-11" on="0"/>
        <pt x="36" y="100" on="0"/>
        <pt x="35" y="195" on="1"/>
        <pt x="87" y="207" on="1"/>
        <pt x="89" y="127" on="0"/>
        <pt x="201" y="33" on="0"/>
        <pt x="297" y="33" on="1"/>
        <pt x="388" y="33" on="0"/>
        <pt x="497" y="115" on="0"/>
        <pt x="497" y="182" on="1"/>
        <pt x="497" y="256" on="0"/>
        <pt x="397" y="295" on="1"/>
        <pt x="269" y="344" on="1"/>
        <pt x="202" y="371" on="0"/>
        <pt x="139" y="434" on="0"/>
        <pt x="139" y="488" on="1"/>
        <pt x="139" y="574" on="0"/>
        <pt x="278" y="681" on="0"/>
        <pt x="385" y="681" on="1"/>
        <pt x="486" y="681" on="0"/>
        <pt x="610" y="580" on="0"/>
        <pt x="616" y="494" on="1"/>
        <pt x="566" y="482" on="1"/>
        <pt x="562" y="553" on="0"/>
        <pt x="462" y="638" on="0"/>
      </contour>
    </TTGlyph>
    <TTGlyph name="Scedilla" xMin="35" yMin="-175" xMax="616" yMax="681">
      <contour>
        <pt x="380" y="638" on="1"/>
        <pt x="299" y="638" on="0"/>
        <pt x="191" y="557" on="0"/>
        <pt x="191" y="494" on="1"/>
        <pt x="191" y="456" on="0"/>
        <pt x="236" y="410" on="0"/>
        <pt x="286" y="390" on="1"/>
        <pt x="412" y="341" on="1"/>
        <pt x="548" y="290" on="0"/>
        <pt x="548" y="186" on="1"/>
        <pt x="548" y="98" on="0"/>
        <pt x="407" y="-11" on="0"/>
        <pt x="294" y="-11" on="1"/>
        <pt x="173" y="-175" on="1"/>
        <pt x="111" y="-175" on="1"/>
        <pt x="252" y="-9" on="1"/>
        <pt x="155" y="2" on="0"/>
        <pt x="36" y="110" on="0"/>
        <pt x="35" y="195" on="1"/>
        <pt x="87" y="207" on="1"/>
        <pt x="89" y="127" on="0"/>
        <pt x="201" y="33" on="0"/>
        <pt x="297" y="33" on="1"/>
        <pt x="388" y="33" on="0"/>
        <pt x="497" y="115" on="0"/>
        <pt x="497" y="182" on="1"/>
        <pt x="497" y="256" on="0"/>
        <pt x="397" y="295" on="1"/>
        <pt x="269" y="344" on="1"/>
        <pt x="202" y="371" on="0"/>
        <pt x="139" y="434" on="0"/>
        <pt x="139" y="488" on="1"/>
        <pt x="139" y="574" on="0"/>
        <pt x="278" y="681" on="0"/>
        <pt x="385" y="681" on="1"/>
        <pt x="486" y="681" on="0"/>
        <pt x="610" y="580" on="0"/>
        <pt x="616" y="494" on="1"/>
        <pt x="566" y="482" on="1"/>
        <pt x="562" y="553" on="0"/>
        <pt x="462" y="638" on="0"/>
      </contour>
    </TTGlyph>
    <TTGlyph name="Scommaaccent" xMin="35" yMin="-184" xMax="616" yMax="681">
      <contour>
        <pt x="385" y="681" on="1"/>
        <pt x="486" y="681" on="0"/>
        <pt x="610" y="580" on="0"/>
        <pt x="616" y="494" on="1"/>
        <pt x="566" y="482" on="1"/>
        <pt x="562" y="553" on="0"/>
        <pt x="462" y="638" on="0"/>
        <pt x="380" y="638" on="1"/>
        <pt x="299" y="638" on="0"/>
        <pt x="191" y="557" on="0"/>
        <pt x="191" y="494" on="1"/>
        <pt x="191" y="456" on="0"/>
        <pt x="236" y="410" on="0"/>
        <pt x="286" y="390" on="1"/>
        <pt x="412" y="341" on="1"/>
        <pt x="548" y="290" on="0"/>
        <pt x="548" y="186" on="1"/>
        <pt x="548" y="98" on="0"/>
        <pt x="407" y="-11" on="0"/>
        <pt x="294" y="-11" on="1"/>
        <pt x="180" y="-11" on="0"/>
        <pt x="36" y="100" on="0"/>
        <pt x="35" y="195" on="1"/>
        <pt x="87" y="207" on="1"/>
        <pt x="89" y="127" on="0"/>
        <pt x="201" y="33" on="0"/>
        <pt x="297" y="33" on="1"/>
        <pt x="388" y="33" on="0"/>
        <pt x="497" y="115" on="0"/>
        <pt x="497" y="182" on="1"/>
        <pt x="497" y="256" on="0"/>
        <pt x="397" y="295" on="1"/>
        <pt x="269" y="344" on="1"/>
        <pt x="202" y="371" on="0"/>
        <pt x="139" y="434" on="0"/>
        <pt x="139" y="488" on="1"/>
        <pt x="139" y="574" on="0"/>
        <pt x="278" y="681" on="0"/>
      </contour>
      <contour>
        <pt x="154" y="-184" on="1"/>
        <pt x="227" y="-45" on="1"/>
        <pt x="284" y="-45" on="1"/>
        <pt x="193" y="-184" on="1"/>
      </contour>
    </TTGlyph>
    <TTGlyph name="T" xMin="115" yMin="0" xMax="701" yMax="670">
      <contour>
        <pt x="690" y="624" on="1"/>
        <pt x="428" y="624" on="1"/>
        <pt x="285" y="0" on="1"/>
        <pt x="233" y="0" on="1"/>
        <pt x="376" y="624" on="1"/>
        <pt x="115" y="624" on="1"/>
        <pt x="126" y="670" on="1"/>
        <pt x="701" y="670" on="1"/>
      </contour>
    </TTGlyph>
    <TTGlyph name="Tbar" xMin="115" yMin="0" xMax="701" yMax="670">
      <contour>
        <pt x="428" y="624" on="1"/>
        <pt x="367" y="357" on="1"/>
        <pt x="506" y="357" on="1"/>
        <pt x="496" y="315" on="1"/>
        <pt x="357" y="315" on="1"/>
        <pt x="285" y="0" on="1"/>
        <pt x="233" y="0" on="1"/>
        <pt x="305" y="315" on="1"/>
        <pt x="169" y="315" on="1"/>
        <pt x="179" y="357" on="1"/>
        <pt x="315" y="357" on="1"/>
        <pt x="376" y="624" on="1"/>
        <pt x="115" y="624" on="1"/>
        <pt x="126" y="670" on="1"/>
        <pt x="701" y="670" on="1"/>
        <pt x="690" y="624" on="1"/>
      </contour>
    </TTGlyph>
    <TTGlyph name="Tcaron" xMin="115" yMin="0" xMax="701" yMax="881">
      <contour>
        <pt x="408" y="742" on="1"/>
        <pt x="322" y="881" on="1"/>
        <pt x="370" y="881" on="1"/>
        <pt x="435" y="775" on="1"/>
        <pt x="550" y="881" on="1"/>
        <pt x="605" y="881" on="1"/>
        <pt x="454" y="742" on="1"/>
      </contour>
      <contour>
        <pt x="690" y="624" on="1"/>
        <pt x="428" y="624" on="1"/>
        <pt x="285" y="0" on="1"/>
        <pt x="233" y="0" on="1"/>
        <pt x="376" y="624" on="1"/>
        <pt x="115" y="624" on="1"/>
        <pt x="126" y="670" on="1"/>
        <pt x="701" y="670" on="1"/>
      </contour>
    </TTGlyph>
    <TTGlyph name="Thorn" xMin="40" yMin="0" xMax="612" yMax="670">
      <contour>
        <pt x="216" y="542" on="1"/>
        <pt x="414" y="542" on="1"/>
        <pt x="506" y="542" on="0"/>
        <pt x="612" y="449" on="0"/>
        <pt x="612" y="372" on="1"/>
        <pt x="612" y="270" on="0"/>
        <pt x="452" y="128" on="0"/>
        <pt x="337" y="128" on="1"/>
        <pt x="120" y="128" on="1"/>
        <pt x="91" y="0" on="1"/>
        <pt x="40" y="0" on="1"/>
        <pt x="195" y="670" on="1"/>
        <pt x="245" y="670" on="1"/>
      </contour>
      <contour>
        <pt x="131" y="174" on="1"/>
        <pt x="335" y="174" on="1"/>
        <pt x="428" y="174" on="0"/>
        <pt x="560" y="287" on="0"/>
        <pt x="560" y="368" on="1"/>
        <pt x="560" y="427" on="0"/>
        <pt x="484" y="497" on="0"/>
        <pt x="413" y="497" on="1"/>
        <pt x="205" y="497" on="1"/>
      </contour>
    </TTGlyph>
    <TTGlyph name="U" xMin="98" yMin="-11" xMax="737" yMax="670">
      <contour>
        <pt x="737" y="670" on="1"/>
        <pt x="649" y="289" on="1"/>
        <pt x="617" y="151" on="0"/>
        <pt x="441" y="-11" on="0"/>
        <pt x="315" y="-11" on="1"/>
        <pt x="192" y="-11" on="0"/>
        <pt x="67" y="156" on="0"/>
        <pt x="98" y="289" on="1"/>
        <pt x="186" y="670" on="1"/>
        <pt x="236" y="670" on="1"/>
        <pt x="148" y="289" on="1"/>
        <pt x="122" y="175" on="0"/>
        <pt x="217" y="37" on="0"/>
        <pt x="421" y="37" on="0"/>
        <pt x="571" y="175" on="0"/>
        <pt x="598" y="289" on="1"/>
        <pt x="686" y="670" on="1"/>
      </contour>
    </TTGlyph>
    <TTGlyph name="Uacute" xMin="98" yMin="-11" xMax="737" yMax="886">
      <contour>
        <pt x="508" y="748" on="1"/>
        <pt x="461" y="748" on="1"/>
        <pt x="579" y="886" on="1"/>
        <pt x="642" y="886" on="1"/>
      </contour>
      <contour>
        <pt x="737" y="670" on="1"/>
        <pt x="649" y="289" on="1"/>
        <pt x="617" y="151" on="0"/>
        <pt x="441" y="-11" on="0"/>
        <pt x="315" y="-11" on="1"/>
        <pt x="192" y="-11" on="0"/>
        <pt x="67" y="156" on="0"/>
        <pt x="98" y="289" on="1"/>
        <pt x="186" y="670" on="1"/>
        <pt x="236" y="670" on="1"/>
        <pt x="148" y="289" on="1"/>
        <pt x="122" y="175" on="0"/>
        <pt x="217" y="37" on="0"/>
        <pt x="421" y="37" on="0"/>
        <pt x="571" y="175" on="0"/>
        <pt x="598" y="289" on="1"/>
        <pt x="686" y="670" on="1"/>
      </contour>
    </TTGlyph>
    <TTGlyph name="Ucircumflex" xMin="98" yMin="-11" xMax="737" yMax="879">
      <contour>
        <pt x="397" y="741" on="1"/>
        <pt x="342" y="741" on="1"/>
        <pt x="493" y="879" on="1"/>
        <pt x="539" y="879" on="1"/>
        <pt x="626" y="741" on="1"/>
        <pt x="577" y="741" on="1"/>
        <pt x="512" y="846" on="1"/>
      </contour>
      <contour>
        <pt x="737" y="670" on="1"/>
        <pt x="649" y="289" on="1"/>
        <pt x="617" y="151" on="0"/>
        <pt x="441" y="-11" on="0"/>
        <pt x="315" y="-11" on="1"/>
        <pt x="192" y="-11" on="0"/>
        <pt x="67" y="156" on="0"/>
        <pt x="98" y="289" on="1"/>
        <pt x="186" y="670" on="1"/>
        <pt x="236" y="670" on="1"/>
        <pt x="148" y="289" on="1"/>
        <pt x="122" y="175" on="0"/>
        <pt x="217" y="37" on="0"/>
        <pt x="421" y="37" on="0"/>
        <pt x="571" y="175" on="0"/>
        <pt x="598" y="289" on="1"/>
        <pt x="686" y="670" on="1"/>
      </contour>
    </TTGlyph>
    <TTGlyph name="Udieresis" xMin="98" yMin="-11" xMax="737" yMax="841">
      <contour>
        <pt x="413" y="766" on="0"/>
        <pt x="379" y="766" on="0"/>
        <pt x="358" y="787" on="0"/>
        <pt x="358" y="803" on="1"/>
        <pt x="358" y="818" on="0"/>
        <pt x="380" y="841" on="0"/>
        <pt x="412" y="841" on="0"/>
        <pt x="435" y="818" on="0"/>
        <pt x="435" y="803" on="1"/>
        <pt x="435" y="787" on="0"/>
      </contour>
      <contour>
        <pt x="602" y="766" on="0"/>
        <pt x="568" y="766" on="0"/>
        <pt x="547" y="787" on="0"/>
        <pt x="547" y="803" on="1"/>
        <pt x="547" y="818" on="0"/>
        <pt x="569" y="841" on="0"/>
        <pt x="601" y="841" on="0"/>
        <pt x="624" y="818" on="0"/>
        <pt x="624" y="803" on="1"/>
        <pt x="624" y="787" on="0"/>
      </contour>
      <contour>
        <pt x="737" y="670" on="1"/>
        <pt x="649" y="289" on="1"/>
        <pt x="617" y="151" on="0"/>
        <pt x="441" y="-11" on="0"/>
        <pt x="315" y="-11" on="1"/>
        <pt x="192" y="-11" on="0"/>
        <pt x="67" y="156" on="0"/>
        <pt x="98" y="289" on="1"/>
        <pt x="186" y="670" on="1"/>
        <pt x="236" y="670" on="1"/>
        <pt x="148" y="289" on="1"/>
        <pt x="122" y="175" on="0"/>
        <pt x="217" y="37" on="0"/>
        <pt x="421" y="37" on="0"/>
        <pt x="571" y="175" on="0"/>
        <pt x="598" y="289" on="1"/>
        <pt x="686" y="670" on="1"/>
      </contour>
    </TTGlyph>
    <TTGlyph name="Ugrave" xMin="98" yMin="-11" xMax="737" yMax="886">
      <contour>
        <pt x="452" y="748" on="1"/>
        <pt x="318" y="886" on="1"/>
        <pt x="381" y="886" on="1"/>
        <pt x="499" y="748" on="1"/>
      </contour>
      <contour>
        <pt x="737" y="670" on="1"/>
        <pt x="649" y="289" on="1"/>
        <pt x="617" y="151" on="0"/>
        <pt x="441" y="-11" on="0"/>
        <pt x="315" y="-11" on="1"/>
        <pt x="192" y="-11" on="0"/>
        <pt x="67" y="156" on="0"/>
        <pt x="98" y="289" on="1"/>
        <pt x="186" y="670" on="1"/>
        <pt x="236" y="670" on="1"/>
        <pt x="148" y="289" on="1"/>
        <pt x="122" y="175" on="0"/>
        <pt x="217" y="37" on="0"/>
        <pt x="421" y="37" on="0"/>
        <pt x="571" y="175" on="0"/>
        <pt x="598" y="289" on="1"/>
        <pt x="686" y="670" on="1"/>
      </contour>
    </TTGlyph>
    <TTGlyph name="Uhungarumlaut" xMin="98" yMin="-11" xMax="737" yMax="885">
      <contour>
        <pt x="428" y="748" on="1"/>
        <pt x="382" y="748" on="1"/>
        <pt x="500" y="885" on="1"/>
        <pt x="561" y="885" on="1"/>
      </contour>
      <contour>
        <pt x="520" y="748" on="1"/>
        <pt x="638" y="885" on="1"/>
        <pt x="699" y="885" on="1"/>
        <pt x="566" y="748" on="1"/>
      </contour>
      <contour>
        <pt x="737" y="670" on="1"/>
        <pt x="649" y="289" on="1"/>
        <pt x="617" y="151" on="0"/>
        <pt x="441" y="-11" on="0"/>
        <pt x="315" y="-11" on="1"/>
        <pt x="192" y="-11" on="0"/>
        <pt x="67" y="156" on="0"/>
        <pt x="98" y="289" on="1"/>
        <pt x="186" y="670" on="1"/>
        <pt x="236" y="670" on="1"/>
        <pt x="148" y="289" on="1"/>
        <pt x="122" y="175" on="0"/>
        <pt x="217" y="37" on="0"/>
        <pt x="421" y="37" on="0"/>
        <pt x="571" y="175" on="0"/>
        <pt x="598" y="289" on="1"/>
        <pt x="686" y="670" on="1"/>
      </contour>
    </TTGlyph>
    <TTGlyph name="Umacron" xMin="98" yMin="-11" xMax="737" yMax="810">
      <contour>
        <pt x="617" y="770" on="1"/>
        <pt x="350" y="770" on="1"/>
        <pt x="359" y="810" on="1"/>
        <pt x="626" y="810" on="1"/>
      </contour>
      <contour>
        <pt x="737" y="670" on="1"/>
        <pt x="649" y="289" on="1"/>
        <pt x="617" y="151" on="0"/>
        <pt x="441" y="-11" on="0"/>
        <pt x="315" y="-11" on="1"/>
        <pt x="192" y="-11" on="0"/>
        <pt x="67" y="156" on="0"/>
        <pt x="98" y="289" on="1"/>
        <pt x="186" y="670" on="1"/>
        <pt x="236" y="670" on="1"/>
        <pt x="148" y="289" on="1"/>
        <pt x="122" y="175" on="0"/>
        <pt x="217" y="37" on="0"/>
        <pt x="421" y="37" on="0"/>
        <pt x="571" y="175" on="0"/>
        <pt x="598" y="289" on="1"/>
        <pt x="686" y="670" on="1"/>
      </contour>
    </TTGlyph>
    <TTGlyph name="Uogonek" xMin="98" yMin="-196" xMax="737" yMax="670">
      <contour>
        <pt x="737" y="670" on="1"/>
        <pt x="649" y="289" on="1"/>
        <pt x="610" y="127" on="0"/>
        <pt x="501" y="48" on="1"/>
        <pt x="493" y="41" on="0"/>
        <pt x="479" y="29" on="1"/>
        <pt x="397" y="-42" on="0"/>
        <pt x="350" y="-92" on="0"/>
        <pt x="350" y="-116" on="1"/>
        <pt x="350" y="-136" on="0"/>
        <pt x="376" y="-158" on="0"/>
        <pt x="398" y="-158" on="1"/>
        <pt x="413" y="-158" on="0"/>
        <pt x="444" y="-147" on="1"/>
        <pt x="444" y="-182" on="1"/>
        <pt x="406" y="-196" on="0"/>
        <pt x="385" y="-196" on="1"/>
        <pt x="350" y="-196" on="0"/>
        <pt x="308" y="-158" on="0"/>
        <pt x="308" y="-126" on="1"/>
        <pt x="308" y="-95" on="0"/>
        <pt x="355" y="-38" on="0"/>
        <pt x="413" y="4" on="1"/>
        <pt x="368" y="-11" on="0"/>
        <pt x="315" y="-11" on="1"/>
        <pt x="192" y="-11" on="0"/>
        <pt x="67" y="156" on="0"/>
        <pt x="98" y="289" on="1"/>
        <pt x="186" y="670" on="1"/>
        <pt x="236" y="670" on="1"/>
        <pt x="148" y="289" on="1"/>
        <pt x="122" y="175" on="0"/>
        <pt x="217" y="37" on="0"/>
        <pt x="421" y="37" on="0"/>
        <pt x="571" y="175" on="0"/>
        <pt x="598" y="289" on="1"/>
        <pt x="686" y="670" on="1"/>
      </contour>
    </TTGlyph>
    <TTGlyph name="Uring" xMin="98" yMin="-11" xMax="737" yMax="919">
      <contour>
        <pt x="487" y="733" on="1"/>
        <pt x="449" y="733" on="0"/>
        <pt x="399" y="783" on="0"/>
        <pt x="399" y="819" on="1"/>
        <pt x="399" y="860" on="0"/>
        <pt x="461" y="919" on="0"/>
        <pt x="503" y="919" on="1"/>
        <pt x="541" y="919" on="0"/>
        <pt x="591" y="868" on="0"/>
        <pt x="591" y="832" on="1"/>
        <pt x="591" y="792" on="0"/>
        <pt x="529" y="733" on="0"/>
      </contour>
      <contour>
        <pt x="500" y="887" on="1"/>
        <pt x="472" y="887" on="0"/>
        <pt x="433" y="848" on="0"/>
        <pt x="433" y="821" on="1"/>
        <pt x="433" y="798" on="0"/>
        <pt x="465" y="765" on="0"/>
        <pt x="490" y="765" on="1"/>
        <pt x="518" y="765" on="0"/>
        <pt x="558" y="805" on="0"/>
        <pt x="558" y="831" on="1"/>
        <pt x="558" y="854" on="0"/>
        <pt x="525" y="887" on="0"/>
      </contour>
      <contour>
        <pt x="737" y="670" on="1"/>
        <pt x="649" y="289" on="1"/>
        <pt x="617" y="151" on="0"/>
        <pt x="441" y="-11" on="0"/>
        <pt x="315" y="-11" on="1"/>
        <pt x="192" y="-11" on="0"/>
        <pt x="67" y="156" on="0"/>
        <pt x="98" y="289" on="1"/>
        <pt x="186" y="670" on="1"/>
        <pt x="236" y="670" on="1"/>
        <pt x="148" y="289" on="1"/>
        <pt x="122" y="175" on="0"/>
        <pt x="217" y="37" on="0"/>
        <pt x="421" y="37" on="0"/>
        <pt x="571" y="175" on="0"/>
        <pt x="598" y="289" on="1"/>
        <pt x="686" y="670" on="1"/>
      </contour>
    </TTGlyph>
    <TTGlyph name="V" xMin="120" yMin="0" xMax="754" yMax="670">
      <contour>
        <pt x="754" y="670" on="1"/>
        <pt x="306" y="0" on="1"/>
        <pt x="258" y="0" on="1"/>
        <pt x="120" y="670" on="1"/>
        <pt x="171" y="670" on="1"/>
        <pt x="294" y="70" on="1"/>
        <pt x="695" y="670" on="1"/>
      </contour>
    </TTGlyph>
    <TTGlyph name="W" xMin="120" yMin="0" xMax="1026" yMax="670">
      <contour>
        <pt x="1026" y="670" on="1"/>
        <pt x="660" y="0" on="1"/>
        <pt x="608" y="0" on="1"/>
        <pt x="553" y="590" on="1"/>
        <pt x="229" y="0" on="1"/>
        <pt x="176" y="0" on="1"/>
        <pt x="120" y="670" on="1"/>
        <pt x="170" y="670" on="1"/>
        <pt x="219" y="78" on="1"/>
        <pt x="545" y="670" on="1"/>
        <pt x="596" y="670" on="1"/>
        <pt x="649" y="78" on="1"/>
        <pt x="972" y="670" on="1"/>
      </contour>
    </TTGlyph>
    <TTGlyph name="Wacute" xMin="120" yMin="0" xMax="1026" yMax="886">
      <contour>
        <pt x="621" y="748" on="1"/>
        <pt x="574" y="748" on="1"/>
        <pt x="692" y="886" on="1"/>
        <pt x="755" y="886" on="1"/>
      </contour>
      <contour>
        <pt x="1026" y="670" on="1"/>
        <pt x="660" y="0" on="1"/>
        <pt x="608" y="0" on="1"/>
        <pt x="553" y="590" on="1"/>
        <pt x="229" y="0" on="1"/>
        <pt x="176" y="0" on="1"/>
        <pt x="120" y="670" on="1"/>
        <pt x="170" y="670" on="1"/>
        <pt x="219" y="78" on="1"/>
        <pt x="545" y="670" on="1"/>
        <pt x="596" y="670" on="1"/>
        <pt x="649" y="78" on="1"/>
        <pt x="972" y="670" on="1"/>
      </contour>
    </TTGlyph>
    <TTGlyph name="Wcircumflex" xMin="120" yMin="0" xMax="1026" yMax="879">
      <contour>
        <pt x="510" y="741" on="1"/>
        <pt x="455" y="741" on="1"/>
        <pt x="606" y="879" on="1"/>
        <pt x="652" y="879" on="1"/>
        <pt x="739" y="741" on="1"/>
        <pt x="690" y="741" on="1"/>
        <pt x="625" y="846" on="1"/>
      </contour>
      <contour>
        <pt x="1026" y="670" on="1"/>
        <pt x="660" y="0" on="1"/>
        <pt x="608" y="0" on="1"/>
        <pt x="553" y="590" on="1"/>
        <pt x="229" y="0" on="1"/>
        <pt x="176" y="0" on="1"/>
        <pt x="120" y="670" on="1"/>
        <pt x="170" y="670" on="1"/>
        <pt x="219" y="78" on="1"/>
        <pt x="545" y="670" on="1"/>
        <pt x="596" y="670" on="1"/>
        <pt x="649" y="78" on="1"/>
        <pt x="972" y="670" on="1"/>
      </contour>
    </TTGlyph>
    <TTGlyph name="Wdieresis" xMin="120" yMin="0" xMax="1026" yMax="841">
      <contour>
        <pt x="526" y="766" on="0"/>
        <pt x="492" y="766" on="0"/>
        <pt x="471" y="787" on="0"/>
        <pt x="471" y="803" on="1"/>
        <pt x="471" y="818" on="0"/>
        <pt x="493" y="841" on="0"/>
        <pt x="525" y="841" on="0"/>
        <pt x="548" y="818" on="0"/>
        <pt x="548" y="803" on="1"/>
        <pt x="548" y="787" on="0"/>
      </contour>
      <contour>
        <pt x="715" y="766" on="0"/>
        <pt x="681" y="766" on="0"/>
        <pt x="660" y="787" on="0"/>
        <pt x="660" y="803" on="1"/>
        <pt x="660" y="818" on="0"/>
        <pt x="682" y="841" on="0"/>
        <pt x="714" y="841" on="0"/>
        <pt x="737" y="818" on="0"/>
        <pt x="737" y="803" on="1"/>
        <pt x="737" y="787" on="0"/>
      </contour>
      <contour>
        <pt x="1026" y="670" on="1"/>
        <pt x="660" y="0" on="1"/>
        <pt x="608" y="0" on="1"/>
        <pt x="553" y="590" on="1"/>
        <pt x="229" y="0" on="1"/>
        <pt x="176" y="0" on="1"/>
        <pt x="120" y="670" on="1"/>
        <pt x="170" y="670" on="1"/>
        <pt x="219" y="78" on="1"/>
        <pt x="545" y="670" on="1"/>
        <pt x="596" y="670" on="1"/>
        <pt x="649" y="78" on="1"/>
        <pt x="972" y="670" on="1"/>
      </contour>
    </TTGlyph>
    <TTGlyph name="Wgrave" xMin="120" yMin="0" xMax="1026" yMax="886">
      <contour>
        <pt x="565" y="748" on="1"/>
        <pt x="431" y="886" on="1"/>
        <pt x="494" y="886" on="1"/>
        <pt x="612" y="748" on="1"/>
      </contour>
      <contour>
        <pt x="1026" y="670" on="1"/>
        <pt x="660" y="0" on="1"/>
        <pt x="608" y="0" on="1"/>
        <pt x="553" y="590" on="1"/>
        <pt x="229" y="0" on="1"/>
        <pt x="176" y="0" on="1"/>
        <pt x="120" y="670" on="1"/>
        <pt x="170" y="670" on="1"/>
        <pt x="219" y="78" on="1"/>
        <pt x="545" y="670" on="1"/>
        <pt x="596" y="670" on="1"/>
        <pt x="649" y="78" on="1"/>
        <pt x="972" y="670" on="1"/>
      </contour>
    </TTGlyph>
    <TTGlyph name="X" xMin="-47" yMin="0" xMax="676" yMax="670">
      <contour>
        <pt x="349" y="334" on="1"/>
        <pt x="525" y="0" on="1"/>
        <pt x="468" y="0" on="1"/>
        <pt x="312" y="299" on="1"/>
        <pt x="20" y="0" on="1"/>
        <pt x="-47" y="0" on="1"/>
        <pt x="284" y="337" on="1"/>
        <pt x="115" y="670" on="1"/>
        <pt x="172" y="670" on="1"/>
        <pt x="322" y="374" on="1"/>
        <pt x="609" y="670" on="1"/>
        <pt x="676" y="670" on="1"/>
        <pt x="352" y="337" on="1"/>
      </contour>
    </TTGlyph>
    <TTGlyph name="Y" xMin="120" yMin="0" xMax="738" yMax="670">
      <contour>
        <pt x="355" y="245" on="1"/>
        <pt x="298" y="0" on="1"/>
        <pt x="248" y="0" on="1"/>
        <pt x="304" y="243" on="1"/>
        <pt x="120" y="670" on="1"/>
        <pt x="173" y="670" on="1"/>
        <pt x="337" y="293" on="1"/>
        <pt x="675" y="670" on="1"/>
        <pt x="738" y="670" on="1"/>
      </contour>
    </TTGlyph>
    <TTGlyph name="Yacute" xMin="120" yMin="0" xMax="738" yMax="886">
      <contour>
        <pt x="469" y="748" on="1"/>
        <pt x="422" y="748" on="1"/>
        <pt x="540" y="886" on="1"/>
        <pt x="603" y="886" on="1"/>
      </contour>
      <contour>
        <pt x="355" y="245" on="1"/>
        <pt x="298" y="0" on="1"/>
        <pt x="248" y="0" on="1"/>
        <pt x="304" y="243" on="1"/>
        <pt x="120" y="670" on="1"/>
        <pt x="173" y="670" on="1"/>
        <pt x="337" y="293" on="1"/>
        <pt x="675" y="670" on="1"/>
        <pt x="738" y="670" on="1"/>
      </contour>
    </TTGlyph>
    <TTGlyph name="Ycircumflex" xMin="120" yMin="0" xMax="738" yMax="879">
      <contour>
        <pt x="358" y="741" on="1"/>
        <pt x="303" y="741" on="1"/>
        <pt x="454" y="879" on="1"/>
        <pt x="500" y="879" on="1"/>
        <pt x="587" y="741" on="1"/>
        <pt x="538" y="741" on="1"/>
        <pt x="473" y="846" on="1"/>
      </contour>
      <contour>
        <pt x="355" y="245" on="1"/>
        <pt x="298" y="0" on="1"/>
        <pt x="248" y="0" on="1"/>
        <pt x="304" y="243" on="1"/>
        <pt x="120" y="670" on="1"/>
        <pt x="173" y="670" on="1"/>
        <pt x="337" y="293" on="1"/>
        <pt x="675" y="670" on="1"/>
        <pt x="738" y="670" on="1"/>
      </contour>
    </TTGlyph>
    <TTGlyph name="Ydieresis" xMin="120" yMin="0" xMax="738" yMax="841">
      <contour>
        <pt x="374" y="766" on="0"/>
        <pt x="340" y="766" on="0"/>
        <pt x="319" y="787" on="0"/>
        <pt x="319" y="803" on="1"/>
        <pt x="319" y="818" on="0"/>
        <pt x="341" y="841" on="0"/>
        <pt x="373" y="841" on="0"/>
        <pt x="396" y="818" on="0"/>
        <pt x="396" y="803" on="1"/>
        <pt x="396" y="787" on="0"/>
      </contour>
      <contour>
        <pt x="563" y="766" on="0"/>
        <pt x="529" y="766" on="0"/>
        <pt x="508" y="787" on="0"/>
        <pt x="508" y="803" on="1"/>
        <pt x="508" y="818" on="0"/>
        <pt x="530" y="841" on="0"/>
        <pt x="562" y="841" on="0"/>
        <pt x="585" y="818" on="0"/>
        <pt x="585" y="803" on="1"/>
        <pt x="585" y="787" on="0"/>
      </contour>
      <contour>
        <pt x="355" y="245" on="1"/>
        <pt x="298" y="0" on="1"/>
        <pt x="248" y="0" on="1"/>
        <pt x="304" y="243" on="1"/>
        <pt x="120" y="670" on="1"/>
        <pt x="173" y="670" on="1"/>
        <pt x="337" y="293" on="1"/>
        <pt x="675" y="670" on="1"/>
        <pt x="738" y="670" on="1"/>
      </contour>
    </TTGlyph>
    <TTGlyph name="Ygrave" xMin="120" yMin="0" xMax="738" yMax="886">
      <contour>
        <pt x="413" y="748" on="1"/>
        <pt x="279" y="886" on="1"/>
        <pt x="342" y="886" on="1"/>
        <pt x="460" y="748" on="1"/>
      </contour>
      <contour>
        <pt x="355" y="245" on="1"/>
        <pt x="298" y="0" on="1"/>
        <pt x="248" y="0" on="1"/>
        <pt x="304" y="243" on="1"/>
        <pt x="120" y="670" on="1"/>
        <pt x="173" y="670" on="1"/>
        <pt x="337" y="293" on="1"/>
        <pt x="675" y="670" on="1"/>
        <pt x="738" y="670" on="1"/>
      </contour>
    </TTGlyph>
    <TTGlyph name="Z" xMin="8" yMin="0" xMax="666" yMax="670">
      <contour>
        <pt x="658" y="635" on="1"/>
        <pt x="92" y="44" on="1"/>
        <pt x="524" y="44" on="1"/>
        <pt x="514" y="0" on="1"/>
        <pt x="8" y="0" on="1"/>
        <pt x="15" y="32" on="1"/>
        <pt x="587" y="626" on="1"/>
        <pt x="166" y="626" on="1"/>
        <pt x="175" y="670" on="1"/>
        <pt x="666" y="670" on="1"/>
      </contour>
    </TTGlyph>
    <TTGlyph name="Zacute" xMin="8" yMin="0" xMax="666" yMax="886">
      <contour>
        <pt x="468" y="748" on="1"/>
        <pt x="421" y="748" on="1"/>
        <pt x="539" y="886" on="1"/>
        <pt x="602" y="886" on="1"/>
      </contour>
      <contour>
        <pt x="658" y="635" on="1"/>
        <pt x="92" y="44" on="1"/>
        <pt x="524" y="44" on="1"/>
        <pt x="514" y="0" on="1"/>
        <pt x="8" y="0" on="1"/>
        <pt x="15" y="32" on="1"/>
        <pt x="587" y="626" on="1"/>
        <pt x="166" y="626" on="1"/>
        <pt x="175" y="670" on="1"/>
        <pt x="666" y="670" on="1"/>
      </contour>
    </TTGlyph>
    <TTGlyph name="Zcaron" xMin="8" yMin="0" xMax="666" yMax="881">
      <contour>
        <pt x="414" y="742" on="1"/>
        <pt x="328" y="881" on="1"/>
        <pt x="376" y="881" on="1"/>
        <pt x="441" y="775" on="1"/>
        <pt x="556" y="881" on="1"/>
        <pt x="611" y="881" on="1"/>
        <pt x="460" y="742" on="1"/>
      </contour>
      <contour>
        <pt x="658" y="635" on="1"/>
        <pt x="92" y="44" on="1"/>
        <pt x="524" y="44" on="1"/>
        <pt x="514" y="0" on="1"/>
        <pt x="8" y="0" on="1"/>
        <pt x="15" y="32" on="1"/>
        <pt x="587" y="626" on="1"/>
        <pt x="166" y="626" on="1"/>
        <pt x="175" y="670" on="1"/>
        <pt x="666" y="670" on="1"/>
      </contour>
    </TTGlyph>
    <TTGlyph name="Zdotaccent" xMin="8" yMin="0" xMax="666" yMax="846">
      <contour>
        <pt x="449" y="772" on="1"/>
        <pt x="433" y="772" on="0"/>
        <pt x="411" y="793" on="0"/>
        <pt x="411" y="809" on="1"/>
        <pt x="411" y="824" on="0"/>
        <pt x="433" y="846" on="0"/>
        <pt x="465" y="846" on="0"/>
        <pt x="488" y="824" on="0"/>
        <pt x="488" y="809" on="1"/>
        <pt x="488" y="793" on="0"/>
        <pt x="466" y="772" on="0"/>
      </contour>
      <contour>
        <pt x="658" y="635" on="1"/>
        <pt x="92" y="44" on="1"/>
        <pt x="524" y="44" on="1"/>
        <pt x="514" y="0" on="1"/>
        <pt x="8" y="0" on="1"/>
        <pt x="15" y="32" on="1"/>
        <pt x="587" y="626" on="1"/>
        <pt x="166" y="626" on="1"/>
        <pt x="175" y="670" on="1"/>
        <pt x="666" y="670" on="1"/>
      </contour>
    </TTGlyph>
    <TTGlyph name="a" xMin="50" yMin="-11" xMax="614" yMax="501">
      <contour>
        <pt x="614" y="489" on="1"/>
        <pt x="501" y="0" on="1"/>
        <pt x="452" y="0" on="1"/>
        <pt x="474" y="96" on="1"/>
        <pt x="434" y="46" on="0"/>
        <pt x="319" y="-11" on="0"/>
        <pt x="256" y="-11" on="1"/>
        <pt x="153" y="-11" on="0"/>
        <pt x="32" y="132" on="0"/>
        <pt x="50" y="246" on="1"/>
        <pt x="68" y="361" on="0"/>
        <pt x="231" y="501" on="0"/>
        <pt x="336" y="501" on="1"/>
        <pt x="412" y="501" on="0"/>
        <pt x="517" y="426" on="0"/>
        <pt x="535" y="359" on="1"/>
        <pt x="565" y="489" on="1"/>
      </contour>
      <contour>
        <pt x="267" y="33" on="1"/>
        <pt x="350" y="33" on="0"/>
        <pt x="493" y="152" on="0"/>
        <pt x="508" y="246" on="1"/>
        <pt x="522" y="340" on="0"/>
        <pt x="419" y="457" on="0"/>
        <pt x="336" y="457" on="1"/>
        <pt x="249" y="457" on="0"/>
        <pt x="112" y="341" on="0"/>
        <pt x="82" y="151" on="0"/>
        <pt x="181" y="33" on="0"/>
      </contour>
    </TTGlyph>
    <TTGlyph name="a.ss01" xMin="22" yMin="-11" xMax="492" yMax="501">
      <contour>
        <pt x="321" y="501" on="1"/>
        <pt x="414" y="501" on="0"/>
        <pt x="512" y="398" on="0"/>
        <pt x="492" y="310" on="1"/>
        <pt x="421" y="0" on="1"/>
        <pt x="374" y="0" on="1"/>
        <pt x="394" y="89" on="1"/>
        <pt x="313" y="-11" on="0"/>
        <pt x="184" y="-11" on="1"/>
        <pt x="110" y="-11" on="0"/>
        <pt x="22" y="57" on="0"/>
        <pt x="22" y="115" on="1"/>
        <pt x="22" y="185" on="0"/>
        <pt x="145" y="284" on="0"/>
        <pt x="247" y="284" on="1"/>
        <pt x="439" y="284" on="1"/>
        <pt x="446" y="314" on="1"/>
        <pt x="461" y="380" on="0"/>
        <pt x="388" y="458" on="0"/>
        <pt x="318" y="458" on="1"/>
        <pt x="256" y="458" on="0"/>
        <pt x="154" y="395" on="0"/>
        <pt x="133" y="344" on="1"/>
        <pt x="89" y="358" on="1"/>
        <pt x="115" y="421" on="0"/>
        <pt x="243" y="501" on="0"/>
      </contour>
      <contour>
        <pt x="421" y="205" on="1"/>
        <pt x="430" y="244" on="1"/>
        <pt x="239" y="244" on="1"/>
        <pt x="163" y="244" on="0"/>
        <pt x="71" y="172" on="0"/>
        <pt x="71" y="122" on="1"/>
        <pt x="71" y="79" on="0"/>
        <pt x="140" y="30" on="0"/>
        <pt x="197" y="30" on="1"/>
        <pt x="279" y="30" on="0"/>
        <pt x="403" y="130" on="0"/>
      </contour>
    </TTGlyph>
    <TTGlyph name="aacute" xMin="50" yMin="-11" xMax="614" yMax="705">
      <contour>
        <pt x="420" y="567" on="1"/>
        <pt x="373" y="567" on="1"/>
        <pt x="491" y="705" on="1"/>
        <pt x="554" y="705" on="1"/>
      </contour>
      <contour>
        <pt x="614" y="489" on="1"/>
        <pt x="501" y="0" on="1"/>
        <pt x="452" y="0" on="1"/>
        <pt x="474" y="96" on="1"/>
        <pt x="434" y="46" on="0"/>
        <pt x="319" y="-11" on="0"/>
        <pt x="256" y="-11" on="1"/>
        <pt x="153" y="-11" on="0"/>
        <pt x="32" y="132" on="0"/>
        <pt x="50" y="246" on="1"/>
        <pt x="68" y="361" on="0"/>
        <pt x="231" y="501" on="0"/>
        <pt x="336" y="501" on="1"/>
        <pt x="412" y="501" on="0"/>
        <pt x="517" y="426" on="0"/>
        <pt x="535" y="359" on="1"/>
        <pt x="565" y="489" on="1"/>
      </contour>
      <contour>
        <pt x="267" y="33" on="1"/>
        <pt x="350" y="33" on="0"/>
        <pt x="493" y="152" on="0"/>
        <pt x="508" y="246" on="1"/>
        <pt x="522" y="340" on="0"/>
        <pt x="419" y="457" on="0"/>
        <pt x="336" y="457" on="1"/>
        <pt x="249" y="457" on="0"/>
        <pt x="112" y="341" on="0"/>
        <pt x="82" y="151" on="0"/>
        <pt x="181" y="33" on="0"/>
      </contour>
    </TTGlyph>
    <TTGlyph name="aacute.ss01" xMin="22" yMin="-11" xMax="518" yMax="705">
      <contour>
        <pt x="384" y="567" on="1"/>
        <pt x="337" y="567" on="1"/>
        <pt x="455" y="705" on="1"/>
        <pt x="518" y="705" on="1"/>
      </contour>
      <contour>
        <pt x="321" y="501" on="1"/>
        <pt x="414" y="501" on="0"/>
        <pt x="512" y="398" on="0"/>
        <pt x="492" y="310" on="1"/>
        <pt x="421" y="0" on="1"/>
        <pt x="374" y="0" on="1"/>
        <pt x="394" y="89" on="1"/>
        <pt x="313" y="-11" on="0"/>
        <pt x="184" y="-11" on="1"/>
        <pt x="110" y="-11" on="0"/>
        <pt x="22" y="57" on="0"/>
        <pt x="22" y="115" on="1"/>
        <pt x="22" y="185" on="0"/>
        <pt x="145" y="284" on="0"/>
        <pt x="247" y="284" on="1"/>
        <pt x="439" y="284" on="1"/>
        <pt x="446" y="314" on="1"/>
        <pt x="461" y="380" on="0"/>
        <pt x="388" y="458" on="0"/>
        <pt x="318" y="458" on="1"/>
        <pt x="256" y="458" on="0"/>
        <pt x="154" y="395" on="0"/>
        <pt x="133" y="344" on="1"/>
        <pt x="89" y="358" on="1"/>
        <pt x="115" y="421" on="0"/>
        <pt x="243" y="501" on="0"/>
      </contour>
      <contour>
        <pt x="421" y="205" on="1"/>
        <pt x="430" y="244" on="1"/>
        <pt x="239" y="244" on="1"/>
        <pt x="163" y="244" on="0"/>
        <pt x="71" y="172" on="0"/>
        <pt x="71" y="122" on="1"/>
        <pt x="71" y="79" on="0"/>
        <pt x="140" y="30" on="0"/>
        <pt x="197" y="30" on="1"/>
        <pt x="279" y="30" on="0"/>
        <pt x="403" y="130" on="0"/>
      </contour>
    </TTGlyph>
    <TTGlyph name="abreve" xMin="50" yMin="-11" xMax="614" yMax="684">
      <contour>
        <pt x="394" y="558" on="1"/>
        <pt x="334" y="558" on="0"/>
        <pt x="272" y="627" on="0"/>
        <pt x="283" y="684" on="1"/>
        <pt x="322" y="684" on="1"/>
        <pt x="315" y="644" on="0"/>
        <pt x="359" y="594" on="0"/>
        <pt x="437" y="594" on="0"/>
        <pt x="499" y="644" on="0"/>
        <pt x="506" y="684" on="1"/>
        <pt x="551" y="684" on="1"/>
        <pt x="540" y="627" on="0"/>
        <pt x="453" y="558" on="0"/>
      </contour>
      <contour>
        <pt x="614" y="489" on="1"/>
        <pt x="501" y="0" on="1"/>
        <pt x="452" y="0" on="1"/>
        <pt x="474" y="96" on="1"/>
        <pt x="434" y="46" on="0"/>
        <pt x="319" y="-11" on="0"/>
        <pt x="256" y="-11" on="1"/>
        <pt x="153" y="-11" on="0"/>
        <pt x="32" y="132" on="0"/>
        <pt x="50" y="246" on="1"/>
        <pt x="68" y="361" on="0"/>
        <pt x="231" y="501" on="0"/>
        <pt x="336" y="501" on="1"/>
        <pt x="412" y="501" on="0"/>
        <pt x="517" y="426" on="0"/>
        <pt x="535" y="359" on="1"/>
        <pt x="565" y="489" on="1"/>
      </contour>
      <contour>
        <pt x="267" y="33" on="1"/>
        <pt x="350" y="33" on="0"/>
        <pt x="493" y="152" on="0"/>
        <pt x="508" y="246" on="1"/>
        <pt x="522" y="340" on="0"/>
        <pt x="419" y="457" on="0"/>
        <pt x="336" y="457" on="1"/>
        <pt x="249" y="457" on="0"/>
        <pt x="112" y="341" on="0"/>
        <pt x="82" y="151" on="0"/>
        <pt x="181" y="33" on="0"/>
      </contour>
    </TTGlyph>
    <TTGlyph name="abreve.ss01" xMin="22" yMin="-11" xMax="515" yMax="684">
      <contour>
        <pt x="358" y="558" on="1"/>
        <pt x="298" y="558" on="0"/>
        <pt x="236" y="627" on="0"/>
        <pt x="247" y="684" on="1"/>
        <pt x="286" y="684" on="1"/>
        <pt x="279" y="644" on="0"/>
        <pt x="323" y="594" on="0"/>
        <pt x="401" y="594" on="0"/>
        <pt x="463" y="644" on="0"/>
        <pt x="470" y="684" on="1"/>
        <pt x="515" y="684" on="1"/>
        <pt x="504" y="627" on="0"/>
        <pt x="417" y="558" on="0"/>
      </contour>
      <contour>
        <pt x="321" y="501" on="1"/>
        <pt x="414" y="501" on="0"/>
        <pt x="512" y="398" on="0"/>
        <pt x="492" y="310" on="1"/>
        <pt x="421" y="0" on="1"/>
        <pt x="374" y="0" on="1"/>
        <pt x="394" y="89" on="1"/>
        <pt x="313" y="-11" on="0"/>
        <pt x="184" y="-11" on="1"/>
        <pt x="110" y="-11" on="0"/>
        <pt x="22" y="57" on="0"/>
        <pt x="22" y="115" on="1"/>
        <pt x="22" y="185" on="0"/>
        <pt x="145" y="284" on="0"/>
        <pt x="247" y="284" on="1"/>
        <pt x="439" y="284" on="1"/>
        <pt x="446" y="314" on="1"/>
        <pt x="461" y="380" on="0"/>
        <pt x="388" y="458" on="0"/>
        <pt x="318" y="458" on="1"/>
        <pt x="256" y="458" on="0"/>
        <pt x="154" y="395" on="0"/>
        <pt x="133" y="344" on="1"/>
        <pt x="89" y="358" on="1"/>
        <pt x="115" y="421" on="0"/>
        <pt x="243" y="501" on="0"/>
      </contour>
      <contour>
        <pt x="421" y="205" on="1"/>
        <pt x="430" y="244" on="1"/>
        <pt x="239" y="244" on="1"/>
        <pt x="163" y="244" on="0"/>
        <pt x="71" y="172" on="0"/>
        <pt x="71" y="122" on="1"/>
        <pt x="71" y="79" on="0"/>
        <pt x="140" y="30" on="0"/>
        <pt x="197" y="30" on="1"/>
        <pt x="279" y="30" on="0"/>
        <pt x="403" y="130" on="0"/>
      </contour>
    </TTGlyph>
    <TTGlyph name="acircumflex" xMin="50" yMin="-11" xMax="614" yMax="698">
      <contour>
        <pt x="309" y="560" on="1"/>
        <pt x="254" y="560" on="1"/>
        <pt x="405" y="698" on="1"/>
        <pt x="451" y="698" on="1"/>
        <pt x="538" y="560" on="1"/>
        <pt x="489" y="560" on="1"/>
        <pt x="424" y="665" on="1"/>
      </contour>
      <contour>
        <pt x="614" y="489" on="1"/>
        <pt x="501" y="0" on="1"/>
        <pt x="452" y="0" on="1"/>
        <pt x="474" y="96" on="1"/>
        <pt x="434" y="46" on="0"/>
        <pt x="319" y="-11" on="0"/>
        <pt x="256" y="-11" on="1"/>
        <pt x="153" y="-11" on="0"/>
        <pt x="32" y="132" on="0"/>
        <pt x="50" y="246" on="1"/>
        <pt x="68" y="361" on="0"/>
        <pt x="231" y="501" on="0"/>
        <pt x="336" y="501" on="1"/>
        <pt x="412" y="501" on="0"/>
        <pt x="517" y="426" on="0"/>
        <pt x="535" y="359" on="1"/>
        <pt x="565" y="489" on="1"/>
      </contour>
      <contour>
        <pt x="267" y="33" on="1"/>
        <pt x="350" y="33" on="0"/>
        <pt x="493" y="152" on="0"/>
        <pt x="508" y="246" on="1"/>
        <pt x="522" y="340" on="0"/>
        <pt x="419" y="457" on="0"/>
        <pt x="336" y="457" on="1"/>
        <pt x="249" y="457" on="0"/>
        <pt x="112" y="341" on="0"/>
        <pt x="82" y="151" on="0"/>
        <pt x="181" y="33" on="0"/>
      </contour>
    </TTGlyph>
    <TTGlyph name="acircumflex.ss01" xMin="22" yMin="-11" xMax="502" yMax="698">
      <contour>
        <pt x="273" y="560" on="1"/>
        <pt x="218" y="560" on="1"/>
        <pt x="369" y="698" on="1"/>
        <pt x="415" y="698" on="1"/>
        <pt x="502" y="560" on="1"/>
        <pt x="453" y="560" on="1"/>
        <pt x="388" y="665" on="1"/>
      </contour>
      <contour>
        <pt x="321" y="501" on="1"/>
        <pt x="414" y="501" on="0"/>
        <pt x="512" y="398" on="0"/>
        <pt x="492" y="310" on="1"/>
        <pt x="421" y="0" on="1"/>
        <pt x="374" y="0" on="1"/>
        <pt x="394" y="89" on="1"/>
        <pt x="313" y="-11" on="0"/>
        <pt x="184" y="-11" on="1"/>
        <pt x="110" y="-11" on="0"/>
        <pt x="22" y="57" on="0"/>
        <pt x="22" y="115" on="1"/>
        <pt x="22" y="185" on="0"/>
        <pt x="145" y="284" on="0"/>
        <pt x="247" y="284" on="1"/>
        <pt x="439" y="284" on="1"/>
        <pt x="446" y="314" on="1"/>
        <pt x="461" y="380" on="0"/>
        <pt x="388" y="458" on="0"/>
        <pt x="318" y="458" on="1"/>
        <pt x="256" y="458" on="0"/>
        <pt x="154" y="395" on="0"/>
        <pt x="133" y="344" on="1"/>
        <pt x="89" y="358" on="1"/>
        <pt x="115" y="421" on="0"/>
        <pt x="243" y="501" on="0"/>
      </contour>
      <contour>
        <pt x="421" y="205" on="1"/>
        <pt x="430" y="244" on="1"/>
        <pt x="239" y="244" on="1"/>
        <pt x="163" y="244" on="0"/>
        <pt x="71" y="172" on="0"/>
        <pt x="71" y="122" on="1"/>
        <pt x="71" y="79" on="0"/>
        <pt x="140" y="30" on="0"/>
        <pt x="197" y="30" on="1"/>
        <pt x="279" y="30" on="0"/>
        <pt x="403" y="130" on="0"/>
      </contour>
    </TTGlyph>
    <TTGlyph name="acute" xMin="326" yMin="567" xMax="507" yMax="705">
      <contour>
        <pt x="373" y="567" on="1"/>
        <pt x="326" y="567" on="1"/>
        <pt x="444" y="705" on="1"/>
        <pt x="507" y="705" on="1"/>
      </contour>
    </TTGlyph>
    <TTGlyph name="adieresis" xMin="50" yMin="-11" xMax="614" yMax="660">
      <contour>
        <pt x="325" y="585" on="0"/>
        <pt x="291" y="585" on="0"/>
        <pt x="270" y="606" on="0"/>
        <pt x="270" y="622" on="1"/>
        <pt x="270" y="637" on="0"/>
        <pt x="292" y="660" on="0"/>
        <pt x="324" y="660" on="0"/>
        <pt x="347" y="637" on="0"/>
        <pt x="347" y="622" on="1"/>
        <pt x="347" y="606" on="0"/>
      </contour>
      <contour>
        <pt x="514" y="585" on="0"/>
        <pt x="480" y="585" on="0"/>
        <pt x="459" y="606" on="0"/>
        <pt x="459" y="622" on="1"/>
        <pt x="459" y="637" on="0"/>
        <pt x="481" y="660" on="0"/>
        <pt x="513" y="660" on="0"/>
        <pt x="536" y="637" on="0"/>
        <pt x="536" y="622" on="1"/>
        <pt x="536" y="606" on="0"/>
      </contour>
      <contour>
        <pt x="614" y="489" on="1"/>
        <pt x="501" y="0" on="1"/>
        <pt x="452" y="0" on="1"/>
        <pt x="474" y="96" on="1"/>
        <pt x="434" y="46" on="0"/>
        <pt x="319" y="-11" on="0"/>
        <pt x="256" y="-11" on="1"/>
        <pt x="153" y="-11" on="0"/>
        <pt x="32" y="132" on="0"/>
        <pt x="50" y="246" on="1"/>
        <pt x="68" y="361" on="0"/>
        <pt x="231" y="501" on="0"/>
        <pt x="336" y="501" on="1"/>
        <pt x="412" y="501" on="0"/>
        <pt x="517" y="426" on="0"/>
        <pt x="535" y="359" on="1"/>
        <pt x="565" y="489" on="1"/>
      </contour>
      <contour>
        <pt x="267" y="33" on="1"/>
        <pt x="350" y="33" on="0"/>
        <pt x="493" y="152" on="0"/>
        <pt x="508" y="246" on="1"/>
        <pt x="522" y="340" on="0"/>
        <pt x="419" y="457" on="0"/>
        <pt x="336" y="457" on="1"/>
        <pt x="249" y="457" on="0"/>
        <pt x="112" y="341" on="0"/>
        <pt x="82" y="151" on="0"/>
        <pt x="181" y="33" on="0"/>
      </contour>
    </TTGlyph>
    <TTGlyph name="adieresis.ss01" xMin="22" yMin="-11" xMax="500" yMax="660">
      <contour>
        <pt x="289" y="585" on="0"/>
        <pt x="255" y="585" on="0"/>
        <pt x="234" y="606" on="0"/>
        <pt x="234" y="622" on="1"/>
        <pt x="234" y="637" on="0"/>
        <pt x="256" y="660" on="0"/>
        <pt x="288" y="660" on="0"/>
        <pt x="311" y="637" on="0"/>
        <pt x="311" y="622" on="1"/>
        <pt x="311" y="606" on="0"/>
      </contour>
      <contour>
        <pt x="478" y="585" on="0"/>
        <pt x="444" y="585" on="0"/>
        <pt x="423" y="606" on="0"/>
        <pt x="423" y="622" on="1"/>
        <pt x="423" y="637" on="0"/>
        <pt x="445" y="660" on="0"/>
        <pt x="477" y="660" on="0"/>
        <pt x="500" y="637" on="0"/>
        <pt x="500" y="622" on="1"/>
        <pt x="500" y="606" on="0"/>
      </contour>
      <contour>
        <pt x="321" y="501" on="1"/>
        <pt x="414" y="501" on="0"/>
        <pt x="512" y="398" on="0"/>
        <pt x="492" y="310" on="1"/>
        <pt x="421" y="0" on="1"/>
        <pt x="374" y="0" on="1"/>
        <pt x="394" y="89" on="1"/>
        <pt x="313" y="-11" on="0"/>
        <pt x="184" y="-11" on="1"/>
        <pt x="110" y="-11" on="0"/>
        <pt x="22" y="57" on="0"/>
        <pt x="22" y="115" on="1"/>
        <pt x="22" y="185" on="0"/>
        <pt x="145" y="284" on="0"/>
        <pt x="247" y="284" on="1"/>
        <pt x="439" y="284" on="1"/>
        <pt x="446" y="314" on="1"/>
        <pt x="461" y="380" on="0"/>
        <pt x="388" y="458" on="0"/>
        <pt x="318" y="458" on="1"/>
        <pt x="256" y="458" on="0"/>
        <pt x="154" y="395" on="0"/>
        <pt x="133" y="344" on="1"/>
        <pt x="89" y="358" on="1"/>
        <pt x="115" y="421" on="0"/>
        <pt x="243" y="501" on="0"/>
      </contour>
      <contour>
        <pt x="421" y="205" on="1"/>
        <pt x="430" y="244" on="1"/>
        <pt x="239" y="244" on="1"/>
        <pt x="163" y="244" on="0"/>
        <pt x="71" y="172" on="0"/>
        <pt x="71" y="122" on="1"/>
        <pt x="71" y="79" on="0"/>
        <pt x="140" y="30" on="0"/>
        <pt x="197" y="30" on="1"/>
        <pt x="279" y="30" on="0"/>
        <pt x="403" y="130" on="0"/>
      </contour>
    </TTGlyph>
    <TTGlyph name="ae" xMin="28" yMin="-11" xMax="891" yMax="501">
      <contour>
        <pt x="703" y="501" on="1"/>
        <pt x="802" y="501" on="0"/>
        <pt x="906" y="359" on="0"/>
        <pt x="891" y="249" on="1"/>
        <pt x="888" y="231" on="1"/>
        <pt x="470" y="231" on="1"/>
        <pt x="459" y="139" on="0"/>
        <pt x="548" y="32" on="0"/>
        <pt x="631" y="32" on="1"/>
        <pt x="684" y="32" on="0"/>
        <pt x="795" y="99" on="0"/>
        <pt x="823" y="158" on="1"/>
        <pt x="865" y="147" on="1"/>
        <pt x="836" y="78" on="0"/>
        <pt x="696" y="-11" on="0"/>
        <pt x="623" y="-11" on="1"/>
        <pt x="470" y="-11" on="0"/>
        <pt x="434" y="131" on="1"/>
        <pt x="400" y="66" on="0"/>
        <pt x="270" y="-11" on="0"/>
        <pt x="194" y="-11" on="1"/>
        <pt x="113" y="-11" on="0"/>
        <pt x="28" y="57" on="0"/>
        <pt x="28" y="114" on="1"/>
        <pt x="28" y="185" on="0"/>
        <pt x="140" y="269" on="0"/>
        <pt x="233" y="269" on="1"/>
        <pt x="429" y="269" on="1"/>
        <pt x="438" y="321" on="1"/>
        <pt x="448" y="383" on="0"/>
        <pt x="381" y="458" on="0"/>
        <pt x="314" y="458" on="1"/>
        <pt x="249" y="458" on="0"/>
        <pt x="151" y="396" on="0"/>
        <pt x="134" y="344" on="1"/>
        <pt x="92" y="355" on="1"/>
        <pt x="110" y="420" on="0"/>
        <pt x="235" y="501" on="0"/>
        <pt x="319" y="501" on="1"/>
        <pt x="385" y="501" on="0"/>
        <pt x="472" y="437" on="0"/>
        <pt x="481" y="383" on="1"/>
        <pt x="563" y="501" on="0"/>
      </contour>
      <contour>
        <pt x="475" y="269" on="1"/>
        <pt x="844" y="269" on="1"/>
        <pt x="850" y="355" on="0"/>
        <pt x="774" y="458" on="0"/>
        <pt x="700" y="458" on="1"/>
        <pt x="619" y="458" on="0"/>
        <pt x="495" y="356" on="0"/>
      </contour>
      <contour>
        <pt x="424" y="231" on="1"/>
        <pt x="229" y="231" on="1"/>
        <pt x="159" y="231" on="0"/>
        <pt x="74" y="172" on="0"/>
        <pt x="74" y="120" on="1"/>
        <pt x="74" y="79" on="0"/>
        <pt x="140" y="30" on="0"/>
        <pt x="201" y="30" on="1"/>
        <pt x="281" y="30" on="0"/>
        <pt x="409" y="138" on="0"/>
        <pt x="422" y="222" on="1"/>
      </contour>
    </TTGlyph>
    <TTGlyph name="aeacute" xMin="28" yMin="-11" xMax="891" yMax="705">
      <contour>
        <pt x="564" y="567" on="1"/>
        <pt x="517" y="567" on="1"/>
        <pt x="635" y="705" on="1"/>
        <pt x="698" y="705" on="1"/>
      </contour>
      <contour>
        <pt x="703" y="501" on="1"/>
        <pt x="802" y="501" on="0"/>
        <pt x="906" y="359" on="0"/>
        <pt x="891" y="249" on="1"/>
        <pt x="888" y="231" on="1"/>
        <pt x="470" y="231" on="1"/>
        <pt x="459" y="139" on="0"/>
        <pt x="548" y="32" on="0"/>
        <pt x="631" y="32" on="1"/>
        <pt x="684" y="32" on="0"/>
        <pt x="795" y="99" on="0"/>
        <pt x="823" y="158" on="1"/>
        <pt x="865" y="147" on="1"/>
        <pt x="836" y="78" on="0"/>
        <pt x="696" y="-11" on="0"/>
        <pt x="623" y="-11" on="1"/>
        <pt x="470" y="-11" on="0"/>
        <pt x="434" y="131" on="1"/>
        <pt x="400" y="66" on="0"/>
        <pt x="270" y="-11" on="0"/>
        <pt x="194" y="-11" on="1"/>
        <pt x="113" y="-11" on="0"/>
        <pt x="28" y="57" on="0"/>
        <pt x="28" y="114" on="1"/>
        <pt x="28" y="185" on="0"/>
        <pt x="140" y="269" on="0"/>
        <pt x="233" y="269" on="1"/>
        <pt x="429" y="269" on="1"/>
        <pt x="438" y="321" on="1"/>
        <pt x="448" y="383" on="0"/>
        <pt x="381" y="458" on="0"/>
        <pt x="314" y="458" on="1"/>
        <pt x="249" y="458" on="0"/>
        <pt x="151" y="396" on="0"/>
        <pt x="134" y="344" on="1"/>
        <pt x="92" y="355" on="1"/>
        <pt x="110" y="420" on="0"/>
        <pt x="235" y="501" on="0"/>
        <pt x="319" y="501" on="1"/>
        <pt x="385" y="501" on="0"/>
        <pt x="472" y="437" on="0"/>
        <pt x="481" y="383" on="1"/>
        <pt x="563" y="501" on="0"/>
      </contour>
      <contour>
        <pt x="475" y="269" on="1"/>
        <pt x="844" y="269" on="1"/>
        <pt x="850" y="355" on="0"/>
        <pt x="774" y="458" on="0"/>
        <pt x="700" y="458" on="1"/>
        <pt x="619" y="458" on="0"/>
        <pt x="495" y="356" on="0"/>
      </contour>
      <contour>
        <pt x="424" y="231" on="1"/>
        <pt x="229" y="231" on="1"/>
        <pt x="159" y="231" on="0"/>
        <pt x="74" y="172" on="0"/>
        <pt x="74" y="120" on="1"/>
        <pt x="74" y="79" on="0"/>
        <pt x="140" y="30" on="0"/>
        <pt x="201" y="30" on="1"/>
        <pt x="281" y="30" on="0"/>
        <pt x="409" y="138" on="0"/>
        <pt x="422" y="222" on="1"/>
      </contour>
    </TTGlyph>
    <TTGlyph name="agrave" xMin="50" yMin="-11" xMax="614" yMax="705">
      <contour>
        <pt x="364" y="567" on="1"/>
        <pt x="230" y="705" on="1"/>
        <pt x="293" y="705" on="1"/>
        <pt x="411" y="567" on="1"/>
      </contour>
      <contour>
        <pt x="614" y="489" on="1"/>
        <pt x="501" y="0" on="1"/>
        <pt x="452" y="0" on="1"/>
        <pt x="474" y="96" on="1"/>
        <pt x="434" y="46" on="0"/>
        <pt x="319" y="-11" on="0"/>
        <pt x="256" y="-11" on="1"/>
        <pt x="153" y="-11" on="0"/>
        <pt x="32" y="132" on="0"/>
        <pt x="50" y="246" on="1"/>
        <pt x="68" y="361" on="0"/>
        <pt x="231" y="501" on="0"/>
        <pt x="336" y="501" on="1"/>
        <pt x="412" y="501" on="0"/>
        <pt x="517" y="426" on="0"/>
        <pt x="535" y="359" on="1"/>
        <pt x="565" y="489" on="1"/>
      </contour>
      <contour>
        <pt x="267" y="33" on="1"/>
        <pt x="350" y="33" on="0"/>
        <pt x="493" y="152" on="0"/>
        <pt x="508" y="246" on="1"/>
        <pt x="522" y="340" on="0"/>
        <pt x="419" y="457" on="0"/>
        <pt x="336" y="457" on="1"/>
        <pt x="249" y="457" on="0"/>
        <pt x="112" y="341" on="0"/>
        <pt x="82" y="151" on="0"/>
        <pt x="181" y="33" on="0"/>
      </contour>
    </TTGlyph>
    <TTGlyph name="agrave.ss01" xMin="22" yMin="-11" xMax="492" yMax="705">
      <contour>
        <pt x="328" y="567" on="1"/>
        <pt x="194" y="705" on="1"/>
        <pt x="257" y="705" on="1"/>
        <pt x="375" y="567" on="1"/>
      </contour>
      <contour>
        <pt x="321" y="501" on="1"/>
        <pt x="414" y="501" on="0"/>
        <pt x="512" y="398" on="0"/>
        <pt x="492" y="310" on="1"/>
        <pt x="421" y="0" on="1"/>
        <pt x="374" y="0" on="1"/>
        <pt x="394" y="89" on="1"/>
        <pt x="313" y="-11" on="0"/>
        <pt x="184" y="-11" on="1"/>
        <pt x="110" y="-11" on="0"/>
        <pt x="22" y="57" on="0"/>
        <pt x="22" y="115" on="1"/>
        <pt x="22" y="185" on="0"/>
        <pt x="145" y="284" on="0"/>
        <pt x="247" y="284" on="1"/>
        <pt x="439" y="284" on="1"/>
        <pt x="446" y="314" on="1"/>
        <pt x="461" y="380" on="0"/>
        <pt x="388" y="458" on="0"/>
        <pt x="318" y="458" on="1"/>
        <pt x="256" y="458" on="0"/>
        <pt x="154" y="395" on="0"/>
        <pt x="133" y="344" on="1"/>
        <pt x="89" y="358" on="1"/>
        <pt x="115" y="421" on="0"/>
        <pt x="243" y="501" on="0"/>
      </contour>
      <contour>
        <pt x="421" y="205" on="1"/>
        <pt x="430" y="244" on="1"/>
        <pt x="239" y="244" on="1"/>
        <pt x="163" y="244" on="0"/>
        <pt x="71" y="172" on="0"/>
        <pt x="71" y="122" on="1"/>
        <pt x="71" y="79" on="0"/>
        <pt x="140" y="30" on="0"/>
        <pt x="197" y="30" on="1"/>
        <pt x="279" y="30" on="0"/>
        <pt x="403" y="130" on="0"/>
      </contour>
    </TTGlyph>
    <TTGlyph name="amacron" xMin="50" yMin="-11" xMax="614" yMax="629">
      <contour>
        <pt x="529" y="589" on="1"/>
        <pt x="262" y="589" on="1"/>
        <pt x="271" y="629" on="1"/>
        <pt x="538" y="629" on="1"/>
      </contour>
      <contour>
        <pt x="614" y="489" on="1"/>
        <pt x="501" y="0" on="1"/>
        <pt x="452" y="0" on="1"/>
        <pt x="474" y="96" on="1"/>
        <pt x="434" y="46" on="0"/>
        <pt x="319" y="-11" on="0"/>
        <pt x="256" y="-11" on="1"/>
        <pt x="153" y="-11" on="0"/>
        <pt x="32" y="132" on="0"/>
        <pt x="50" y="246" on="1"/>
        <pt x="68" y="361" on="0"/>
        <pt x="231" y="501" on="0"/>
        <pt x="336" y="501" on="1"/>
        <pt x="412" y="501" on="0"/>
        <pt x="517" y="426" on="0"/>
        <pt x="535" y="359" on="1"/>
        <pt x="565" y="489" on="1"/>
      </contour>
      <contour>
        <pt x="267" y="33" on="1"/>
        <pt x="350" y="33" on="0"/>
        <pt x="493" y="152" on="0"/>
        <pt x="508" y="246" on="1"/>
        <pt x="522" y="340" on="0"/>
        <pt x="419" y="457" on="0"/>
        <pt x="336" y="457" on="1"/>
        <pt x="249" y="457" on="0"/>
        <pt x="112" y="341" on="0"/>
        <pt x="82" y="151" on="0"/>
        <pt x="181" y="33" on="0"/>
      </contour>
    </TTGlyph>
    <TTGlyph name="amacron.ss01" xMin="22" yMin="-11" xMax="502" yMax="629">
      <contour>
        <pt x="493" y="589" on="1"/>
        <pt x="226" y="589" on="1"/>
        <pt x="235" y="629" on="1"/>
        <pt x="502" y="629" on="1"/>
      </contour>
      <contour>
        <pt x="321" y="501" on="1"/>
        <pt x="414" y="501" on="0"/>
        <pt x="512" y="398" on="0"/>
        <pt x="492" y="310" on="1"/>
        <pt x="421" y="0" on="1"/>
        <pt x="374" y="0" on="1"/>
        <pt x="394" y="89" on="1"/>
        <pt x="313" y="-11" on="0"/>
        <pt x="184" y="-11" on="1"/>
        <pt x="110" y="-11" on="0"/>
        <pt x="22" y="57" on="0"/>
        <pt x="22" y="115" on="1"/>
        <pt x="22" y="185" on="0"/>
        <pt x="145" y="284" on="0"/>
        <pt x="247" y="284" on="1"/>
        <pt x="439" y="284" on="1"/>
        <pt x="446" y="314" on="1"/>
        <pt x="461" y="380" on="0"/>
        <pt x="388" y="458" on="0"/>
        <pt x="318" y="458" on="1"/>
        <pt x="256" y="458" on="0"/>
        <pt x="154" y="395" on="0"/>
        <pt x="133" y="344" on="1"/>
        <pt x="89" y="358" on="1"/>
        <pt x="115" y="421" on="0"/>
        <pt x="243" y="501" on="0"/>
      </contour>
      <contour>
        <pt x="421" y="205" on="1"/>
        <pt x="430" y="244" on="1"/>
        <pt x="239" y="244" on="1"/>
        <pt x="163" y="244" on="0"/>
        <pt x="71" y="172" on="0"/>
        <pt x="71" y="122" on="1"/>
        <pt x="71" y="79" on="0"/>
        <pt x="140" y="30" on="0"/>
        <pt x="197" y="30" on="1"/>
        <pt x="279" y="30" on="0"/>
        <pt x="403" y="130" on="0"/>
      </contour>
    </TTGlyph>
    <TTGlyph name="ampersand" xMin="53" yMin="-15" xMax="638" yMax="681">
      <contour>
        <pt x="603" y="-15" on="1"/>
        <pt x="500" y="89" on="1"/>
        <pt x="396" y="-12" on="0"/>
        <pt x="252" y="-12" on="1"/>
        <pt x="162" y="-12" on="0"/>
        <pt x="53" y="75" on="0"/>
        <pt x="53" y="221" on="0"/>
        <pt x="158" y="338" on="0"/>
        <pt x="238" y="369" on="1"/>
        <pt x="204" y="424" on="0"/>
        <pt x="204" y="479" on="1"/>
        <pt x="204" y="565" on="0"/>
        <pt x="325" y="681" on="0"/>
        <pt x="420" y="681" on="1"/>
        <pt x="490" y="681" on="0"/>
        <pt x="576" y="614" on="0"/>
        <pt x="580" y="552" on="1"/>
        <pt x="533" y="544" on="1"/>
        <pt x="529" y="590" on="0"/>
        <pt x="466" y="640" on="0"/>
        <pt x="416" y="640" on="1"/>
        <pt x="346" y="640" on="0"/>
        <pt x="253" y="550" on="0"/>
        <pt x="253" y="484" on="1"/>
        <pt x="253" y="437" on="0"/>
        <pt x="311" y="344" on="0"/>
        <pt x="377" y="280" on="1"/>
        <pt x="503" y="154" on="1"/>
        <pt x="550" y="213" on="0"/>
        <pt x="569" y="296" on="1"/>
        <pt x="579" y="336" on="1"/>
        <pt x="624" y="336" on="1"/>
        <pt x="614" y="296" on="1"/>
        <pt x="590" y="194" on="0"/>
        <pt x="532" y="124" on="1"/>
        <pt x="638" y="18" on="1"/>
      </contour>
      <contour>
        <pt x="257" y="31" on="1"/>
        <pt x="381" y="31" on="0"/>
        <pt x="471" y="118" on="1"/>
        <pt x="336" y="255" on="1"/>
        <pt x="290" y="300" on="0"/>
        <pt x="260" y="337" on="1"/>
        <pt x="187" y="309" on="0"/>
        <pt x="102" y="212" on="0"/>
        <pt x="102" y="96" on="0"/>
        <pt x="184" y="31" on="0"/>
      </contour>
    </TTGlyph>
    <TTGlyph name="aogonek" xMin="50" yMin="-196" xMax="614" yMax="501">
      <contour>
        <pt x="614" y="489" on="1"/>
        <pt x="501" y="0" on="1"/>
        <pt x="494" y="-6" on="0"/>
        <pt x="469" y="-26" on="0"/>
        <pt x="458" y="-36" on="0"/>
        <pt x="438" y="-52" on="0"/>
        <pt x="429" y="-61" on="0"/>
        <pt x="416" y="-75" on="0"/>
        <pt x="410" y="-85" on="0"/>
        <pt x="403" y="-98" on="0"/>
        <pt x="401" y="-110" on="0"/>
        <pt x="401" y="-116" on="1"/>
        <pt x="401" y="-136" on="0"/>
        <pt x="427" y="-158" on="0"/>
        <pt x="449" y="-158" on="1"/>
        <pt x="464" y="-158" on="0"/>
        <pt x="495" y="-147" on="1"/>
        <pt x="494" y="-182" on="1"/>
        <pt x="458" y="-196" on="0"/>
        <pt x="435" y="-196" on="1"/>
        <pt x="401" y="-196" on="0"/>
        <pt x="359" y="-156" on="0"/>
        <pt x="359" y="-124" on="1"/>
        <pt x="359" y="-95" on="0"/>
        <pt x="402" y="-42" on="0"/>
        <pt x="457" y="0" on="1"/>
        <pt x="452" y="0" on="1"/>
        <pt x="474" y="96" on="1"/>
        <pt x="434" y="46" on="0"/>
        <pt x="319" y="-11" on="0"/>
        <pt x="256" y="-11" on="1"/>
        <pt x="153" y="-11" on="0"/>
        <pt x="32" y="132" on="0"/>
        <pt x="50" y="246" on="1"/>
        <pt x="68" y="361" on="0"/>
        <pt x="231" y="501" on="0"/>
        <pt x="336" y="501" on="1"/>
        <pt x="412" y="501" on="0"/>
        <pt x="517" y="426" on="0"/>
        <pt x="535" y="359" on="1"/>
        <pt x="565" y="489" on="1"/>
      </contour>
      <contour>
        <pt x="267" y="33" on="1"/>
        <pt x="350" y="33" on="0"/>
        <pt x="493" y="152" on="0"/>
        <pt x="508" y="246" on="1"/>
        <pt x="522" y="340" on="0"/>
        <pt x="419" y="457" on="0"/>
        <pt x="336" y="457" on="1"/>
        <pt x="249" y="457" on="0"/>
        <pt x="112" y="341" on="0"/>
        <pt x="82" y="151" on="0"/>
        <pt x="181" y="33" on="0"/>
      </contour>
    </TTGlyph>
    <TTGlyph name="aogonek.ss01" xMin="22" yMin="-196" xMax="492" yMax="501">
      <contour>
        <pt x="321" y="501" on="1"/>
        <pt x="414" y="501" on="0"/>
        <pt x="512" y="398" on="0"/>
        <pt x="492" y="310" on="1"/>
        <pt x="421" y="0" on="1"/>
        <pt x="414" y="-6" on="0"/>
        <pt x="389" y="-26" on="0"/>
        <pt x="378" y="-36" on="0"/>
        <pt x="358" y="-52" on="0"/>
        <pt x="349" y="-61" on="0"/>
        <pt x="336" y="-75" on="0"/>
        <pt x="330" y="-85" on="0"/>
        <pt x="323" y="-98" on="0"/>
        <pt x="321" y="-110" on="0"/>
        <pt x="321" y="-116" on="1"/>
        <pt x="321" y="-136" on="0"/>
        <pt x="347" y="-158" on="0"/>
        <pt x="369" y="-158" on="1"/>
        <pt x="384" y="-158" on="0"/>
        <pt x="415" y="-147" on="1"/>
        <pt x="414" y="-182" on="1"/>
        <pt x="378" y="-196" on="0"/>
        <pt x="355" y="-196" on="1"/>
        <pt x="321" y="-196" on="0"/>
        <pt x="279" y="-156" on="0"/>
        <pt x="279" y="-124" on="1"/>
        <pt x="279" y="-95" on="0"/>
        <pt x="322" y="-42" on="0"/>
        <pt x="377" y="0" on="1"/>
        <pt x="374" y="0" on="1"/>
        <pt x="394" y="89" on="1"/>
        <pt x="313" y="-11" on="0"/>
        <pt x="184" y="-11" on="1"/>
        <pt x="110" y="-11" on="0"/>
        <pt x="22" y="57" on="0"/>
        <pt x="22" y="115" on="1"/>
        <pt x="22" y="185" on="0"/>
        <pt x="145" y="284" on="0"/>
        <pt x="247" y="284" on="1"/>
        <pt x="439" y="284" on="1"/>
        <pt x="446" y="314" on="1"/>
        <pt x="461" y="380" on="0"/>
        <pt x="388" y="458" on="0"/>
        <pt x="318" y="458" on="1"/>
        <pt x="256" y="458" on="0"/>
        <pt x="154" y="395" on="0"/>
        <pt x="133" y="344" on="1"/>
        <pt x="89" y="358" on="1"/>
        <pt x="115" y="421" on="0"/>
        <pt x="243" y="501" on="0"/>
      </contour>
      <contour>
        <pt x="421" y="205" on="1"/>
        <pt x="430" y="244" on="1"/>
        <pt x="239" y="244" on="1"/>
        <pt x="163" y="244" on="0"/>
        <pt x="71" y="172" on="0"/>
        <pt x="71" y="122" on="1"/>
        <pt x="71" y="79" on="0"/>
        <pt x="140" y="30" on="0"/>
        <pt x="197" y="30" on="1"/>
        <pt x="279" y="30" on="0"/>
        <pt x="403" y="130" on="0"/>
      </contour>
    </TTGlyph>
    <TTGlyph name="approxequal" xMin="68" yMin="187" xMax="546" yMax="453">
      <contour>
        <pt x="546" y="421" on="1"/>
        <pt x="536" y="374" on="1"/>
        <pt x="488" y="351" on="0"/>
        <pt x="434" y="351" on="1"/>
        <pt x="384" y="351" on="0"/>
        <pt x="270" y="411" on="0"/>
        <pt x="224" y="411" on="1"/>
        <pt x="152" y="411" on="0"/>
        <pt x="106" y="375" on="1"/>
        <pt x="117" y="420" on="1"/>
        <pt x="163" y="453" on="0"/>
        <pt x="234" y="453" on="1"/>
        <pt x="281" y="453" on="0"/>
        <pt x="398" y="394" on="0"/>
        <pt x="444" y="394" on="1"/>
        <pt x="504" y="394" on="0"/>
      </contour>
      <contour>
        <pt x="509" y="257" on="1"/>
        <pt x="498" y="210" on="1"/>
        <pt x="450" y="187" on="0"/>
        <pt x="395" y="187" on="1"/>
        <pt x="345" y="187" on="0"/>
        <pt x="232" y="247" on="0"/>
        <pt x="186" y="247" on="1"/>
        <pt x="113" y="247" on="0"/>
        <pt x="68" y="211" on="1"/>
        <pt x="78" y="256" on="1"/>
        <pt x="125" y="289" on="0"/>
        <pt x="196" y="289" on="1"/>
        <pt x="243" y="289" on="0"/>
        <pt x="361" y="230" on="0"/>
        <pt x="406" y="230" on="1"/>
        <pt x="465" y="230" on="0"/>
      </contour>
    </TTGlyph>
    <TTGlyph name="approxequal.tf" xMin="84" yMin="187" xMax="562" yMax="453">
      <contour>
        <pt x="562" y="421" on="1"/>
        <pt x="551" y="374" on="1"/>
        <pt x="503" y="351" on="0"/>
        <pt x="449" y="351" on="1"/>
        <pt x="399" y="351" on="0"/>
        <pt x="286" y="411" on="0"/>
        <pt x="240" y="411" on="1"/>
        <pt x="167" y="411" on="0"/>
        <pt x="121" y="375" on="1"/>
        <pt x="132" y="420" on="1"/>
        <pt x="178" y="453" on="0"/>
        <pt x="249" y="453" on="1"/>
        <pt x="296" y="453" on="0"/>
        <pt x="414" y="394" on="0"/>
        <pt x="459" y="394" on="1"/>
        <pt x="518" y="394" on="0"/>
      </contour>
      <contour>
        <pt x="524" y="257" on="1"/>
        <pt x="513" y="210" on="1"/>
        <pt x="465" y="187" on="0"/>
        <pt x="411" y="187" on="1"/>
        <pt x="361" y="187" on="0"/>
        <pt x="247" y="247" on="0"/>
        <pt x="201" y="247" on="1"/>
        <pt x="127" y="247" on="0"/>
        <pt x="84" y="211" on="1"/>
        <pt x="94" y="256" on="1"/>
        <pt x="140" y="289" on="0"/>
        <pt x="211" y="289" on="1"/>
        <pt x="259" y="289" on="0"/>
        <pt x="376" y="230" on="0"/>
        <pt x="421" y="230" on="1"/>
        <pt x="480" y="230" on="0"/>
      </contour>
    </TTGlyph>
    <TTGlyph name="aring" xMin="50" yMin="-11" xMax="614" yMax="738">
      <contour>
        <pt x="399" y="552" on="1"/>
        <pt x="361" y="552" on="0"/>
        <pt x="311" y="602" on="0"/>
        <pt x="311" y="638" on="1"/>
        <pt x="311" y="679" on="0"/>
        <pt x="373" y="738" on="0"/>
        <pt x="415" y="738" on="1"/>
        <pt x="453" y="738" on="0"/>
        <pt x="503" y="687" on="0"/>
        <pt x="503" y="651" on="1"/>
        <pt x="503" y="611" on="0"/>
        <pt x="441" y="552" on="0"/>
      </contour>
      <contour>
        <pt x="412" y="706" on="1"/>
        <pt x="384" y="706" on="0"/>
        <pt x="345" y="666" on="0"/>
        <pt x="345" y="640" on="1"/>
        <pt x="345" y="617" on="0"/>
        <pt x="377" y="584" on="0"/>
        <pt x="402" y="584" on="1"/>
        <pt x="430" y="584" on="0"/>
        <pt x="470" y="624" on="0"/>
        <pt x="470" y="650" on="1"/>
        <pt x="470" y="673" on="0"/>
        <pt x="437" y="706" on="0"/>
      </contour>
      <contour>
        <pt x="614" y="489" on="1"/>
        <pt x="501" y="0" on="1"/>
        <pt x="452" y="0" on="1"/>
        <pt x="474" y="96" on="1"/>
        <pt x="434" y="46" on="0"/>
        <pt x="319" y="-11" on="0"/>
        <pt x="256" y="-11" on="1"/>
        <pt x="153" y="-11" on="0"/>
        <pt x="32" y="132" on="0"/>
        <pt x="50" y="246" on="1"/>
        <pt x="68" y="361" on="0"/>
        <pt x="231" y="501" on="0"/>
        <pt x="336" y="501" on="1"/>
        <pt x="412" y="501" on="0"/>
        <pt x="517" y="426" on="0"/>
        <pt x="535" y="359" on="1"/>
        <pt x="565" y="489" on="1"/>
      </contour>
      <contour>
        <pt x="267" y="33" on="1"/>
        <pt x="350" y="33" on="0"/>
        <pt x="493" y="152" on="0"/>
        <pt x="508" y="246" on="1"/>
        <pt x="522" y="340" on="0"/>
        <pt x="419" y="457" on="0"/>
        <pt x="336" y="457" on="1"/>
        <pt x="249" y="457" on="0"/>
        <pt x="112" y="341" on="0"/>
        <pt x="82" y="151" on="0"/>
        <pt x="181" y="33" on="0"/>
      </contour>
    </TTGlyph>
    <TTGlyph name="aring.ss01" xMin="22" yMin="-11" xMax="492" yMax="738">
      <contour>
        <pt x="363" y="552" on="1"/>
        <pt x="325" y="552" on="0"/>
        <pt x="275" y="602" on="0"/>
        <pt x="275" y="638" on="1"/>
        <pt x="275" y="679" on="0"/>
        <pt x="337" y="738" on="0"/>
        <pt x="379" y="738" on="1"/>
        <pt x="417" y="738" on="0"/>
        <pt x="467" y="687" on="0"/>
        <pt x="467" y="651" on="1"/>
        <pt x="467" y="611" on="0"/>
        <pt x="405" y="552" on="0"/>
      </contour>
      <contour>
        <pt x="376" y="706" on="1"/>
        <pt x="348" y="706" on="0"/>
        <pt x="309" y="666" on="0"/>
        <pt x="309" y="640" on="1"/>
        <pt x="309" y="617" on="0"/>
        <pt x="341" y="584" on="0"/>
        <pt x="366" y="584" on="1"/>
        <pt x="394" y="584" on="0"/>
        <pt x="434" y="624" on="0"/>
        <pt x="434" y="650" on="1"/>
        <pt x="434" y="673" on="0"/>
        <pt x="401" y="706" on="0"/>
      </contour>
      <contour>
        <pt x="321" y="501" on="1"/>
        <pt x="414" y="501" on="0"/>
        <pt x="512" y="398" on="0"/>
        <pt x="492" y="310" on="1"/>
        <pt x="421" y="0" on="1"/>
        <pt x="374" y="0" on="1"/>
        <pt x="394" y="89" on="1"/>
        <pt x="313" y="-11" on="0"/>
        <pt x="184" y="-11" on="1"/>
        <pt x="110" y="-11" on="0"/>
        <pt x="22" y="57" on="0"/>
        <pt x="22" y="115" on="1"/>
        <pt x="22" y="185" on="0"/>
        <pt x="145" y="284" on="0"/>
        <pt x="247" y="284" on="1"/>
        <pt x="439" y="284" on="1"/>
        <pt x="446" y="314" on="1"/>
        <pt x="461" y="380" on="0"/>
        <pt x="388" y="458" on="0"/>
        <pt x="318" y="458" on="1"/>
        <pt x="256" y="458" on="0"/>
        <pt x="154" y="395" on="0"/>
        <pt x="133" y="344" on="1"/>
        <pt x="89" y="358" on="1"/>
        <pt x="115" y="421" on="0"/>
        <pt x="243" y="501" on="0"/>
      </contour>
      <contour>
        <pt x="421" y="205" on="1"/>
        <pt x="430" y="244" on="1"/>
        <pt x="239" y="244" on="1"/>
        <pt x="163" y="244" on="0"/>
        <pt x="71" y="172" on="0"/>
        <pt x="71" y="122" on="1"/>
        <pt x="71" y="79" on="0"/>
        <pt x="140" y="30" on="0"/>
        <pt x="197" y="30" on="1"/>
        <pt x="279" y="30" on="0"/>
        <pt x="403" y="130" on="0"/>
      </contour>
    </TTGlyph>
    <TTGlyph name="arrowdown" xMin="40" yMin="-7" xMax="708" yMax="670">
      <contour>
        <pt x="708" y="327" on="1"/>
        <pt x="374" y="-7" on="1"/>
        <pt x="40" y="327" on="1"/>
        <pt x="76" y="363" on="1"/>
        <pt x="349" y="90" on="1"/>
        <pt x="349" y="670" on="1"/>
        <pt x="399" y="670" on="1"/>
        <pt x="399" y="90" on="1"/>
        <pt x="672" y="363" on="1"/>
      </contour>
    </TTGlyph>
    <TTGlyph name="arrowleft" xMin="10" yMin="-10" xMax="687" yMax="658">
      <contour>
        <pt x="687" y="299" on="1"/>
        <pt x="107" y="299" on="1"/>
        <pt x="380" y="27" on="1"/>
        <pt x="344" y="-10" on="1"/>
        <pt x="10" y="324" on="1"/>
        <pt x="344" y="658" on="1"/>
        <pt x="380" y="622" on="1"/>
        <pt x="107" y="349" on="1"/>
        <pt x="687" y="349" on="1"/>
      </contour>
    </TTGlyph>
    <TTGlyph name="arrowright" xMin="40" yMin="-10" xMax="717" yMax="658">
      <contour>
        <pt x="717" y="324" on="1"/>
        <pt x="383" y="-10" on="1"/>
        <pt x="347" y="27" on="1"/>
        <pt x="621" y="299" on="1"/>
        <pt x="40" y="299" on="1"/>
        <pt x="40" y="349" on="1"/>
        <pt x="621" y="349" on="1"/>
        <pt x="347" y="622" on="1"/>
        <pt x="383" y="658" on="1"/>
      </contour>
    </TTGlyph>
    <TTGlyph name="arrowup" xMin="40" yMin="0" xMax="708" yMax="677">
      <contour>
        <pt x="672" y="307" on="1"/>
        <pt x="399" y="581" on="1"/>
        <pt x="399" y="0" on="1"/>
        <pt x="349" y="0" on="1"/>
        <pt x="349" y="581" on="1"/>
        <pt x="76" y="307" on="1"/>
        <pt x="40" y="343" on="1"/>
        <pt x="374" y="677" on="1"/>
        <pt x="708" y="343" on="1"/>
      </contour>
    </TTGlyph>
    <TTGlyph name="asciicircum" xMin="79" yMin="469" xMax="393" yMax="670">
      <contour>
        <pt x="130" y="469" on="1"/>
        <pt x="79" y="469" on="1"/>
        <pt x="266" y="670" on="1"/>
        <pt x="300" y="670" on="1"/>
        <pt x="393" y="469" on="1"/>
        <pt x="349" y="469" on="1"/>
        <pt x="276" y="624" on="1"/>
      </contour>
    </TTGlyph>
    <TTGlyph name="asciitilde" xMin="41" yMin="239" xMax="449" yMax="358">
      <contour>
        <pt x="85" y="243" on="1"/>
        <pt x="41" y="243" on="1"/>
        <pt x="54" y="299" on="0"/>
        <pt x="127" y="358" on="0"/>
        <pt x="170" y="358" on="1"/>
        <pt x="197" y="358" on="0"/>
        <pt x="241" y="335" on="0"/>
        <pt x="266" y="306" on="0"/>
        <pt x="303" y="283" on="0"/>
        <pt x="323" y="283" on="1"/>
        <pt x="353" y="283" on="0"/>
        <pt x="395" y="322" on="0"/>
        <pt x="403" y="357" on="1"/>
        <pt x="449" y="357" on="1"/>
        <pt x="435" y="300" on="0"/>
        <pt x="362" y="239" on="0"/>
        <pt x="319" y="239" on="1"/>
        <pt x="292" y="239" on="0"/>
        <pt x="247" y="262" on="0"/>
        <pt x="222" y="291" on="0"/>
        <pt x="186" y="314" on="0"/>
        <pt x="166" y="314" on="1"/>
        <pt x="134" y="314" on="0"/>
        <pt x="90" y="275" on="0"/>
      </contour>
    </TTGlyph>
    <TTGlyph name="asterisk" xMin="113" yMin="380" xMax="468" yMax="716">
      <contour>
        <pt x="325" y="536" on="1"/>
        <pt x="419" y="425" on="1"/>
        <pt x="391" y="403" on="1"/>
        <pt x="298" y="513" on="1"/>
        <pt x="249" y="380" on="1"/>
        <pt x="214" y="393" on="1"/>
        <pt x="262" y="526" on="1"/>
        <pt x="120" y="501" on="1"/>
        <pt x="113" y="536" on="1"/>
        <pt x="257" y="560" on="1"/>
        <pt x="162" y="672" on="1"/>
        <pt x="191" y="694" on="1"/>
        <pt x="284" y="584" on="1"/>
        <pt x="332" y="716" on="1"/>
        <pt x="367" y="703" on="1"/>
        <pt x="319" y="571" on="1"/>
        <pt x="461" y="595" on="1"/>
        <pt x="468" y="561" on="1"/>
      </contour>
    </TTGlyph>
    <TTGlyph name="at" xMin="75" yMin="-120" xMax="913" yMax="681">
      <contour>
        <pt x="562" y="681" on="1"/>
        <pt x="718" y="681" on="0"/>
        <pt x="913" y="499" on="0"/>
        <pt x="913" y="355" on="1"/>
        <pt x="913" y="306" on="0"/>
        <pt x="888" y="208" on="0"/>
        <pt x="840" y="122" on="0"/>
        <pt x="760" y="68" on="0"/>
        <pt x="710" y="68" on="1"/>
        <pt x="658" y="68" on="0"/>
        <pt x="606" y="120" on="0"/>
        <pt x="614" y="164" on="1"/>
        <pt x="545" y="74" on="0"/>
        <pt x="434" y="74" on="1"/>
        <pt x="360" y="74" on="0"/>
        <pt x="268" y="167" on="0"/>
        <pt x="268" y="244" on="1"/>
        <pt x="268" y="346" on="0"/>
        <pt x="410" y="482" on="0"/>
        <pt x="503" y="482" on="1"/>
        <pt x="564" y="482" on="0"/>
        <pt x="646" y="416" on="0"/>
        <pt x="658" y="358" on="1"/>
        <pt x="685" y="473" on="1"/>
        <pt x="721" y="473" on="1"/>
        <pt x="652" y="172" on="1"/>
        <pt x="645" y="139" on="0"/>
        <pt x="682" y="100" on="0"/>
        <pt x="719" y="100" on="1"/>
        <pt x="790" y="100" on="0"/>
        <pt x="877" y="258" on="0"/>
        <pt x="877" y="352" on="1"/>
        <pt x="877" y="484" on="0"/>
        <pt x="700" y="649" on="0"/>
        <pt x="559" y="649" on="1"/>
        <pt x="442" y="649" on="0"/>
        <pt x="237" y="538" on="0"/>
        <pt x="112" y="343" on="0"/>
        <pt x="112" y="227" on="1"/>
        <pt x="112" y="90" on="0"/>
        <pt x="282" y="-85" on="0"/>
        <pt x="416" y="-85" on="1"/>
        <pt x="476" y="-85" on="0"/>
        <pt x="614" y="-50" on="0"/>
        <pt x="665" y="-20" on="1"/>
        <pt x="678" y="-50" on="1"/>
        <pt x="625" y="-83" on="0"/>
        <pt x="477" y="-120" on="0"/>
        <pt x="412" y="-120" on="1"/>
        <pt x="265" y="-120" on="0"/>
        <pt x="75" y="71" on="0"/>
        <pt x="75" y="221" on="1"/>
        <pt x="75" y="348" on="0"/>
        <pt x="211" y="561" on="0"/>
        <pt x="434" y="681" on="0"/>
      </contour>
      <contour>
        <pt x="444" y="109" on="1"/>
        <pt x="519" y="109" on="0"/>
        <pt x="634" y="222" on="0"/>
        <pt x="634" y="306" on="1"/>
        <pt x="634" y="370" on="0"/>
        <pt x="560" y="445" on="0"/>
        <pt x="501" y="445" on="1"/>
        <pt x="426" y="445" on="0"/>
        <pt x="310" y="335" on="0"/>
        <pt x="310" y="251" on="1"/>
        <pt x="310" y="186" on="0"/>
        <pt x="385" y="109" on="0"/>
      </contour>
    </TTGlyph>
    <TTGlyph name="at.case" xMin="82" yMin="-80" xMax="920" yMax="721">
      <contour>
        <pt x="569" y="721" on="1"/>
        <pt x="725" y="721" on="0"/>
        <pt x="920" y="539" on="0"/>
        <pt x="920" y="395" on="1"/>
        <pt x="920" y="346" on="0"/>
        <pt x="895" y="248" on="0"/>
        <pt x="847" y="162" on="0"/>
        <pt x="767" y="108" on="0"/>
        <pt x="717" y="108" on="1"/>
        <pt x="665" y="108" on="0"/>
        <pt x="613" y="160" on="0"/>
        <pt x="621" y="204" on="1"/>
        <pt x="552" y="114" on="0"/>
        <pt x="440" y="114" on="1"/>
        <pt x="367" y="114" on="0"/>
        <pt x="275" y="207" on="0"/>
        <pt x="275" y="284" on="1"/>
        <pt x="275" y="386" on="0"/>
        <pt x="417" y="522" on="0"/>
        <pt x="510" y="522" on="1"/>
        <pt x="571" y="522" on="0"/>
        <pt x="653" y="456" on="0"/>
        <pt x="665" y="398" on="1"/>
        <pt x="692" y="513" on="1"/>
        <pt x="728" y="513" on="1"/>
        <pt x="659" y="212" on="1"/>
        <pt x="651" y="180" on="0"/>
        <pt x="688" y="140" on="0"/>
        <pt x="725" y="140" on="1"/>
        <pt x="796" y="140" on="0"/>
        <pt x="883" y="298" on="0"/>
        <pt x="883" y="392" on="1"/>
        <pt x="883" y="524" on="0"/>
        <pt x="707" y="689" on="0"/>
        <pt x="566" y="689" on="1"/>
        <pt x="449" y="689" on="0"/>
        <pt x="244" y="578" on="0"/>
        <pt x="119" y="383" on="0"/>
        <pt x="119" y="267" on="1"/>
        <pt x="119" y="130" on="0"/>
        <pt x="289" y="-45" on="0"/>
        <pt x="422" y="-45" on="1"/>
        <pt x="482" y="-45" on="0"/>
        <pt x="620" y="-10" on="0"/>
        <pt x="671" y="20" on="1"/>
        <pt x="684" y="-10" on="1"/>
        <pt x="631" y="-43" on="0"/>
        <pt x="484" y="-80" on="0"/>
        <pt x="419" y="-80" on="1"/>
        <pt x="271" y="-80" on="0"/>
        <pt x="82" y="111" on="0"/>
        <pt x="82" y="261" on="1"/>
        <pt x="82" y="388" on="0"/>
        <pt x="218" y="601" on="0"/>
        <pt x="441" y="721" on="0"/>
      </contour>
      <contour>
        <pt x="450" y="149" on="1"/>
        <pt x="525" y="149" on="0"/>
        <pt x="641" y="262" on="0"/>
        <pt x="641" y="346" on="1"/>
        <pt x="641" y="410" on="0"/>
        <pt x="567" y="485" on="0"/>
        <pt x="508" y="485" on="1"/>
        <pt x="433" y="485" on="0"/>
        <pt x="316" y="375" on="0"/>
        <pt x="316" y="291" on="1"/>
        <pt x="316" y="226" on="0"/>
        <pt x="391" y="149" on="0"/>
      </contour>
    </TTGlyph>
    <TTGlyph name="atilde" xMin="50" yMin="-11" xMax="614" yMax="684">
      <contour>
        <pt x="348" y="646" on="1"/>
        <pt x="329" y="646" on="0"/>
        <pt x="300" y="619" on="0"/>
        <pt x="295" y="596" on="1"/>
        <pt x="257" y="596" on="1"/>
        <pt x="267" y="639" on="0"/>
        <pt x="321" y="684" on="0"/>
        <pt x="354" y="684" on="1"/>
        <pt x="384" y="684" on="0"/>
        <pt x="442" y="631" on="0"/>
        <pt x="464" y="631" on="1"/>
        <pt x="483" y="631" on="0"/>
        <pt x="512" y="659" on="0"/>
        <pt x="517" y="683" on="1"/>
        <pt x="555" y="683" on="1"/>
        <pt x="545" y="640" on="0"/>
        <pt x="491" y="594" on="0"/>
        <pt x="458" y="594" on="1"/>
        <pt x="428" y="594" on="0"/>
        <pt x="369" y="646" on="0"/>
      </contour>
      <contour>
        <pt x="614" y="489" on="1"/>
        <pt x="501" y="0" on="1"/>
        <pt x="452" y="0" on="1"/>
        <pt x="474" y="96" on="1"/>
        <pt x="434" y="46" on="0"/>
        <pt x="319" y="-11" on="0"/>
        <pt x="256" y="-11" on="1"/>
        <pt x="153" y="-11" on="0"/>
        <pt x="32" y="132" on="0"/>
        <pt x="50" y="246" on="1"/>
        <pt x="68" y="361" on="0"/>
        <pt x="231" y="501" on="0"/>
        <pt x="336" y="501" on="1"/>
        <pt x="412" y="501" on="0"/>
        <pt x="517" y="426" on="0"/>
        <pt x="535" y="359" on="1"/>
        <pt x="565" y="489" on="1"/>
      </contour>
      <contour>
        <pt x="267" y="33" on="1"/>
        <pt x="350" y="33" on="0"/>
        <pt x="493" y="152" on="0"/>
        <pt x="508" y="246" on="1"/>
        <pt x="522" y="340" on="0"/>
        <pt x="419" y="457" on="0"/>
        <pt x="336" y="457" on="1"/>
        <pt x="249" y="457" on="0"/>
        <pt x="112" y="341" on="0"/>
        <pt x="82" y="151" on="0"/>
        <pt x="181" y="33" on="0"/>
      </contour>
    </TTGlyph>
    <TTGlyph name="atilde.ss01" xMin="22" yMin="-11" xMax="519" yMax="684">
      <contour>
        <pt x="312" y="646" on="1"/>
        <pt x="293" y="646" on="0"/>
        <pt x="264" y="619" on="0"/>
        <pt x="259" y="596" on="1"/>
        <pt x="221" y="596" on="1"/>
        <pt x="231" y="639" on="0"/>
        <pt x="285" y="684" on="0"/>
        <pt x="318" y="684" on="1"/>
        <pt x="348" y="684" on="0"/>
        <pt x="406" y="631" on="0"/>
        <pt x="428" y="631" on="1"/>
        <pt x="447" y="631" on="0"/>
        <pt x="476" y="659" on="0"/>
        <pt x="481" y="683" on="1"/>
        <pt x="519" y="683" on="1"/>
        <pt x="509" y="640" on="0"/>
        <pt x="455" y="594" on="0"/>
        <pt x="422" y="594" on="1"/>
        <pt x="392" y="594" on="0"/>
        <pt x="333" y="646" on="0"/>
      </contour>
      <contour>
        <pt x="321" y="501" on="1"/>
        <pt x="414" y="501" on="0"/>
        <pt x="512" y="398" on="0"/>
        <pt x="492" y="310" on="1"/>
        <pt x="421" y="0" on="1"/>
        <pt x="374" y="0" on="1"/>
        <pt x="394" y="89" on="1"/>
        <pt x="313" y="-11" on="0"/>
        <pt x="184" y="-11" on="1"/>
        <pt x="110" y="-11" on="0"/>
        <pt x="22" y="57" on="0"/>
        <pt x="22" y="115" on="1"/>
        <pt x="22" y="185" on="0"/>
        <pt x="145" y="284" on="0"/>
        <pt x="247" y="284" on="1"/>
        <pt x="439" y="284" on="1"/>
        <pt x="446" y="314" on="1"/>
        <pt x="461" y="380" on="0"/>
        <pt x="388" y="458" on="0"/>
        <pt x="318" y="458" on="1"/>
        <pt x="256" y="458" on="0"/>
        <pt x="154" y="395" on="0"/>
        <pt x="133" y="344" on="1"/>
        <pt x="89" y="358" on="1"/>
        <pt x="115" y="421" on="0"/>
        <pt x="243" y="501" on="0"/>
      </contour>
      <contour>
        <pt x="421" y="205" on="1"/>
        <pt x="430" y="244" on="1"/>
        <pt x="239" y="244" on="1"/>
        <pt x="163" y="244" on="0"/>
        <pt x="71" y="172" on="0"/>
        <pt x="71" y="122" on="1"/>
        <pt x="71" y="79" on="0"/>
        <pt x="140" y="30" on="0"/>
        <pt x="197" y="30" on="1"/>
        <pt x="279" y="30" on="0"/>
        <pt x="403" y="130" on="0"/>
      </contour>
    </TTGlyph>
    <TTGlyph name="b" xMin="40" yMin="-11" xMax="604" yMax="720">
      <contour>
        <pt x="398" y="501" on="1"/>
        <pt x="501" y="501" on="0"/>
        <pt x="622" y="357" on="0"/>
        <pt x="586" y="129" on="0"/>
        <pt x="423" y="-11" on="0"/>
        <pt x="318" y="-11" on="1"/>
        <pt x="242" y="-11" on="0"/>
        <pt x="137" y="64" on="0"/>
        <pt x="119" y="130" on="1"/>
        <pt x="89" y="0" on="1"/>
        <pt x="40" y="0" on="1"/>
        <pt x="206" y="720" on="1"/>
        <pt x="255" y="720" on="1"/>
        <pt x="180" y="394" on="1"/>
        <pt x="220" y="444" on="0"/>
        <pt x="335" y="501" on="0"/>
      </contour>
      <contour>
        <pt x="318" y="33" on="1"/>
        <pt x="405" y="33" on="0"/>
        <pt x="542" y="149" on="0"/>
        <pt x="557" y="243" on="1"/>
        <pt x="572" y="338" on="0"/>
        <pt x="473" y="457" on="0"/>
        <pt x="387" y="457" on="1"/>
        <pt x="305" y="457" on="0"/>
        <pt x="161" y="337" on="0"/>
        <pt x="146" y="243" on="1"/>
        <pt x="132" y="149" on="0"/>
        <pt x="235" y="33" on="0"/>
      </contour>
    </TTGlyph>
    <TTGlyph name="backslash" xMin="100" yMin="-72" xMax="243" yMax="740">
      <contour>
        <pt x="243" y="-72" on="1"/>
        <pt x="200" y="-72" on="1"/>
        <pt x="100" y="740" on="1"/>
        <pt x="143" y="740" on="1"/>
      </contour>
    </TTGlyph>
    <TTGlyph name="backslash.case" xMin="128" yMin="0" xMax="263" yMax="670">
      <contour>
        <pt x="263" y="0" on="1"/>
        <pt x="216" y="0" on="1"/>
        <pt x="128" y="670" on="1"/>
        <pt x="176" y="670" on="1"/>
      </contour>
    </TTGlyph>
    <TTGlyph name="bar" xMin="24" yMin="-72" xMax="259" yMax="740">
      <contour>
        <pt x="72" y="-72" on="1"/>
        <pt x="24" y="-72" on="1"/>
        <pt x="211" y="740" on="1"/>
        <pt x="259" y="740" on="1"/>
      </contour>
    </TTGlyph>
    <TTGlyph name="bar.case" xMin="31" yMin="-41" xMax="252" yMax="710">
      <contour>
        <pt x="79" y="-41" on="1"/>
        <pt x="31" y="-41" on="1"/>
        <pt x="204" y="710" on="1"/>
        <pt x="252" y="710" on="1"/>
      </contour>
    </TTGlyph>
    <TTGlyph name="braceleft" xMin="73" yMin="-82" xMax="485" yMax="740">
      <contour>
        <pt x="485" y="740" on="1"/>
        <pt x="475" y="698" on="1"/>
        <pt x="403" y="698" on="1"/>
        <pt x="366" y="698" on="0"/>
        <pt x="310" y="651" on="0"/>
        <pt x="302" y="612" on="1"/>
        <pt x="262" y="441" on="1"/>
        <pt x="241" y="351" on="0"/>
        <pt x="165" y="328" on="1"/>
        <pt x="194" y="314" on="0"/>
        <pt x="219" y="254" on="0"/>
        <pt x="210" y="217" on="1"/>
        <pt x="171" y="46" on="1"/>
        <pt x="161" y="7" on="0"/>
        <pt x="196" y="-39" on="0"/>
        <pt x="233" y="-39" on="1"/>
        <pt x="305" y="-39" on="1"/>
        <pt x="295" y="-82" on="1"/>
        <pt x="218" y="-82" on="1"/>
        <pt x="162" y="-82" on="0"/>
        <pt x="109" y="-14" on="0"/>
        <pt x="122" y="42" on="1"/>
        <pt x="161" y="213" on="1"/>
        <pt x="171" y="255" on="0"/>
        <pt x="132" y="305" on="0"/>
        <pt x="91" y="307" on="1"/>
        <pt x="73" y="309" on="1"/>
        <pt x="82" y="349" on="1"/>
        <pt x="101" y="351" on="1"/>
        <pt x="143" y="354" on="0"/>
        <pt x="204" y="404" on="0"/>
        <pt x="214" y="445" on="1"/>
        <pt x="254" y="616" on="1"/>
        <pt x="267" y="672" on="0"/>
        <pt x="352" y="740" on="0"/>
        <pt x="408" y="740" on="1"/>
      </contour>
    </TTGlyph>
    <TTGlyph name="braceleft.case" xMin="73" yMin="0" xMax="469" yMax="670">
      <contour>
        <pt x="469" y="670" on="1"/>
        <pt x="458" y="627" on="1"/>
        <pt x="386" y="627" on="1"/>
        <pt x="350" y="627" on="0"/>
        <pt x="294" y="580" on="0"/>
        <pt x="285" y="541" on="1"/>
        <pt x="262" y="443" on="1"/>
        <pt x="243" y="355" on="0"/>
        <pt x="167" y="330" on="1"/>
        <pt x="196" y="317" on="0"/>
        <pt x="219" y="257" on="0"/>
        <pt x="210" y="219" on="1"/>
        <pt x="190" y="129" on="1"/>
        <pt x="180" y="90" on="0"/>
        <pt x="215" y="43" on="0"/>
        <pt x="252" y="43" on="1"/>
        <pt x="324" y="43" on="1"/>
        <pt x="314" y="0" on="1"/>
        <pt x="237" y="0" on="1"/>
        <pt x="181" y="0" on="0"/>
        <pt x="128" y="69" on="0"/>
        <pt x="141" y="125" on="1"/>
        <pt x="161" y="215" on="1"/>
        <pt x="171" y="256" on="0"/>
        <pt x="132" y="307" on="0"/>
        <pt x="91" y="309" on="1"/>
        <pt x="73" y="312" on="1"/>
        <pt x="83" y="351" on="1"/>
        <pt x="102" y="354" on="1"/>
        <pt x="144" y="356" on="0"/>
        <pt x="205" y="406" on="0"/>
        <pt x="215" y="447" on="1"/>
        <pt x="237" y="545" on="1"/>
        <pt x="250" y="601" on="0"/>
        <pt x="336" y="670" on="0"/>
        <pt x="392" y="670" on="1"/>
      </contour>
    </TTGlyph>
    <TTGlyph name="braceright" xMin="-12" yMin="-82" xMax="400" yMax="740">
      <contour>
        <pt x="400" y="349" on="1"/>
        <pt x="390" y="310" on="1"/>
        <pt x="372" y="307" on="1"/>
        <pt x="329" y="305" on="0"/>
        <pt x="268" y="255" on="0"/>
        <pt x="259" y="214" on="1"/>
        <pt x="219" y="43" on="1"/>
        <pt x="205" y="-13" on="0"/>
        <pt x="121" y="-82" on="0"/>
        <pt x="64" y="-82" on="1"/>
        <pt x="-12" y="-82" on="1"/>
        <pt x="-3" y="-39" on="1"/>
        <pt x="70" y="-39" on="1"/>
        <pt x="106" y="-39" on="0"/>
        <pt x="163" y="8" on="0"/>
        <pt x="171" y="46" on="1"/>
        <pt x="211" y="218" on="1"/>
        <pt x="232" y="307" on="0"/>
        <pt x="307" y="331" on="1"/>
        <pt x="278" y="344" on="0"/>
        <pt x="254" y="404" on="0"/>
        <pt x="263" y="441" on="1"/>
        <pt x="302" y="613" on="1"/>
        <pt x="311" y="651" on="0"/>
        <pt x="277" y="698" on="0"/>
        <pt x="240" y="698" on="1"/>
        <pt x="168" y="698" on="1"/>
        <pt x="178" y="740" on="1"/>
        <pt x="254" y="740" on="1"/>
        <pt x="311" y="740" on="0"/>
        <pt x="364" y="672" on="0"/>
        <pt x="351" y="616" on="1"/>
        <pt x="312" y="445" on="1"/>
        <pt x="302" y="404" on="0"/>
        <pt x="341" y="354" on="0"/>
        <pt x="382" y="352" on="1"/>
      </contour>
    </TTGlyph>
    <TTGlyph name="braceright.case" xMin="6" yMin="0" xMax="402" yMax="670">
      <contour>
        <pt x="402" y="359" on="1"/>
        <pt x="392" y="319" on="1"/>
        <pt x="373" y="317" on="1"/>
        <pt x="331" y="314" on="0"/>
        <pt x="270" y="264" on="0"/>
        <pt x="260" y="223" on="1"/>
        <pt x="238" y="125" on="1"/>
        <pt x="225" y="69" on="0"/>
        <pt x="139" y="0" on="0"/>
        <pt x="83" y="0" on="1"/>
        <pt x="6" y="0" on="1"/>
        <pt x="17" y="43" on="1"/>
        <pt x="89" y="43" on="1"/>
        <pt x="125" y="43" on="0"/>
        <pt x="181" y="90" on="0"/>
        <pt x="190" y="129" on="1"/>
        <pt x="213" y="227" on="1"/>
        <pt x="232" y="315" on="0"/>
        <pt x="309" y="340" on="1"/>
        <pt x="279" y="353" on="0"/>
        <pt x="256" y="413" on="0"/>
        <pt x="265" y="452" on="1"/>
        <pt x="285" y="541" on="1"/>
        <pt x="295" y="580" on="0"/>
        <pt x="260" y="627" on="0"/>
        <pt x="223" y="627" on="1"/>
        <pt x="151" y="627" on="1"/>
        <pt x="161" y="670" on="1"/>
        <pt x="238" y="670" on="1"/>
        <pt x="294" y="670" on="0"/>
        <pt x="347" y="602" on="0"/>
        <pt x="334" y="545" on="1"/>
        <pt x="314" y="456" on="1"/>
        <pt x="304" y="414" on="0"/>
        <pt x="343" y="363" on="0"/>
        <pt x="384" y="361" on="1"/>
      </contour>
    </TTGlyph>
    <TTGlyph name="bracketleft" xMin="21" yMin="-82" xMax="436" yMax="740">
      <contour>
        <pt x="249" y="697" on="1"/>
        <pt x="79" y="-39" on="1"/>
        <pt x="256" y="-39" on="1"/>
        <pt x="246" y="-82" on="1"/>
        <pt x="21" y="-82" on="1"/>
        <pt x="211" y="740" on="1"/>
        <pt x="436" y="740" on="1"/>
        <pt x="426" y="697" on="1"/>
      </contour>
    </TTGlyph>
    <TTGlyph name="bracketleft.case" xMin="40" yMin="0" xMax="420" yMax="670">
      <contour>
        <pt x="233" y="627" on="1"/>
        <pt x="98" y="43" on="1"/>
        <pt x="276" y="43" on="1"/>
        <pt x="265" y="0" on="1"/>
        <pt x="40" y="0" on="1"/>
        <pt x="195" y="670" on="1"/>
        <pt x="420" y="670" on="1"/>
        <pt x="410" y="627" on="1"/>
      </contour>
    </TTGlyph>
    <TTGlyph name="bracketright" xMin="-13" yMin="-82" xMax="403" yMax="740">
      <contour>
        <pt x="403" y="740" on="1"/>
        <pt x="213" y="-82" on="1"/>
        <pt x="-13" y="-82" on="1"/>
        <pt x="-3" y="-39" on="1"/>
        <pt x="174" y="-39" on="1"/>
        <pt x="344" y="697" on="1"/>
        <pt x="167" y="697" on="1"/>
        <pt x="177" y="740" on="1"/>
      </contour>
    </TTGlyph>
    <TTGlyph name="bracketright.case" xMin="6" yMin="0" xMax="386" yMax="670">
      <contour>
        <pt x="386" y="670" on="1"/>
        <pt x="232" y="0" on="1"/>
        <pt x="6" y="0" on="1"/>
        <pt x="17" y="43" on="1"/>
        <pt x="193" y="43" on="1"/>
        <pt x="328" y="627" on="1"/>
        <pt x="151" y="627" on="1"/>
        <pt x="161" y="670" on="1"/>
      </contour>
    </TTGlyph>
    <TTGlyph name="breve" xMin="236" yMin="558" xMax="504" yMax="684">
      <contour>
        <pt x="347" y="558" on="1"/>
        <pt x="287" y="558" on="0"/>
        <pt x="225" y="627" on="0"/>
        <pt x="236" y="684" on="1"/>
        <pt x="275" y="684" on="1"/>
        <pt x="268" y="644" on="0"/>
        <pt x="312" y="594" on="0"/>
        <pt x="390" y="594" on="0"/>
        <pt x="452" y="644" on="0"/>
        <pt x="459" y="684" on="1"/>
        <pt x="504" y="684" on="1"/>
        <pt x="493" y="627" on="0"/>
        <pt x="406" y="558" on="0"/>
      </contour>
    </TTGlyph>
    <TTGlyph name="bullet" xMin="63" yMin="134" xMax="339" yMax="399">
      <contour>
        <pt x="143" y="399" on="0"/>
        <pt x="259" y="399" on="0"/>
        <pt x="339" y="320" on="0"/>
        <pt x="339" y="266" on="1"/>
        <pt x="339" y="209" on="0"/>
        <pt x="260" y="134" on="0"/>
        <pt x="142" y="134" on="0"/>
        <pt x="63" y="209" on="0"/>
        <pt x="63" y="266" on="1"/>
        <pt x="63" y="320" on="0"/>
      </contour>
    </TTGlyph>
    <TTGlyph name="bullet.case" xMin="79" yMin="200" xMax="355" yMax="465">
      <contour>
        <pt x="159" y="465" on="0"/>
        <pt x="275" y="465" on="0"/>
        <pt x="355" y="386" on="0"/>
        <pt x="355" y="332" on="1"/>
        <pt x="355" y="275" on="0"/>
        <pt x="276" y="200" on="0"/>
        <pt x="158" y="200" on="0"/>
        <pt x="79" y="275" on="0"/>
        <pt x="79" y="332" on="1"/>
        <pt x="79" y="386" on="0"/>
      </contour>
    </TTGlyph>
    <TTGlyph name="c" xMin="47" yMin="-11" xMax="541" yMax="501">
      <contour>
        <pt x="267" y="34" on="1"/>
        <pt x="329" y="34" on="0"/>
        <pt x="437" y="101" on="0"/>
        <pt x="463" y="156" on="1"/>
        <pt x="508" y="146" on="1"/>
        <pt x="477" y="76" on="0"/>
        <pt x="342" y="-11" on="0"/>
        <pt x="264" y="-11" on="1"/>
        <pt x="157" y="-11" on="0"/>
        <pt x="29" y="132" on="0"/>
        <pt x="47" y="245" on="1"/>
        <pt x="65" y="357" on="0"/>
        <pt x="235" y="501" on="0"/>
        <pt x="338" y="501" on="1"/>
        <pt x="418" y="501" on="0"/>
        <pt x="531" y="417" on="0"/>
        <pt x="541" y="347" on="1"/>
        <pt x="492" y="334" on="1"/>
        <pt x="485" y="390" on="0"/>
        <pt x="395" y="455" on="0"/>
        <pt x="333" y="455" on="1"/>
        <pt x="248" y="455" on="0"/>
        <pt x="110" y="337" on="0"/>
        <pt x="95" y="245" on="1"/>
        <pt x="80" y="152" on="0"/>
        <pt x="183" y="34" on="0"/>
      </contour>
    </TTGlyph>
    <TTGlyph name="cacute" xMin="47" yMin="-11" xMax="541" yMax="705">
      <contour>
        <pt x="388" y="567" on="1"/>
        <pt x="341" y="567" on="1"/>
        <pt x="459" y="705" on="1"/>
        <pt x="522" y="705" on="1"/>
      </contour>
      <contour>
        <pt x="267" y="34" on="1"/>
        <pt x="329" y="34" on="0"/>
        <pt x="437" y="101" on="0"/>
        <pt x="463" y="156" on="1"/>
        <pt x="508" y="146" on="1"/>
        <pt x="477" y="76" on="0"/>
        <pt x="342" y="-11" on="0"/>
        <pt x="264" y="-11" on="1"/>
        <pt x="157" y="-11" on="0"/>
        <pt x="29" y="132" on="0"/>
        <pt x="47" y="245" on="1"/>
        <pt x="65" y="357" on="0"/>
        <pt x="235" y="501" on="0"/>
        <pt x="338" y="501" on="1"/>
        <pt x="418" y="501" on="0"/>
        <pt x="531" y="417" on="0"/>
        <pt x="541" y="347" on="1"/>
        <pt x="492" y="334" on="1"/>
        <pt x="485" y="390" on="0"/>
        <pt x="395" y="455" on="0"/>
        <pt x="333" y="455" on="1"/>
        <pt x="248" y="455" on="0"/>
        <pt x="110" y="337" on="0"/>
        <pt x="95" y="245" on="1"/>
        <pt x="80" y="152" on="0"/>
        <pt x="183" y="34" on="0"/>
      </contour>
    </TTGlyph>
    <TTGlyph name="caron" xMin="233" yMin="561" xMax="516" yMax="700">
      <contour>
        <pt x="516" y="700" on="1"/>
        <pt x="365" y="561" on="1"/>
        <pt x="319" y="561" on="1"/>
        <pt x="233" y="700" on="1"/>
        <pt x="281" y="700" on="1"/>
        <pt x="346" y="594" on="1"/>
        <pt x="461" y="700" on="1"/>
      </contour>
    </TTGlyph>
    <TTGlyph name="caron.alt" xMin="317" yMin="491" xMax="404" yMax="650">
      <contour>
        <pt x="357" y="491" on="1"/>
        <pt x="317" y="491" on="1"/>
        <pt x="354" y="650" on="1"/>
        <pt x="404" y="650" on="1"/>
      </contour>
    </TTGlyph>
</ttFont>
